<svg width="11" height="23" viewBox="0 0 11 23" fill="none" xmlns="http://www.w3.org/2000/svg">
<path id="icon/editor/attach_file_24px" d="M9.5 5.20939V16.6856C9.5 18.8911 7.71 20.6774 5.5 20.6774C3.29 20.6774 1.5 18.8911 1.5 16.6856V4.21146C1.5 2.83431 2.62 1.71663 4 1.71663C5.38 1.71663 6.5 2.83431 6.5 4.21146V14.6898C6.5 15.2386 6.05 15.6877 5.5 15.6877C4.95 15.6877 4.5 15.2386 4.5 14.6898V5.20939H3V14.6898C3 16.0669 4.12 17.1846 5.5 17.1846C6.88 17.1846 8 16.0669 8 14.6898V4.21146C8 2.00603 6.21 0.219727 4 0.219727C1.79 0.219727 0 2.00603 0 4.21146V16.6856C0 19.7193 2.46 22.1743 5.5 22.1743C8.54 22.1743 11 19.7193 11 16.6856V5.20939H9.5Z" fill="#C6C6C5"/>
</svg>
