<svg width="16" height="15" viewBox="0 0 16 15" fill="none" xmlns="http://www.w3.org/2000/svg">
<path opacity="0.7" d="M15.9991 11.093V13.9824C15.9992 14.1893 15.914 14.3885 15.7605 14.5399C15.6071 14.6912 15.397 14.7834 15.1725 14.7979C14.7841 14.8224 14.4668 14.8355 14.2214 14.8355C6.36676 14.8355 0 8.98232 0 1.76124C0 1.53571 0.0133326 1.24399 0.0408866 0.886895C0.056639 0.680521 0.156952 0.487322 0.321585 0.346281C0.486218 0.205241 0.702915 0.12686 0.927949 0.126953H4.07089C4.18114 0.126851 4.28749 0.164426 4.36929 0.232381C4.4511 0.300336 4.5025 0.393818 4.51353 0.494667C4.53397 0.68261 4.55264 0.832147 4.57041 0.94573C4.74706 2.07904 5.10905 3.18129 5.64413 4.21512C5.72857 4.37854 5.67346 4.57384 5.51347 4.67843L3.59536 5.93847C4.76814 8.45073 6.94588 10.4528 9.67857 11.531L11.0474 9.77086C11.1033 9.69895 11.185 9.64738 11.278 9.62513C11.3711 9.60288 11.4697 9.61137 11.5567 9.64911C12.6811 10.1401 13.8797 10.4721 15.1121 10.6338C15.2356 10.6501 15.3983 10.6681 15.6009 10.6861C15.7105 10.6964 15.8119 10.7437 15.8857 10.8189C15.9594 10.8941 16.0001 10.9918 16 11.093H15.9991Z" fill="#2B2C2D"/>
</svg>
