<svg width="22" height="26" viewBox="0 0 22 26" fill="none" xmlns="http://www.w3.org/2000/svg">
<path d="M21.375 20.0909L21.875 20.7292C21.9446 20.8181 21.9871 20.9239 21.9975 21.0347C22.0079 21.1454 21.9859 21.2568 21.934 21.3562C21.8821 21.4557 21.8023 21.5393 21.7036 21.5978C21.6048 21.6562 21.4911 21.6872 21.375 21.6872H1.375C1.25893 21.6872 1.14515 21.6562 1.04642 21.5978C0.947683 21.5393 0.867891 21.4557 0.815983 21.3562C0.764075 21.2568 0.742102 21.1454 0.752526 21.0347C0.762949 20.9239 0.805358 20.8181 0.875 20.7292L1.375 20.0909V9.712C1.375 7.17118 2.42857 4.73443 4.30393 2.9378C6.1793 1.14117 8.72284 0.131836 11.375 0.131836C14.0272 0.131836 16.5707 1.14117 18.4461 2.9378C20.3214 4.73443 21.375 7.17118 21.375 9.712V20.0909ZM8.25 22.8847H14.5C14.5 23.6787 14.1708 24.4402 13.5847 25.0017C12.9987 25.5631 12.2038 25.8785 11.375 25.8785C10.5462 25.8785 9.75134 25.5631 9.16529 25.0017C8.57924 24.4402 8.25 23.6787 8.25 22.8847Z" fill="#1A3A54" fill-opacity="0.3"/>
</svg>
