<svg width="17" height="15" viewBox="0 0 17 15" fill="none" xmlns="http://www.w3.org/2000/svg">
<path opacity="0.7" d="M15.4545 7.73244C14.6291 7.45414 13.7376 7.40405 12.8835 7.58797C12.0293 7.77189 11.2474 8.1823 10.6281 8.77168C10.0089 9.36107 9.57768 10.1053 9.38444 10.9183C9.1912 11.7313 9.24383 12.5797 9.53623 13.3654H0.772727C0.567787 13.3654 0.371241 13.2879 0.226327 13.15C0.0814121 13.0121 0 12.825 0 12.6299V0.862422C0 0.667364 0.0814121 0.480294 0.226327 0.342367C0.371241 0.20444 0.567787 0.126953 0.772727 0.126953H14.6818C14.8868 0.126953 15.0833 0.20444 15.2282 0.342367C15.3731 0.480294 15.4545 0.667364 15.4545 0.862422V7.73244ZM7.77364 6.51303L2.81891 2.5084L1.81823 3.62926L7.78368 8.45026L13.6417 3.62558L12.631 2.51281L7.77364 6.51303ZM14.6818 11.159H17V12.6299H14.6818V14.8363H13.1364V12.6299H10.8182V11.159H13.1364V8.95258H14.6818V11.159Z" fill="#2B2C2D"/>
</svg>
