<svg width="17" height="16" viewBox="0 0 17 16" fill="none" xmlns="http://www.w3.org/2000/svg">
<path d="M16.7514 11.9282V15.0712C16.7515 15.2962 16.6671 15.5129 16.5151 15.6775C16.3632 15.8422 16.1551 15.9425 15.9328 15.9582C15.5481 15.9849 15.2339 15.9991 14.9909 15.9991C7.21232 15.9991 0.907227 9.63235 0.907227 1.77768C0.907227 1.53236 0.92043 1.21504 0.947717 0.826621C0.963317 0.602139 1.06266 0.391988 1.2257 0.238572C1.38874 0.0851569 1.60333 -0.000101713 1.82619 2.28058e-07H4.93868C5.04787 -0.000111402 5.15319 0.0407613 5.2342 0.114678C5.31521 0.188596 5.36612 0.29028 5.37704 0.399978C5.39728 0.604411 5.41577 0.767069 5.43337 0.890617C5.60831 2.12337 5.9668 3.32233 6.49669 4.44686C6.58032 4.62463 6.52574 4.83706 6.3673 4.95084L4.46776 6.32143C5.62918 9.05412 7.78583 11.2319 10.4921 12.4046L11.8476 10.4901C11.903 10.4119 11.9839 10.3558 12.076 10.3316C12.1682 10.3074 12.2659 10.3166 12.352 10.3576C13.4655 10.8917 14.6525 11.2528 15.8729 11.4287C15.9953 11.4465 16.1563 11.466 16.357 11.4856C16.4655 11.4968 16.566 11.5483 16.639 11.6301C16.712 11.7119 16.7524 11.8181 16.7523 11.9282H16.7514Z" fill="white"/>
</svg>
