<svg width="23" height="14" viewBox="0 0 23 14" fill="none" xmlns="http://www.w3.org/2000/svg">
<path fill-rule="evenodd" clip-rule="evenodd" d="M17.8635 5.21636C17.2357 2.23682 14.4385 0 11.0781 0C8.41014 0 6.09297 1.41636 4.939 3.48909C2.16023 3.76545 0 5.96773 0 8.63636C0 11.495 2.48335 13.8182 5.53906 13.8182H17.5404C20.0883 13.8182 22.1562 11.8836 22.1562 9.5C22.1562 7.22 20.2637 5.37182 17.8635 5.21636ZM17.5412 12.0909H5.53985C3.49963 12.0909 1.84714 10.545 1.84714 8.63638C1.84714 6.86593 3.2596 5.38911 5.13365 5.20775L6.12145 5.11275L6.58304 4.29229C7.46006 2.71184 9.17717 1.72729 11.0789 1.72729C13.4976 1.72729 15.584 3.33366 16.0548 5.5532L16.3318 6.84866L17.7442 6.94366C19.1844 7.03002 20.3107 8.16138 20.3107 9.50002C20.3107 10.925 19.0644 12.0909 17.5412 12.0909ZM9.73845 5.18188H12.4157V7.77279H14.7698L11.0771 11.2273L7.38435 7.77279H9.73845V5.18188Z" fill="#FCFEFE"/>
</svg>
