<svg width="40" height="26" viewBox="0 0 40 26" fill="none" xmlns="http://www.w3.org/2000/svg">
<path opacity="0.5" fill-rule="evenodd" clip-rule="evenodd" d="M32.2939 10.2017C31.1776 4.90338 26.2034 0.925781 20.2279 0.925781C15.4836 0.925781 11.3631 3.44442 9.31104 7.13022C4.36974 7.62167 0.52832 11.5378 0.52832 16.2833C0.52832 21.3667 4.94431 25.4978 10.3781 25.4978H31.7193C36.2502 25.4978 39.9275 22.0577 39.9275 17.8191C39.9275 13.7647 36.5621 10.4782 32.2939 10.2017ZM31.7221 22.4265H10.3809C6.75293 22.4265 3.81441 19.6775 3.81441 16.2835C3.81441 13.1352 6.32611 10.5091 9.65862 10.1866L11.4152 10.0176L12.236 8.55867C13.7955 5.74824 16.849 3.99748 20.2307 3.99748C24.5318 3.99748 28.2419 6.85398 29.0791 10.8009L29.5716 13.1045L32.0833 13.2734C34.6442 13.427 36.647 15.4388 36.647 17.8193C36.647 20.3533 34.4308 22.4265 31.7221 22.4265ZM17.8457 10.141H22.6065V14.7483H26.7926L20.2261 20.8913L13.6596 14.7483H17.8457V10.141Z" fill="black"/>
</svg>
