<svg width="22" height="21" viewBox="0 0 22 21" fill="none" xmlns="http://www.w3.org/2000/svg">
<path opacity="0.7" d="M0.588379 16.593V18.2562C0.588379 19.6333 4.14485 20.7521 8.52955 20.7521C12.9143 20.7521 16.4707 19.6333 16.4707 18.2573V16.5941C14.7625 17.7284 11.6401 18.2573 8.52955 18.2573C5.41897 18.2573 2.29661 17.7273 0.588379 16.593ZM13.8237 5.78313C18.2084 5.78313 21.7648 4.66433 21.7648 3.28829C21.7648 1.91225 18.2084 0.793457 13.8237 0.793457C9.43897 0.793457 5.8825 1.91225 5.8825 3.28829C5.8825 4.66433 9.43897 5.78313 13.8237 5.78313ZM0.588379 12.5037V14.515C0.588379 15.8911 4.14485 17.0099 8.52955 17.0099C12.9143 17.0099 16.4707 15.8911 16.4707 14.515V12.5037C14.7625 13.8342 11.6354 14.515 8.52955 14.515C5.42367 14.515 2.29661 13.8287 0.588379 12.5037ZM17.7943 12.9328C20.1637 12.4992 21.7648 11.6964 21.7648 10.7728V9.10957C20.5558 9.81492 19.2031 10.2731 17.7943 10.4546V12.9328ZM8.52955 7.03055C4.14485 7.03055 0.588379 8.42654 0.588379 10.1496C0.588379 11.8727 4.14485 13.2676 8.52955 13.2676C12.9143 13.2676 16.4707 11.8716 16.4707 10.1496C16.4707 8.42765 12.9143 7.03055 8.52955 7.03055ZM17.6001 9.22046C20.0813 8.80465 21.7648 7.97747 21.7648 7.03055V5.36732C19.7359 6.44307 17.4457 7.00466 15.1178 6.99728C16.2162 7.41226 17.1044 8.20774 17.6001 9.22046Z" fill="white"/>
</svg>
