<svg width="20" height="20" viewBox="0 0 20 20" fill="none" xmlns="http://www.w3.org/2000/svg">
<path d="M0 15.8322V17.4989C0 18.8789 3.35889 20 7.5 20C11.6411 20 15 18.8789 15 17.5V15.8333C13.3867 16.97 10.4378 17.5 7.5 17.5C4.56222 17.5 1.61333 16.9689 0 15.8322ZM12.5 5C16.6411 5 20 3.87889 20 2.5C20 1.12111 16.6411 0 12.5 0C8.35889 0 5 1.12111 5 2.5C5 3.87889 8.35889 5 12.5 5ZM0 11.7344V13.75C0 15.1289 3.35889 16.25 7.5 16.25C11.6411 16.25 15 15.1289 15 13.75V11.7344C13.3867 13.0678 10.4333 13.75 7.5 13.75C4.56667 13.75 1.61333 13.0622 0 11.7344ZM16.25 12.1644C18.4878 11.73 20 10.9256 20 10V8.33333C18.8581 9.04014 17.5806 9.49931 16.25 9.68111V12.1644ZM7.5 6.25C3.35889 6.25 0 7.64889 0 9.37556C0 11.1022 3.35889 12.5 7.5 12.5C11.6411 12.5 15 11.1011 15 9.37556C15 7.65 11.6411 6.25 7.5 6.25ZM16.0667 8.44444C18.41 8.02778 20 7.19889 20 6.25V4.58333C18.0838 5.66131 15.9208 6.22407 13.7222 6.21667C14.7596 6.63251 15.5985 7.42963 16.0667 8.44444Z" fill="#98A7B0"/>
</svg>
