<svg width="24" height="19" viewBox="0 0 24 19" fill="none" xmlns="http://www.w3.org/2000/svg">
<g opacity="0.7">
<mask id="mask0" mask-type="alpha" maskUnits="userSpaceOnUse" x="0" y="0" width="24" height="20">
<g style="mix-blend-mode:multiply">
<path d="M16.4516 18.5192V16.6386C16.4516 15.641 16.046 14.6843 15.3241 13.979C14.6021 13.2736 13.6229 12.8773 12.6019 12.8773H4.90263C3.88164 12.8773 2.90247 13.2736 2.18052 13.979C1.45857 14.6843 1.05298 15.641 1.05298 16.6386V18.5192" stroke="#016677" stroke-width="2" stroke-linecap="round" stroke-linejoin="round"/>
<path d="M8.75419 9.11552C10.8803 9.11552 12.6038 7.43155 12.6038 5.35427C12.6038 3.27699 10.8803 1.59302 8.75419 1.59302C6.62809 1.59302 4.90454 3.27699 4.90454 5.35427C4.90454 7.43155 6.62809 9.11552 8.75419 9.11552Z" stroke="#016677" stroke-width="2" stroke-linecap="round" stroke-linejoin="round"/>
<path d="M22.2256 18.5188V16.6382C22.225 15.8048 21.9411 14.9952 21.4185 14.3366C20.8959 13.6779 20.1643 13.2075 19.3384 12.9991" stroke="#016677" stroke-width="2" stroke-linecap="round" stroke-linejoin="round"/>
<path d="M15.4912 1.71472C16.3193 1.92187 17.0532 2.39241 17.5774 3.05214C18.1015 3.71187 18.386 4.52328 18.386 5.35843C18.386 6.19359 18.1015 7.005 17.5774 7.66473C17.0532 8.32446 16.3193 8.79499 15.4912 9.00215" stroke="#016677" stroke-width="2" stroke-linecap="round" stroke-linejoin="round"/>
</g>
</mask>
<g mask="url(#mask0)">
<rect x="-7.08984" y="0.902466" width="31.5141" height="17.2712" fill="white"/>
</g>
</g>
</svg>
