<svg width="20" height="12" viewBox="0 0 20 12" fill="none" xmlns="http://www.w3.org/2000/svg">
<path d="M13.5866 8.4064e-08H10.9016C10.6518 -0.000102417 10.4111 0.093535 10.2271 0.262378L7.16011 3.06914C7.15632 3.07261 7.15289 3.07645 7.14986 3.08061C7.14699 3.08455 7.14374 3.08821 7.1402 3.09156C6.90376 3.31506 6.76438 3.62243 6.75223 3.94767C6.73999 4.27535 6.85788 4.59457 7.0802 4.83572C7.3095 5.06544 7.61632 5.20139 7.94062 5.21695C8.26088 5.23232 8.57543 5.12919 8.82426 4.92753C8.82959 4.92321 8.83877 4.92079 8.84372 4.91605C8.8449 4.91492 8.84643 4.91265 8.84763 4.91156L11.3425 2.6271C11.4403 2.53769 11.5697 2.49079 11.7021 2.49671C11.8345 2.50262 11.9592 2.56088 12.0486 2.65865C12.1381 2.75642 12.185 2.88571 12.1791 3.01807C12.1732 3.15042 12.1149 3.27501 12.0171 3.36441C11.5877 3.7574 11.608 4.44018 12.06 4.80693L15.7521 7.80269C15.8444 7.87961 15.9991 7.81814 15.9991 7.69803V2.41432C15.9991 2.14868 15.8934 1.89395 15.7053 1.70634L14.2889 0.293376C14.1962 0.200364 14.0861 0.126564 13.9648 0.0762178C13.8435 0.0258711 13.7135 -3.06618e-05 13.5822 8.4064e-08H13.5866ZM18.0027 2.00603C17.4504 2.00603 17.0027 2.45374 17.0027 3.00603V9.00055C17.0027 9.26481 17.1077 9.51824 17.2946 9.70509C17.4816 9.89195 17.7352 9.99692 17.9996 9.99692H19C19.5523 9.99692 20 9.54921 20 8.99692V3.00603C20 2.45374 19.5523 2.00603 19 2.00603H18.0027ZM18.498 8.99945C18.3992 8.99945 18.3026 8.97016 18.2205 8.9153C18.1383 8.86044 18.0743 8.78246 18.0365 8.69122C17.9987 8.59999 17.9888 8.4996 18.008 8.40275C18.0273 8.30589 18.0749 8.21693 18.1448 8.1471C18.2146 8.07727 18.3036 8.02972 18.4005 8.01046C18.4975 7.99119 18.5979 8.00108 18.6892 8.03887C18.7805 8.07666 18.8585 8.14065 18.9134 8.22276C18.9683 8.30487 18.9976 8.4014 18.9976 8.50015C18.997 8.6324 18.9442 8.75905 18.8506 8.85256C18.757 8.94607 18.6303 8.99886 18.498 8.99945ZM0 8.99582C0 9.5481 0.447715 9.99582 1 9.99582H2.00044C2.26484 9.99582 2.5184 9.89084 2.70536 9.70399C2.89231 9.51713 2.99734 9.2637 2.99734 8.99945V3.00603C2.99734 2.45374 2.54963 2.00603 1.99734 2.00603H0.999999C0.447714 2.00603 0 2.45374 0 3.00603V8.99582ZM1.49978 8.00142C1.49978 8.00233 1.50052 8.00307 1.50144 8.00308C1.59966 8.0034 1.69563 8.03267 1.77732 8.08722C1.85947 8.14208 1.9235 8.22006 1.96131 8.3113C1.99912 8.40253 2.00901 8.50292 1.98974 8.59977C1.97046 8.69663 1.92288 8.78559 1.85302 8.85542C1.78315 8.92525 1.69414 8.9728 1.59724 8.99207C1.50033 9.01133 1.39989 9.00144 1.30861 8.96365C1.21732 8.92586 1.1393 8.86187 1.08441 8.77976C1.02952 8.69765 1.00022 8.60112 1.00022 8.50237C0.999927 8.36955 1.05236 8.24204 1.14601 8.14781C1.23927 8.05398 1.36583 8.00079 1.49811 7.99976C1.49903 7.99976 1.49978 8.0005 1.49978 8.00142ZM15.1241 8.58263C15.1241 8.58329 15.1233 8.58366 15.1228 8.58324L11.1274 5.33882C10.7426 5.02627 10.1868 5.04293 9.82129 5.37799L9.52038 5.65385C9.08061 6.05699 8.49861 6.269 7.90244 6.24326C7.30626 6.21751 6.74473 5.95612 6.34138 5.51658C5.93803 5.07703 5.72591 4.49535 5.75167 3.89949C5.77742 3.30362 6.03896 2.74239 6.47873 2.33926L7.13609 1.73776C7.80925 1.12179 7.37347 8.4064e-08 6.46103 8.4064e-08H6.4167C6.28538 -3.06618e-05 6.15535 0.0258711 6.03407 0.0762178C5.9128 0.126564 5.80267 0.200364 5.71001 0.293376L4.29442 1.70638C4.10649 1.89397 4.00089 2.1486 4.00089 2.41413V8.58127C4.00089 8.80917 4.18563 8.99391 4.41353 8.99391C4.51581 8.99391 4.61444 9.0319 4.69031 9.1005L7.40142 11.5524C7.81286 11.8866 8.34029 12.0438 8.8677 11.9894C9.39511 11.935 9.8793 11.6735 10.2138 11.2623C10.2175 11.2586 10.2235 11.2584 10.2275 11.2618L10.7798 11.7395C10.8982 11.8357 11.0344 11.9078 11.1806 11.9514C11.3269 11.9951 11.4803 12.0095 11.6321 11.9938C11.784 11.9782 11.9312 11.9329 12.0655 11.8603C12.1998 11.7878 12.3184 11.6896 12.4147 11.5712L13.259 10.5341C13.3347 10.441 13.4715 10.4271 13.5645 10.5029C13.6663 10.5859 13.7836 10.648 13.9096 10.6856C14.0356 10.7232 14.1677 10.7355 14.2985 10.7218C14.4292 10.7081 14.556 10.6687 14.6714 10.6059C14.7869 10.543 14.8888 10.458 14.9712 10.3556L15.2681 9.99028C15.3519 9.88859 15.4147 9.77129 15.4528 9.64519C15.491 9.51908 15.5037 9.38666 15.4903 9.25559C15.4769 9.12453 15.4377 8.99742 15.3748 8.88162C15.3122 8.7663 15.2274 8.66449 15.1253 8.58201C15.1248 8.58159 15.1241 8.58196 15.1241 8.58263Z" fill="#98A7B0"/>
</svg>
