<svg width="150" height="228" viewBox="0 0 150 228" fill="none" xmlns="http://www.w3.org/2000/svg">
<g clip-path="url(#clip0)">
<path d="M141.895 11.999H90.7962C91.1344 13.2118 91.3321 14.4594 91.3854 15.7173H121.039C121.803 15.7173 122.56 15.8679 123.266 16.1606C123.972 16.4533 124.614 16.8822 125.154 17.423C125.695 17.9638 126.123 18.6057 126.416 19.3123C126.708 20.0188 126.859 20.776 126.859 21.5408V21.6328H132.67C134.22 21.6328 135.707 22.2489 136.803 23.3456C137.899 24.4422 138.515 25.9297 138.515 27.4806V212.518C138.515 213.286 138.364 214.046 138.07 214.756C137.776 215.465 137.346 216.11 136.803 216.653C136.26 217.196 135.616 217.627 134.907 217.921C134.198 218.215 133.438 218.366 132.67 218.366H17.3319C15.7819 218.366 14.2953 217.75 13.1992 216.654C12.1031 215.557 11.4874 214.07 11.4874 212.519V27.4806C11.4874 25.9297 12.1031 24.4422 13.1992 23.3456C14.2953 22.2489 15.7819 21.6328 17.3319 21.6328H23.1416V21.5408C23.1416 20.7759 23.2922 20.0186 23.5847 19.312C23.8773 18.6054 24.3061 17.9633 24.8467 17.4226C25.3872 16.8818 26.029 16.4529 26.7352 16.1603C27.4415 15.8677 28.1985 15.7172 28.9629 15.7173H58.6165C58.6693 14.4593 58.867 13.2116 59.2058 11.999H8.10681C5.95701 11.999 3.89526 12.8535 2.37512 14.3745C0.854984 15.8955 0.000976562 17.9584 0.000976562 20.1094V219.889C0.000976562 222.04 0.854984 224.103 2.37512 225.624C3.89526 227.145 5.95701 227.999 8.10681 227.999H141.895C144.045 227.999 146.107 227.145 147.627 225.624C149.147 224.103 150.001 222.04 150.001 219.889V20.1094C150.001 17.9584 149.147 15.8955 147.627 14.3745C146.107 12.8535 144.045 11.999 141.895 11.999Z" fill="#667B94"/>
<path d="M125.105 30.5916H24.8966C24.4314 30.5916 23.9853 30.4067 23.6563 30.0776C23.3274 29.7485 23.1426 29.3021 23.1426 28.8366V21.6328H17.3319C15.7818 21.6328 14.2952 22.2489 13.1991 23.3456C12.1031 24.4423 11.4873 25.9297 11.4873 27.4807V212.518C11.4872 213.286 11.6382 214.047 11.9319 214.756C12.2255 215.466 12.656 216.111 13.1987 216.654C13.7415 217.197 14.3858 217.628 15.095 217.922C15.8041 218.216 16.5642 218.367 17.3319 218.367H132.67C134.22 218.367 135.707 217.751 136.803 216.654C137.899 215.558 138.514 214.07 138.514 212.519V27.4812C138.514 25.9303 137.899 24.4428 136.803 23.3462C135.707 22.2495 134.22 21.6334 132.67 21.6334H126.859V28.8372C126.859 29.3025 126.674 29.7487 126.345 30.0777C126.016 30.4068 125.57 30.5916 125.105 30.5916Z" fill="white"/>
<path d="M28.9629 15.7177C28.1985 15.7176 27.4415 15.8681 26.7353 16.1607C26.029 16.4533 25.3873 16.8822 24.8467 17.423C24.3061 17.9637 23.8773 18.6058 23.5847 19.3124C23.2922 20.019 23.1416 20.7763 23.1416 21.5412V28.8364C23.1416 29.3019 23.3264 29.7483 23.6553 30.0774C23.9843 30.4065 24.4304 30.5914 24.8956 30.5914H125.105C125.336 30.5914 125.564 30.546 125.776 30.4578C125.989 30.3696 126.183 30.2403 126.345 30.0773C126.508 29.9144 126.637 29.7209 126.725 29.508C126.813 29.2951 126.859 29.0669 126.859 28.8364V21.5412C126.859 20.7765 126.708 20.0192 126.416 19.3127C126.123 18.6061 125.695 17.9642 125.154 17.4234C124.614 16.8826 123.972 16.4537 123.266 16.161C122.56 15.8683 121.803 15.7177 121.039 15.7177H91.3854C91.2082 11.4888 89.4045 7.49192 86.3512 4.56233C83.2979 1.63275 79.2313 -0.00292969 75.001 -0.00292969C70.7707 -0.00292969 66.704 1.63275 63.6507 4.56233C60.5975 7.49192 58.7938 11.4888 58.6165 15.7177H28.9629ZM75.001 3.52108C75.6364 3.52108 76.2576 3.70965 76.7859 4.06293C77.3142 4.41622 77.7259 4.91834 77.9689 5.50579C78.212 6.09323 78.2754 6.73961 78.1513 7.36314C78.0271 7.98667 77.7209 8.55935 77.2714 9.00873C76.8219 9.45811 76.2492 9.76399 75.626 9.88769C75.0027 10.0114 74.3567 9.94735 73.7698 9.70366C73.1829 9.45998 72.6814 9.0476 72.3288 8.51869C71.9762 7.98978 71.7882 7.36811 71.7888 6.73232C71.7888 6.31038 71.8719 5.89258 72.0334 5.5028C72.1948 5.11301 72.4315 4.75888 72.7298 4.46065C73.0281 4.16243 73.3822 3.92594 73.7719 3.76473C74.1616 3.60351 74.5793 3.52072 75.001 3.52108Z" fill="#93BEE3"/>
<path d="M24.8965 32.6699H125.105C125.335 32.6699 125.564 32.6245 125.776 32.5363C125.989 32.4481 126.182 32.3188 126.345 32.1559C126.508 31.9929 126.637 31.7994 126.725 31.5865C126.813 31.3736 126.859 31.1454 126.859 30.9149V28.8369C126.859 29.0674 126.813 29.2955 126.725 29.5085C126.637 29.7214 126.508 29.9149 126.345 30.0778C126.182 30.2408 125.989 30.3701 125.776 30.4583C125.564 30.5465 125.335 30.5919 125.105 30.5919H24.8965C24.4314 30.5919 23.9852 30.407 23.6563 30.0779C23.3274 29.7487 23.1426 29.3024 23.1426 28.8369V30.9149C23.1426 31.3804 23.3274 31.8268 23.6563 32.1559C23.9852 32.485 24.4314 32.6699 24.8965 32.6699Z" fill="#F0F3F6"/>
<path d="M132.67 218.367H17.3319C15.7819 218.367 14.2953 217.751 13.1992 216.654C12.1031 215.557 11.4874 214.07 11.4874 212.519V36.9878L0.000976562 20.168V219.889C0.000976562 222.04 0.854984 224.103 2.37512 225.624C3.89526 227.145 5.95701 227.999 8.10681 227.999H141.901L141.918 227.978L135.015 217.871C134.276 218.198 133.478 218.366 132.67 218.367Z" fill="#596C82"/>
<path d="M17.3319 218.367H132.67C133.478 218.367 134.277 218.199 135.017 217.873L11.4873 36.9883V212.518C11.4872 213.286 11.6382 214.047 11.9319 214.757C12.2255 215.466 12.656 216.111 13.1987 216.654C13.7415 217.197 14.3858 217.628 15.095 217.922C15.8041 218.216 16.5642 218.367 17.3319 218.367Z" fill="#F0F3F6"/>
<path d="M121.317 15.7324C120.929 16.1126 120.536 16.4888 120.149 16.8717C115.486 21.4201 110.847 25.9934 106.23 30.5917H110.074C114.029 26.613 117.958 22.6088 121.863 18.579C122.55 17.8836 123.229 17.1809 123.912 16.4794C123.118 16.0289 122.229 15.7729 121.317 15.7324Z" fill="#B9D6ED"/>
<path d="M30.0051 30.5915C34.9807 25.6541 39.9354 20.6962 44.8693 15.7178H42.1871C37.2152 20.6493 32.2697 25.6072 27.3506 30.5915H30.0051Z" fill="#B9D6ED"/>
<path d="M106.714 24.2648L115.243 15.7178H107.512L102.837 20.3859C99.4198 23.8005 95.7612 27.1353 92.2549 30.5915H100.618C102.652 28.4525 104.671 26.3152 106.714 24.2648Z" fill="#B9D6ED"/>
<path d="M54.3174 15.7178H48.1815C43.0896 20.6613 37.964 25.5876 32.9258 30.5915H39.8741C44.7101 25.6502 49.4974 20.6568 54.3174 15.7178Z" fill="#B9D6ED"/>
<path d="M37.7841 47.6602H29.3044C28.8637 47.6602 28.4272 47.747 28.02 47.9158C27.6127 48.0846 27.2427 48.332 26.931 48.6439C26.6194 48.9558 26.3722 49.3261 26.2036 49.7335C26.0349 50.141 25.9482 50.5778 25.9482 51.0188V59.5027C25.9482 60.3933 26.3018 61.2475 26.9313 61.8772C27.5607 62.507 28.4143 62.8608 29.3044 62.8608H37.7841C38.6742 62.8608 39.5279 62.507 40.1573 61.8772C40.7867 61.2475 41.1403 60.3933 41.1403 59.5027V51.016C41.1397 50.1258 40.7859 49.2722 40.1565 48.6429C39.5272 48.0136 38.6738 47.6602 37.7841 47.6602ZM39.2855 57.6469C39.2855 58.0879 39.1987 58.5246 39.03 58.9321C38.8613 59.3396 38.614 59.7098 38.3023 60.0216C37.9906 60.3334 37.6206 60.5808 37.2133 60.7495C36.806 60.9182 36.3696 61.005 35.9288 61.005H31.1592C30.2691 61.005 29.4154 60.6512 28.786 60.0214C28.1566 59.3916 27.803 58.5375 27.803 57.6469V52.8746C27.803 51.984 28.1566 51.1297 28.786 50.4999C29.4154 49.87 30.269 49.5161 31.1592 49.516H35.9288C36.3696 49.516 36.8061 49.6028 37.2134 49.7716C37.6206 49.9404 37.9907 50.1878 38.3024 50.4997C38.6141 50.8116 38.8613 51.1818 39.03 51.5893C39.1987 51.9968 39.2855 52.4336 39.2855 52.8746V57.6469Z" fill="#93BEE3"/>
<path d="M123.506 50.9288H61.3223C61.2123 50.9289 61.1033 50.9072 61.0016 50.8651C60.8999 50.823 60.8075 50.7613 60.7296 50.6834C60.6518 50.6055 60.5901 50.5131 60.548 50.4113C60.5059 50.3095 60.4843 50.2005 60.4844 50.0904C60.4844 49.868 60.5727 49.6548 60.7298 49.4975C60.8869 49.3403 61.1001 49.252 61.3223 49.252H123.506C123.728 49.252 123.942 49.3403 124.099 49.4975C124.256 49.6548 124.344 49.868 124.344 50.0904C124.344 50.2005 124.323 50.3095 124.28 50.4113C124.238 50.5131 124.177 50.6055 124.099 50.6834C124.021 50.7613 123.929 50.823 123.827 50.8651C123.725 50.9072 123.616 50.9289 123.506 50.9288Z" fill="#93BEE3"/>
<path d="M123.506 56.0997H48.5137C48.4037 56.0997 48.2947 56.078 48.1931 56.0359C48.0914 55.9937 47.999 55.932 47.9212 55.8541C47.8434 55.7763 47.7817 55.6838 47.7396 55.5821C47.6975 55.4804 47.6758 55.3714 47.6758 55.2613C47.6758 55.0389 47.7641 54.8256 47.9212 54.6684C48.0784 54.5112 48.2915 54.4229 48.5137 54.4229H123.506C123.616 54.4228 123.725 54.4444 123.827 54.4865C123.928 54.5286 124.021 54.5904 124.099 54.6682C124.176 54.7461 124.238 54.8386 124.28 54.9403C124.322 55.0421 124.344 55.1511 124.344 55.2613C124.344 55.3714 124.322 55.4804 124.28 55.5822C124.238 55.6839 124.176 55.7764 124.099 55.8543C124.021 55.9321 123.928 55.9939 123.827 56.036C123.725 56.0781 123.616 56.0998 123.506 56.0997Z" fill="#93BEE3"/>
<path d="M110.337 61.2682H48.5137C48.2914 61.2681 48.0783 61.1796 47.9212 61.0223C47.764 60.865 47.6758 60.6516 47.6758 60.4292C47.6759 60.2069 47.7643 59.9938 47.9214 59.8366C48.0785 59.6794 48.2915 59.591 48.5137 59.5908H110.337C110.559 59.5908 110.772 59.6792 110.93 59.8364C111.087 59.9936 111.175 60.2069 111.175 60.4292C111.175 60.5394 111.153 60.6485 111.111 60.7503C111.069 60.852 111.008 60.9445 110.93 61.0225C110.852 61.1004 110.76 61.1622 110.658 61.2043C110.556 61.2465 110.447 61.2682 110.337 61.2682Z" fill="#93BEE3"/>
<path d="M37.7841 81.5977H29.3044C28.4143 81.5978 27.5606 81.9517 26.9312 82.5816C26.3018 83.2114 25.9482 84.0656 25.9482 84.9563V93.4402C25.9482 94.3309 26.3018 95.1851 26.9312 95.8149C27.5606 96.4448 28.4143 96.7987 29.3044 96.7988H37.7841C38.6743 96.7987 39.5279 96.4448 40.1573 95.8149C40.7867 95.1851 41.1403 94.3309 41.1403 93.4402V84.9563C41.1403 84.0656 40.7867 83.2114 40.1573 82.5816C39.5279 81.9517 38.6743 81.5978 37.7841 81.5977ZM39.2855 91.5844C39.2855 92.4751 38.9319 93.3294 38.3024 93.9593C37.6729 94.5892 36.819 94.943 35.9288 94.943H31.1592C30.269 94.9429 29.4154 94.589 28.786 93.9591C28.1566 93.3293 27.803 92.475 27.803 91.5844V86.8143C27.803 85.9237 28.1566 85.0696 28.786 84.4398C29.4154 83.81 30.2691 83.4562 31.1592 83.4562H35.9288C36.3696 83.4562 36.806 83.543 37.2133 83.7117C37.6206 83.8804 37.9906 84.1278 38.3023 84.4396C38.614 84.7514 38.8613 85.1217 39.03 85.5291C39.1987 85.9366 39.2855 86.3733 39.2855 86.8143V91.5844Z" fill="#93BEE3"/>
<path d="M123.506 84.8659H61.3223C61.2122 84.8659 61.1032 84.8442 61.0015 84.802C60.8998 84.7598 60.8074 84.698 60.7296 84.6201C60.6518 84.5422 60.5901 84.4497 60.548 84.3479C60.5059 84.2461 60.4843 84.137 60.4844 84.0269C60.4844 83.8045 60.5727 83.5913 60.7298 83.434C60.8869 83.2768 61.1001 83.1885 61.3223 83.1885H123.506C123.728 83.1885 123.942 83.2768 124.099 83.434C124.256 83.5913 124.344 83.8045 124.344 84.0269C124.344 84.137 124.323 84.2461 124.28 84.3479C124.238 84.4497 124.177 84.5422 124.099 84.6201C124.021 84.698 123.929 84.7598 123.827 84.802C123.725 84.8442 123.616 84.8659 123.506 84.8659Z" fill="#93BEE3"/>
<path d="M123.506 90.0363H48.5137C48.4036 90.0363 48.2945 90.0146 48.1928 89.9724C48.0911 89.9302 47.9986 89.8684 47.9208 89.7904C47.843 89.7124 47.7813 89.6199 47.7392 89.518C47.6972 89.4162 47.6756 89.307 47.6758 89.1968C47.6758 88.9745 47.7641 88.7612 47.9212 88.604C48.0784 88.4467 48.2915 88.3584 48.5137 88.3584H123.506C123.616 88.3583 123.725 88.38 123.827 88.4221C123.928 88.4642 124.021 88.5259 124.099 88.6038C124.176 88.6817 124.238 88.7741 124.28 88.8759C124.322 88.9776 124.344 89.0867 124.344 89.1968C124.344 89.307 124.323 89.4162 124.281 89.5181C124.239 89.62 124.177 89.7126 124.099 89.7905C124.021 89.8685 123.929 89.9304 123.827 89.9726C123.725 90.0147 123.616 90.0364 123.506 90.0363Z" fill="#93BEE3"/>
<path d="M110.337 95.2081H48.5137C48.2915 95.2081 48.0784 95.1198 47.9212 94.9625C47.7641 94.8053 47.6758 94.592 47.6758 94.3697C47.6758 94.1473 47.7641 93.9341 47.9212 93.7768C48.0784 93.6196 48.2915 93.5313 48.5137 93.5313H110.337C110.447 93.5312 110.556 93.5528 110.658 93.5949C110.759 93.637 110.852 93.6988 110.93 93.7767C111.008 93.8545 111.069 93.947 111.111 94.0487C111.153 94.1505 111.175 94.2595 111.175 94.3697C111.175 94.4798 111.153 94.5889 111.111 94.6906C111.069 94.7924 111.008 94.8848 110.93 94.9627C110.852 95.0406 110.759 95.1023 110.658 95.1444C110.556 95.1865 110.447 95.2082 110.337 95.2081Z" fill="#93BEE3"/>
<path d="M37.7841 115.534H29.3044C28.4143 115.534 27.5607 115.888 26.9313 116.518C26.3018 117.148 25.9482 118.002 25.9482 118.892V127.377C25.9482 128.267 26.3018 129.121 26.9313 129.751C27.5607 130.381 28.4143 130.735 29.3044 130.735H37.7841C38.6742 130.735 39.5279 130.381 40.1573 129.751C40.7867 129.121 41.1403 128.267 41.1403 127.377V118.892C41.1403 118.002 40.7867 117.148 40.1573 116.518C39.5279 115.888 38.6742 115.534 37.7841 115.534ZM39.2855 125.521C39.2855 125.962 39.1987 126.399 39.03 126.806C38.8613 127.214 38.614 127.584 38.3023 127.896C37.9906 128.207 37.6206 128.455 37.2133 128.624C36.806 128.792 36.3696 128.879 35.9288 128.879H31.1592C30.2691 128.879 29.4154 128.525 28.786 127.895C28.1566 127.266 27.803 126.411 27.803 125.521V120.748C27.803 119.857 28.1566 119.003 28.786 118.374C29.4154 117.744 30.2691 117.39 31.1592 117.39H35.9288C36.3696 117.39 36.806 117.477 37.2133 117.645C37.6206 117.814 37.9906 118.062 38.3023 118.373C38.614 118.685 38.8613 119.055 39.03 119.463C39.1987 119.87 39.2855 120.307 39.2855 120.748V125.521Z" fill="#93BEE3"/>
<path d="M123.506 118.802H61.3223C61.2123 118.802 61.1033 118.78 61.0016 118.738C60.8999 118.696 60.8075 118.634 60.7296 118.556C60.6518 118.479 60.5901 118.386 60.548 118.284C60.5059 118.183 60.4843 118.074 60.4844 117.963C60.4843 117.853 60.5059 117.744 60.548 117.642C60.5901 117.541 60.6518 117.448 60.7296 117.37C60.8075 117.293 60.8999 117.231 61.0016 117.189C61.1033 117.147 61.2123 117.125 61.3223 117.125H123.506C123.616 117.125 123.725 117.147 123.827 117.189C123.929 117.231 124.021 117.293 124.099 117.37C124.177 117.448 124.238 117.541 124.28 117.642C124.323 117.744 124.344 117.853 124.344 117.963C124.344 118.074 124.323 118.183 124.28 118.284C124.238 118.386 124.177 118.479 124.099 118.556C124.021 118.634 123.929 118.696 123.827 118.738C123.725 118.78 123.616 118.802 123.506 118.802Z" fill="#93BEE3"/>
<path d="M123.506 123.973H48.5137C48.2914 123.973 48.0783 123.885 47.9212 123.727C47.764 123.57 47.6758 123.357 47.6758 123.134C47.6759 122.912 47.7643 122.699 47.9214 122.542C48.0785 122.384 48.2915 122.296 48.5137 122.296H123.506C123.728 122.296 123.941 122.384 124.098 122.541C124.256 122.699 124.344 122.912 124.344 123.134C124.344 123.244 124.322 123.354 124.28 123.455C124.238 123.557 124.176 123.65 124.099 123.728C124.021 123.805 123.928 123.867 123.827 123.909C123.725 123.952 123.616 123.973 123.506 123.973Z" fill="#93BEE3"/>
<path d="M110.337 129.144H48.5137C48.2914 129.144 48.0783 129.056 47.9212 128.898C47.764 128.741 47.6758 128.528 47.6758 128.305C47.6758 128.083 47.7641 127.87 47.9212 127.712C48.0784 127.555 48.2915 127.467 48.5137 127.467H110.337C110.447 127.467 110.556 127.488 110.658 127.53C110.759 127.573 110.852 127.634 110.93 127.712C111.008 127.79 111.069 127.883 111.111 127.984C111.153 128.086 111.175 128.195 111.175 128.305C111.175 128.415 111.153 128.524 111.111 128.626C111.069 128.728 111.008 128.821 110.93 128.898C110.852 128.976 110.76 129.038 110.658 129.08C110.556 129.122 110.447 129.144 110.337 129.144Z" fill="#93BEE3"/>
<path d="M37.7841 149.471H29.3044C28.8637 149.471 28.4272 149.558 28.02 149.726C27.6127 149.895 27.2427 150.143 26.931 150.454C26.6194 150.766 26.3722 151.137 26.2036 151.544C26.0349 151.952 25.9482 152.388 25.9482 152.829V161.313C25.9482 162.204 26.3018 163.058 26.9312 163.688C27.5606 164.318 28.4143 164.672 29.3044 164.672H37.7841C38.6743 164.672 39.5279 164.318 40.1573 163.688C40.7867 163.058 41.1403 162.204 41.1403 161.313V152.829C41.1404 152.388 41.0536 151.952 40.885 151.544C40.7164 151.137 40.4692 150.766 40.1575 150.454C39.8458 150.143 39.4758 149.895 39.0686 149.726C38.6614 149.558 38.2249 149.471 37.7841 149.471ZM39.2855 159.457C39.2855 159.898 39.1987 160.335 39.03 160.743C38.8613 161.15 38.614 161.52 38.3023 161.832C37.9906 162.144 37.6206 162.391 37.2133 162.56C36.806 162.729 36.3696 162.816 35.9288 162.816H31.1592C30.2691 162.816 29.4154 162.462 28.786 161.832C28.1566 161.202 27.803 160.348 27.803 159.457V154.685C27.803 153.795 28.1566 152.94 28.786 152.31C29.4154 151.681 30.269 151.327 31.1592 151.327H35.9288C36.819 151.327 37.6729 151.68 38.3024 152.31C38.9319 152.94 39.2855 153.794 39.2855 154.685V159.457Z" fill="#93BEE3"/>
<path d="M123.506 152.739H61.3223C61.2123 152.739 61.1033 152.718 61.0016 152.676C60.8999 152.634 60.8075 152.572 60.7296 152.494C60.6518 152.416 60.5901 152.324 60.548 152.222C60.5059 152.12 60.4843 152.011 60.4844 151.901C60.4843 151.791 60.5059 151.682 60.548 151.58C60.5901 151.478 60.6518 151.386 60.7296 151.308C60.8075 151.23 60.8999 151.168 61.0016 151.126C61.1033 151.084 61.2123 151.062 61.3223 151.063H123.506C123.616 151.062 123.725 151.084 123.827 151.126C123.929 151.168 124.021 151.23 124.099 151.308C124.177 151.386 124.238 151.478 124.28 151.58C124.323 151.682 124.344 151.791 124.344 151.901C124.344 152.011 124.323 152.12 124.28 152.222C124.238 152.324 124.177 152.416 124.099 152.494C124.021 152.572 123.929 152.634 123.827 152.676C123.725 152.718 123.616 152.739 123.506 152.739Z" fill="#93BEE3"/>
<path d="M123.506 157.91H48.5137C48.2915 157.91 48.0784 157.822 47.9212 157.665C47.7641 157.507 47.6758 157.294 47.6758 157.072C47.6758 156.849 47.7641 156.636 47.9212 156.479C48.0784 156.322 48.2915 156.233 48.5137 156.233H123.506C123.616 156.233 123.725 156.255 123.827 156.297C123.928 156.339 124.021 156.401 124.099 156.479C124.176 156.557 124.238 156.649 124.28 156.751C124.322 156.853 124.344 156.962 124.344 157.072C124.344 157.182 124.322 157.291 124.28 157.393C124.238 157.495 124.176 157.587 124.099 157.665C124.021 157.743 123.928 157.804 123.827 157.847C123.725 157.889 123.616 157.91 123.506 157.91Z" fill="#93BEE3"/>
<path d="M110.337 163.082H48.5137C48.2915 163.082 48.0785 162.993 47.9214 162.836C47.7643 162.679 47.6759 162.466 47.6758 162.243C47.6758 162.021 47.764 161.808 47.9212 161.65C48.0783 161.493 48.2914 161.404 48.5137 161.404H110.337C110.447 161.404 110.556 161.426 110.658 161.468C110.76 161.51 110.852 161.572 110.93 161.65C111.008 161.728 111.069 161.82 111.111 161.922C111.153 162.024 111.175 162.133 111.175 162.243C111.175 162.466 111.087 162.679 110.93 162.836C110.772 162.993 110.559 163.082 110.337 163.082Z" fill="#93BEE3"/>
<path d="M37.7841 183.408H29.3044C28.4143 183.408 27.5607 183.762 26.9313 184.392C26.3018 185.022 25.9482 185.876 25.9482 186.766V195.251C25.9482 196.141 26.3018 196.996 26.9313 197.625C27.5607 198.255 28.4143 198.609 29.3044 198.609H37.7841C38.6742 198.609 39.5279 198.255 40.1573 197.625C40.7867 196.996 41.1403 196.141 41.1403 195.251V186.766C41.1403 185.876 40.7867 185.022 40.1573 184.392C39.5279 183.762 38.6742 183.408 37.7841 183.408ZM39.2855 193.394C39.2855 194.285 38.9319 195.139 38.3024 195.769C37.6729 196.399 36.819 196.753 35.9288 196.753H31.1592C30.269 196.753 29.4154 196.399 28.786 195.769C28.1566 195.139 27.803 194.285 27.803 193.394V188.622C27.803 187.731 28.1566 186.877 28.786 186.248C29.4154 185.618 30.2691 185.264 31.1592 185.264H35.9288C36.3696 185.264 36.806 185.351 37.2133 185.519C37.6206 185.688 37.9906 185.936 38.3023 186.247C38.614 186.559 38.8613 186.929 39.03 187.337C39.1987 187.744 39.2855 188.181 39.2855 188.622V193.394Z" fill="#93BEE3"/>
<path d="M123.506 186.676H61.3223C61.2122 186.676 61.1032 186.655 61.0015 186.613C60.8998 186.57 60.8074 186.509 60.7296 186.431C60.6518 186.353 60.5901 186.26 60.548 186.158C60.5059 186.057 60.4843 185.948 60.4844 185.837C60.4844 185.615 60.5727 185.402 60.7298 185.245C60.8869 185.087 61.1001 184.999 61.3223 184.999H123.506C123.728 184.999 123.942 185.087 124.099 185.245C124.256 185.402 124.344 185.615 124.344 185.837C124.344 185.948 124.323 186.057 124.28 186.158C124.238 186.26 124.177 186.353 124.099 186.431C124.021 186.509 123.929 186.57 123.827 186.613C123.725 186.655 123.616 186.676 123.506 186.676Z" fill="#93BEE3"/>
<path d="M123.506 191.847H48.5137C48.2915 191.847 48.0784 191.758 47.9212 191.601C47.7641 191.444 47.6758 191.231 47.6758 191.008C47.6758 190.786 47.7641 190.573 47.9212 190.416C48.0784 190.258 48.2915 190.17 48.5137 190.17H123.506C123.616 190.17 123.725 190.192 123.827 190.234C123.928 190.276 124.021 190.337 124.099 190.415C124.176 190.493 124.238 190.586 124.28 190.687C124.322 190.789 124.344 190.898 124.344 191.008C124.344 191.118 124.322 191.228 124.28 191.329C124.238 191.431 124.176 191.523 124.099 191.601C124.021 191.679 123.928 191.741 123.827 191.783C123.725 191.825 123.616 191.847 123.506 191.847Z" fill="#93BEE3"/>
<path d="M110.337 197.019H48.5137C48.2915 197.019 48.0784 196.93 47.9212 196.773C47.7641 196.616 47.6758 196.403 47.6758 196.18C47.6758 195.958 47.7641 195.745 47.9212 195.587C48.0784 195.43 48.2915 195.342 48.5137 195.342H110.337C110.447 195.342 110.556 195.363 110.658 195.405C110.759 195.448 110.852 195.509 110.93 195.587C111.008 195.665 111.069 195.758 111.111 195.859C111.153 195.961 111.175 196.07 111.175 196.18C111.175 196.29 111.153 196.399 111.111 196.501C111.069 196.603 111.008 196.695 110.93 196.773C110.852 196.851 110.759 196.913 110.658 196.955C110.556 196.997 110.447 197.019 110.337 197.019Z" fill="#93BEE3"/>
<path d="M40.6639 46.8729C37.3673 49.3557 34.8822 52.7624 33.5239 56.6607C32.2673 55.467 30.9918 54.3693 29.0556 54.6336C28.154 54.7566 28.1867 56.2611 29.0556 56.4163C30.8279 56.7327 32.1521 58.8351 33.0288 60.2798C33.1695 60.512 33.3677 60.704 33.6042 60.8373C33.8407 60.9706 34.1076 61.0406 34.379 61.0406C34.6505 61.0406 34.9173 60.9706 35.1539 60.8373C35.3904 60.704 35.5885 60.512 35.7293 60.2798C37.8532 56.4213 39.3707 52.2818 42.1188 48.7597C42.8814 47.7833 41.8685 46.0012 40.6639 46.8729Z" fill="#EE4340"/>
<path d="M40.6639 80.6756C37.3673 83.1584 34.8822 86.5651 33.5239 90.4634C32.2673 89.2698 30.9918 88.172 29.0556 88.4363C28.154 88.5594 28.1867 90.0639 29.0556 90.219C30.8279 90.5354 32.1521 92.6378 33.0288 94.0825C33.1695 94.3147 33.3677 94.5068 33.6042 94.64C33.8407 94.7733 34.1076 94.8433 34.379 94.8433C34.6505 94.8433 34.9173 94.7733 35.1539 94.64C35.3904 94.5068 35.5885 94.3147 35.7293 94.0825C37.8532 90.224 39.3707 86.0846 42.1188 82.5625C42.8814 81.5861 41.8685 79.8039 40.6639 80.6756Z" fill="#EE4340"/>
<path d="M40.6639 114.477C37.3673 116.96 34.8822 120.367 33.5239 124.265C32.2673 123.072 30.9918 121.974 29.0556 122.238C28.154 122.361 28.1867 123.866 29.0556 124.021C30.8279 124.337 32.1521 126.44 33.0288 127.884C33.1695 128.117 33.3677 128.309 33.6042 128.442C33.8407 128.575 34.1076 128.645 34.379 128.645C34.6505 128.645 34.9173 128.575 35.1539 128.442C35.3904 128.309 35.5885 128.117 35.7293 127.884C37.8532 124.026 39.3707 119.886 42.1188 116.364C42.8814 115.388 41.8685 113.606 40.6639 114.477Z" fill="#EE4340"/>
<path d="M40.6639 182.914C37.3673 185.397 34.8822 188.803 33.5239 192.702C32.2673 191.508 30.9918 190.41 29.0556 190.675C28.154 190.798 28.1867 192.302 29.0556 192.457C30.8279 192.774 32.1521 194.876 33.0288 196.321C33.1695 196.553 33.3677 196.745 33.6042 196.878C33.8407 197.012 34.1076 197.082 34.379 197.082C34.6505 197.082 34.9173 197.012 35.1539 196.878C35.3904 196.745 35.5885 196.553 35.7293 196.321C37.8532 192.462 39.3707 188.323 42.1188 184.801C42.8814 183.824 41.8685 182.042 40.6639 182.914Z" fill="#EE4340"/>
</g>
<defs>
<clipPath id="clip0">
<rect width="150" height="228" fill="white"/>
</clipPath>
</defs>
</svg>
