<svg width="42" height="43" viewBox="0 0 42 43" fill="none" xmlns="http://www.w3.org/2000/svg">
<path d="M0.5 3.21289C0.5 1.83218 1.61929 0.712891 3 0.712891H39C40.3807 0.712891 41.5 1.83218 41.5 3.21289V39.1261C41.5 40.5068 40.3807 41.6261 39 41.6261H3C1.61929 41.6261 0.5 40.5068 0.5 39.1261V3.21289Z" fill="#FEFAF3" stroke="#8F3700"/>
<path fill-rule="evenodd" clip-rule="evenodd" d="M24.666 19.1733H22.9993V14.1836H24.666V15.8468H27.9992V17.5101H24.666V19.1733ZM13 17.5101V15.8469H21.3331V17.5101H13ZM13 27.4893V25.8261H17.9999V27.4893H13ZM21.3335 29.1526V27.4894H28V25.8262H21.3335V24.1629H19.6669V29.1526H21.3335ZM16.3333 20.8366V19.1733H17.9999V24.163H16.3333V22.4998H13V20.8366H16.3333ZM28 22.4998V20.8366H19.6669V22.4998H28Z" fill="#8F3700"/>
</svg>
