<svg width="20" height="21" viewBox="0 0 20 21" fill="none" xmlns="http://www.w3.org/2000/svg">
<g opacity="0.2">
<path fill-rule="evenodd" clip-rule="evenodd" d="M4.16634 16.7632H15.833C16.054 16.7632 16.266 16.8511 16.4223 17.0077C16.5785 17.1642 16.6663 17.3766 16.6663 17.598C16.6663 17.8194 16.5785 18.0317 16.4223 18.1883C16.266 18.3449 16.054 18.4328 15.833 18.4328H4.16634C3.94533 18.4328 3.73337 18.3449 3.57709 18.1883C3.42081 18.0317 3.33301 17.8194 3.33301 17.598C3.33301 17.3766 3.42081 17.1642 3.57709 17.0077C3.73337 16.8511 3.94533 16.7632 4.16634 16.7632ZM3.33301 12.589L11.6663 4.2408L14.1663 6.74527L5.83301 15.0935H3.33301V12.589ZM12.4997 3.40598L14.1663 1.73633L16.6663 4.2408L14.9988 5.91128L12.4997 3.40598Z" fill="#0A1128"/>
</g>
</svg>
