<svg width="17" height="15" viewBox="0 0 17 15" fill="none" xmlns="http://www.w3.org/2000/svg">
<path d="M15.0364 7.52073C14.267 7.24553 13.4362 7.196 12.64 7.37787C11.8439 7.55974 11.1151 7.96557 10.5379 8.54839C9.96072 9.13121 9.55882 9.86717 9.37871 10.6711C9.1986 11.475 9.24765 12.314 9.52018 13.0909H1.35206C1.16105 13.0909 0.977855 13.0143 0.842786 12.8779C0.707717 12.7415 0.631836 12.5565 0.631836 12.3636V0.727273C0.631836 0.534388 0.707717 0.349403 0.842786 0.213013C0.977855 0.0766231 1.16105 0 1.35206 0H14.3162C14.5072 0 14.6904 0.0766231 14.8255 0.213013C14.9605 0.349403 15.0364 0.534388 15.0364 0.727273V7.52073ZM7.87734 6.31491L3.25923 2.35491L2.32653 3.46327L7.8867 8.23055L13.3468 3.45964L12.4047 2.35927L7.87806 6.31491H7.87734ZM14.3162 10.9091H16.4769V12.3636H14.3162V14.5455H12.8757V12.3636H10.715V10.9091H12.8757V8.72727H14.3162V10.9091Z" fill="white"/>
</svg>
