<svg width="216" height="131" viewBox="0 0 216 131" fill="none" xmlns="http://www.w3.org/2000/svg">
<g opacity="0.65">
<path d="M59.497 109.935C57.0958 109.935 54.7929 108.983 53.0949 107.289C51.397 105.594 50.4431 103.296 50.4431 100.9C50.4431 98.5034 51.397 96.2053 53.0949 94.5108C54.7929 92.8164 57.0958 91.8645 59.497 91.8645H9.05389C6.65265 91.8645 4.34976 90.9126 2.65182 89.2182C0.953889 87.5237 0 85.2256 0 82.8293C0 80.433 0.953889 78.1349 2.65182 76.4405C4.34976 74.746 6.65265 73.7941 9.05389 73.7941H60.7904C63.1917 73.7941 65.4946 72.8422 67.1925 71.1478C68.8904 69.4534 69.8443 67.1552 69.8443 64.7589C69.8443 62.3627 68.8904 60.0645 67.1925 58.3701C65.4946 56.6757 63.1917 55.7238 60.7904 55.7238H28.4551C26.0538 55.7238 23.751 54.7718 22.053 53.0774C20.3551 51.383 19.4012 49.0848 19.4012 46.6886C19.4012 44.2923 20.3551 41.9942 22.053 40.2997C23.751 38.6053 26.0538 37.6534 28.4551 37.6534H80.1916C77.7904 37.6534 75.4875 36.7015 73.7895 35.007C72.0916 33.3126 71.1377 31.0145 71.1377 28.6182C71.1377 26.2219 72.0916 23.9238 73.7895 22.2294C75.4875 20.5349 77.7904 19.583 80.1916 19.583H206.946C209.347 19.583 211.65 20.5349 213.348 22.2294C215.046 23.9238 216 26.2219 216 28.6182C216 31.0145 215.046 33.3126 213.348 35.007C211.65 36.7015 209.347 37.6534 206.946 37.6534H155.21C157.611 37.6534 159.914 38.6053 161.612 40.2997C163.31 41.9942 164.263 44.2923 164.263 46.6886C164.263 49.0848 163.31 51.383 161.612 53.0774C159.914 54.7718 157.611 55.7238 155.21 55.7238H183.665C186.066 55.7238 188.369 56.6757 190.067 58.3701C191.765 60.0645 192.719 62.3627 192.719 64.7589C192.719 67.1552 191.765 69.4534 190.067 71.1478C188.369 72.8422 186.066 73.7941 183.665 73.7941H170.505C164.2 73.7941 159.09 77.8393 159.09 82.8293C159.09 87.8193 166.85 91.8645 166.85 91.8645C169.252 91.8645 171.554 92.8164 173.252 94.5108C174.95 96.2053 175.904 98.5034 175.904 100.9C175.904 103.296 174.95 105.594 173.252 107.289C171.554 108.983 169.252 109.935 166.85 109.935H59.497ZM197.892 64.7589C197.892 62.972 198.423 61.2251 199.418 59.7393C200.413 58.2534 201.827 57.0954 203.481 56.4115C205.136 55.7277 206.956 55.5487 208.712 55.8974C210.469 56.246 212.082 57.1065 213.348 58.3701C214.614 59.6337 215.477 61.2436 215.826 62.9963C216.175 64.7489 215.996 66.5656 215.311 68.2166C214.626 69.8675 213.465 71.2786 211.976 72.2714C210.487 73.2642 208.737 73.7941 206.946 73.7941C204.545 73.7941 202.242 72.8422 200.544 71.1478C198.846 69.4534 197.892 67.1552 197.892 64.7589Z" fill="#D5EDF2"/>
<path d="M146.578 120.399L70.8352 129.68C69.4733 129.847 68.1008 129.467 67.0195 128.624C65.9382 127.781 65.2369 126.544 65.0696 125.185L53.4085 30.4089C53.3249 29.7294 53.5152 29.0445 53.9376 28.505C54.36 27.9655 54.9799 27.6155 55.6608 27.5321L55.6878 27.5288L61.9709 26.8252L67.0519 26.2547L70.7002 25.8479L137.971 18.2931L150.002 105.861L151.082 114.646C151.25 116.005 150.869 117.374 150.024 118.453C149.179 119.533 147.94 120.232 146.578 120.399Z" fill="white" stroke="#015577" stroke-width="2.5" stroke-miterlimit="10" stroke-linecap="round"/>
<path d="M134.694 23.8032L145.585 103.162L146.564 111.124C146.643 111.73 146.601 112.346 146.442 112.935C146.282 113.525 146.007 114.078 145.633 114.561C145.259 115.045 144.793 115.45 144.262 115.754C143.73 116.058 143.144 116.254 142.537 116.332L74.7077 124.643C74.0997 124.714 73.4835 124.665 72.8944 124.499C72.3053 124.332 71.7549 124.052 71.2747 123.673C70.7945 123.294 70.394 122.824 70.0959 122.29C69.7979 121.756 69.6082 121.169 69.5379 120.562L58.9965 34.8874C58.9129 34.2079 59.1032 33.523 59.5256 32.9835C59.948 32.444 60.5679 32.094 61.2488 32.0106L69.6396 30.9825" fill="#DFF2F5"/>
<path d="M158.666 107.03H82.3547C80.3935 107.03 78.7979 105.438 78.7979 103.481V5.3845C78.7979 3.42728 80.3935 1.83496 82.3547 1.83496H141.278C142.228 1.83496 143.121 2.2039 143.793 2.87383L161.18 20.2148C161.853 20.8853 162.223 21.777 162.223 22.7255V103.481C162.223 105.438 160.627 107.03 158.666 107.03Z" fill="white"/>
<path d="M82.3541 3.44853C81.2843 3.44853 80.414 4.31707 80.414 5.38464V103.481C80.414 104.549 81.2843 105.417 82.3541 105.417H158.665C159.735 105.417 160.606 104.549 160.606 103.481V22.7256C160.606 22.2083 160.404 21.7219 160.037 21.3562L142.649 4.01519C142.283 3.64978 141.796 3.44853 141.278 3.44853H82.3541ZM82.3541 0.22168H141.278C142.649 0.22168 143.965 0.765187 144.935 1.73275L162.323 19.0737C163.294 20.0421 163.839 21.3558 163.839 22.7256V103.481C163.839 106.332 161.523 108.644 158.665 108.644H82.3541C79.4967 108.644 77.1804 106.332 77.1804 103.481V5.38464C77.1804 2.53322 79.4967 0.22168 82.3541 0.22168Z" fill="#015577"/>
<g opacity="0.5">
<rect x="90.353" y="35.292" width="34.3862" height="2.83019" transform="rotate(1.31758 90.353 35.292)" fill="#558FA5"/>
<rect x="90.1448" y="44.3457" width="29.1762" height="2.83019" transform="rotate(1.31758 90.1448 44.3457)" fill="#558FA5"/>
<rect x="122.959" y="45.1006" width="29.1762" height="2.83019" transform="rotate(1.31758 122.959 45.1006)" fill="#558FA5"/>
<rect x="89.9365" y="53.4004" width="29.1762" height="2.83019" transform="rotate(1.31758 89.9365 53.4004)" fill="#558FA5"/>
<rect x="89.7283" y="62.4541" width="29.1762" height="2.83019" transform="rotate(1.31758 89.7283 62.4541)" fill="#558FA5"/>
<rect x="122.543" y="63.209" width="29.1762" height="2.83019" transform="rotate(1.31758 122.543 63.209)" fill="#558FA5"/>
<rect x="122.751" y="54.1553" width="29.1762" height="2.83019" transform="rotate(1.31758 122.751 54.1553)" fill="#558FA5"/>
</g>
<path d="M141.851 3.32324V18.2958C141.851 19.3228 142.26 20.3077 142.988 21.0339C143.715 21.7601 144.702 22.1681 145.731 22.1681H155.993" stroke="#3B7C99" stroke-width="2.5" stroke-miterlimit="10" stroke-linecap="round" stroke-linejoin="round"/>
</g>
</svg>
