<svg width="22" height="16" viewBox="0 0 22 16" fill="none" xmlns="http://www.w3.org/2000/svg">
<path fill-rule="evenodd" clip-rule="evenodd" d="M0 7.97382C1.73 3.59285 6 0.489258 11 0.489258C16 0.489258 20.27 3.59285 22 7.97382C20.27 12.3548 16 15.4584 11 15.4584C6 15.4584 1.73 12.3548 0 7.97382ZM19.8199 7.97382C18.17 4.61081 14.79 2.48523 11 2.48523C7.21002 2.48523 3.83004 4.61081 2.18005 7.97382C3.83004 11.3368 7.21002 13.4624 11 13.4624C14.79 13.4624 18.17 11.3368 19.8199 7.97382ZM11 5.47894C12.38 5.47894 13.5 6.59665 13.5 7.97382C13.5 9.35099 12.38 10.4687 11 10.4687C9.62 10.4687 8.5 9.35099 8.5 7.97382C8.5 6.59665 9.62 5.47894 11 5.47894ZM6.5 7.97382C6.5 5.49896 8.52 3.48315 11 3.48315C13.48 3.48315 15.5 5.49896 15.5 7.97382C15.5 10.4487 13.48 12.4645 11 12.4645C8.52 12.4645 6.5 10.4487 6.5 7.97382Z" fill="#A4A4A4"/>
</svg>
