<svg width="9" height="19" viewBox="0 0 9 19" fill="none" xmlns="http://www.w3.org/2000/svg">
<path d="M8.54148 0.000956977H6.41567C4.0209 0.000956977 2.47435 1.74257 2.47435 4.43862V6.48483H0.333738C0.250279 6.47895 0.16834 6.51438 0.105811 6.58338C0.0432825 6.65237 0.00524353 6.74934 0 6.8531L0 9.81691C0.00539943 9.92054 0.0435058 10.0173 0.106017 10.0861C0.168529 10.155 0.25038 10.1903 0.333738 10.1844H2.47435V17.6657C2.4799 17.7697 2.51831 17.8667 2.58119 17.9355C2.64407 18.0044 2.72631 18.0395 2.80994 18.0332H5.60261C5.68616 18.0391 5.76821 18.0038 5.83102 17.9351C5.89383 17.8663 5.93233 17.7695 5.9382 17.6657V10.1852H8.44092C8.52445 10.1913 8.60653 10.1561 8.66927 10.0872C8.73202 10.0184 8.77034 9.92151 8.7759 9.81768V6.8531C8.77536 6.80357 8.76633 6.75474 8.74942 6.70989C8.7325 6.66504 8.70809 6.62519 8.67781 6.59301C8.61203 6.52236 8.52783 6.48391 8.44092 6.48483H5.9382V4.75012C5.9382 3.91691 6.11895 3.49339 7.11029 3.49339H8.54456C8.62813 3.4997 8.7103 3.46457 8.77308 3.39569C8.83586 3.32681 8.87414 3.22979 8.87953 3.12589V0.372297C8.87726 0.320169 8.86668 0.269124 8.84839 0.222133C8.83011 0.175142 8.80449 0.133145 8.77303 0.098587C8.74157 0.0640286 8.70489 0.0375994 8.66514 0.0208382C8.62539 0.00407708 8.58335 -0.00268117 8.54148 0.000956977Z" fill="#215063"/>
</svg>
