<svg width="26" height="24" viewBox="0 0 26 24" fill="none" xmlns="http://www.w3.org/2000/svg">
<path d="M13.7648 5H22.6255C22.8992 5 23.1617 5.10536 23.3553 5.29289C23.5488 5.48043 23.6575 5.73478 23.6575 6V20C23.6575 20.2652 23.5488 20.5196 23.3553 20.7071C23.1617 20.8946 22.8992 21 22.6255 21H4.04958C3.77587 21 3.51338 20.8946 3.31984 20.7071C3.12631 20.5196 3.01758 20.2652 3.01758 20V4C3.01758 3.73478 3.12631 3.48043 3.31984 3.29289C3.51338 3.10536 3.77587 3 4.04958 3H11.7008L13.7648 5ZM5.08157 5V19H21.5935V7H12.9103L10.8463 5H5.08157ZM14.3696 13V17H12.3056V13H9.20956L13.3376 9L17.4655 13H14.3696Z" fill="black"/>
</svg>
