<svg width="23" height="13" viewBox="0 0 23 13" fill="none" xmlns="http://www.w3.org/2000/svg">
<path opacity="0.7" d="M15.3272 0.787598H12.4843C12.2198 0.787495 11.9649 0.880939 11.7701 1.04943L8.52263 3.85046C8.51866 3.85388 8.51505 3.85769 8.51185 3.86184C8.50881 3.86577 8.50539 3.86941 8.50167 3.87272C8.25129 4.09576 8.10369 4.40252 8.09083 4.72711C8.07786 5.05411 8.20269 5.37268 8.43808 5.61333C8.68088 5.84257 9.00575 5.97824 9.34912 5.99376C9.68823 6.0091 10.0213 5.90618 10.2847 5.70494C10.2904 5.7006 10.2999 5.6983 10.3053 5.69357C10.3066 5.69241 10.3082 5.69007 10.3096 5.68892L12.9511 3.40927C13.0547 3.32005 13.1916 3.27324 13.3319 3.27914C13.4721 3.28505 13.6041 3.34318 13.6988 3.44075C13.7935 3.53833 13.8432 3.66734 13.8369 3.79943C13.8306 3.93151 13.7689 4.05584 13.6654 4.14506C13.2203 4.52902 13.2408 5.22511 13.7077 5.5822L17.6201 8.57417C17.7201 8.65275 17.8816 8.58597 17.8816 8.45877V3.21524C17.8816 2.93933 17.7676 2.67567 17.5666 2.48667L16.0708 1.08037C15.9727 0.987547 15.8561 0.913901 15.7277 0.863658C15.5993 0.813415 15.4616 0.787567 15.3225 0.787598H15.3272ZM19.9442 2.78948C19.3919 2.78948 18.9442 3.23719 18.9442 3.78948V9.76955C18.9442 10.0333 19.0554 10.2862 19.2534 10.4726C19.4513 10.6591 19.7198 10.7639 19.9998 10.7639H21.1179C21.6702 10.7639 22.1179 10.3161 22.1179 9.76386V3.78948C22.1179 3.2372 21.6702 2.78948 21.1179 2.78948H19.9442ZM20.5275 9.76845C20.4229 9.76845 20.3207 9.73922 20.2337 9.68447C20.1467 9.62973 20.0789 9.55191 20.0389 9.46086C19.9988 9.36982 19.9883 9.26963 20.0088 9.17298C20.0292 9.07633 20.0795 8.98755 20.1535 8.91786C20.2275 8.84818 20.3217 8.80072 20.4243 8.7815C20.5269 8.76227 20.6333 8.77214 20.7299 8.80985C20.8266 8.84757 20.9092 8.91143 20.9673 8.99337C21.0255 9.07531 21.0565 9.17164 21.0565 9.27019C21.0559 9.40215 20.9999 9.52855 20.9009 9.62187C20.8018 9.71518 20.6676 9.76787 20.5275 9.76845ZM0.941406 9.76276C0.941406 10.315 1.38912 10.7628 1.94141 10.7628H3.05952C3.33947 10.7628 3.60795 10.658 3.8059 10.4715C4.00385 10.2851 4.11506 10.0322 4.11506 9.76845V3.78948C4.11506 3.23719 3.66735 2.78948 3.11506 2.78948H1.94141C1.38912 2.78948 0.941406 3.23719 0.941406 3.78948V9.76276ZM2.52941 8.77248C2.52941 8.77339 2.53015 8.77413 2.53106 8.77414C2.6351 8.77444 2.73675 8.80365 2.82327 8.85811C2.91026 8.91286 2.97805 8.99067 3.01809 9.08172C3.05812 9.17276 3.0686 9.27295 3.04819 9.3696C3.02778 9.46625 2.9774 9.55504 2.90343 9.62472C2.82945 9.6944 2.7352 9.74186 2.6326 9.76108C2.52999 9.78031 2.42364 9.77044 2.32699 9.73273C2.23034 9.69502 2.14773 9.63115 2.08961 9.54921C2.03149 9.46728 2.00046 9.37094 2.00046 9.2724C2.00015 9.13985 2.05567 9.01261 2.15483 8.91858C2.2536 8.82491 2.38764 8.77182 2.52774 8.77083C2.52866 8.77082 2.52941 8.77156 2.52941 8.77248ZM16.9551 9.35249C16.9551 9.35317 16.9543 9.35355 16.9538 9.35314L12.66 6.06688C12.2837 5.77889 11.757 5.79452 11.3985 6.10432L11.0218 6.42977C10.5562 6.83207 9.93994 7.04365 9.30869 7.01795C8.67744 6.99226 8.08289 6.73141 7.65581 6.29277C7.22874 5.85414 7.00413 5.27366 7.03141 4.67903C7.05868 4.08439 7.3356 3.52432 7.80124 3.12202L8.47046 2.54488C9.17239 1.93953 8.74429 0.787598 7.81738 0.787598H7.73556C7.59652 0.787567 7.45883 0.813415 7.33042 0.863658C7.20201 0.913901 7.08541 0.987547 6.9873 1.08037L5.49243 2.4867C5.29155 2.67569 5.17764 2.93925 5.17764 3.21505V9.32066C5.17764 9.56491 5.37565 9.76292 5.6199 9.76292C5.72506 9.76292 5.82677 9.80039 5.9068 9.8686L8.7782 12.3161C9.21385 12.6497 9.7723 12.8065 10.3307 12.7523C10.8892 12.698 11.4018 12.437 11.756 12.0266C11.76 12.0228 11.7662 12.0226 11.7705 12.0261L12.3553 12.5028C12.4807 12.5989 12.6249 12.6707 12.7797 12.7143C12.9346 12.7579 13.097 12.7723 13.2578 12.7567C13.4185 12.7411 13.5745 12.6958 13.7166 12.6234C13.8588 12.551 13.9845 12.453 14.0864 12.3349L14.9786 11.3019C15.061 11.2064 15.2037 11.1919 15.3038 11.2688C15.4116 11.3516 15.5358 11.4136 15.6692 11.4511C15.8026 11.4886 15.9425 11.5009 16.081 11.4872C16.2194 11.4736 16.3536 11.4342 16.4759 11.3715C16.5981 11.3088 16.706 11.224 16.7933 11.1218L17.1076 10.7572C17.1963 10.6558 17.2628 10.5387 17.3032 10.4129C17.3436 10.287 17.3571 10.1549 17.3429 10.0241C17.3287 9.89327 17.2872 9.76642 17.2206 9.65086C17.1543 9.53577 17.0645 9.43415 16.9564 9.35184C16.9559 9.35143 16.9551 9.35181 16.9551 9.35249Z" fill="white"/>
</svg>
