<svg width="19" height="21" viewBox="0 0 19 21" fill="none" xmlns="http://www.w3.org/2000/svg">
<g id="product (1) 1">
<path id="Vector" d="M5.51531 11.2916H12.8006C13.1362 11.2916 13.4077 11.03 13.4077 10.7069V3.65117C13.4077 3.32805 13.1362 3.06644 12.8006 3.06644H10.9793V2.48172C10.9793 1.51448 10.1622 0.727539 9.15794 0.727539C8.15369 0.727539 7.33663 1.51448 7.33663 2.48172V3.06644H5.51531C5.17982 3.06644 4.9082 3.32805 4.9082 3.65117V10.7069C4.9082 11.03 5.17982 11.2916 5.51531 11.2916ZM8.55084 2.48172C8.55084 2.15905 8.82356 1.89699 9.15794 1.89699C9.49233 1.89699 9.76505 2.15905 9.76505 2.48172V3.06644H8.55084V2.48172Z" fill="#C6C6C5"/>
<path id="Vector_2" d="M18.0034 10.4041C17.8943 10.2294 17.6962 10.1221 17.484 10.1221C16.4143 10.1221 15.433 10.6939 14.9364 11.6064L13.0741 15.0295C12.7576 15.6097 12.1397 15.9693 11.4604 15.9693H7.33745C7.00196 15.9693 6.73034 15.7077 6.73034 15.3846C6.73034 15.0615 7.00196 14.7999 7.33745 14.7999H11.4602C11.6868 14.7999 11.8931 14.68 11.9987 14.4864C12.1039 14.293 12.4215 13.709 12.6945 13.2071C12.7805 13.0491 12.7745 12.8592 12.6786 12.7064C12.5824 12.5539 12.4106 12.461 12.2253 12.461H5.91454C5.10349 12.461 4.34223 12.7654 3.76833 13.3175L0.177863 16.7756C-0.0592877 17.004 -0.0592877 17.374 0.177863 17.6025L3.21339 20.5148C3.33197 20.629 3.48738 20.6863 3.64264 20.6863C3.79789 20.6863 3.9533 20.629 4.07188 20.5148L6.37461 18.3082H11.4602C13.0457 18.3082 14.4886 17.4677 15.2251 16.1149L18.0211 10.9786C18.1207 10.7976 18.1136 10.5795 18.0034 10.4041Z" fill="#C6C6C5"/>
</g>
</svg>
