<svg width="36" height="34" viewBox="0 0 36 34" fill="none" xmlns="http://www.w3.org/2000/svg">
<ellipse cx="18.2348" cy="17" rx="17.2631" ry="17" fill="white"/>
<path fill-rule="evenodd" clip-rule="evenodd" d="M12.3105 12.9166H21.7883V14.0833H12.3105V12.9166ZM12.3105 20.5H24.1578V22.25H12.3105V20.5ZM24.1578 18.1666H18.8265V19.9166H24.1578V18.1666Z" fill="#D8D8D8"/>
<mask id="mask0" mask-type="alpha" maskUnits="userSpaceOnUse" x="12" y="12" width="13" height="11">
<path fill-rule="evenodd" clip-rule="evenodd" d="M12.3105 12.9166H21.7883V14.0833H12.3105V12.9166ZM12.3105 20.5H24.1578V22.25H12.3105V20.5ZM24.1578 18.1666H18.8265V19.9166H24.1578V18.1666Z" fill="white"/>
</mask>
<g mask="url(#mask0)">
<rect x="11.126" y="10" width="14.2167" height="14" fill="#CEFDF1"/>
</g>
<path fill-rule="evenodd" clip-rule="evenodd" d="M22.3808 13.5H23.5655C24.2198 13.5 24.7502 14.0223 24.7502 14.6666V16.4166V19.9166V21.6666C24.7502 22.311 24.2198 22.8333 23.5655 22.8333H12.903C12.2487 22.8333 11.7183 22.311 11.7183 21.6666V12.3333C11.7183 11.689 12.2487 11.1666 12.903 11.1666H21.196C21.8503 11.1666 22.3808 11.689 22.3808 12.3333V13.5ZM23.5655 14.6666V15.8333H18.8266C18.4994 15.8333 18.2342 16.0944 18.2342 16.4166V19.9166C18.2342 20.2388 18.4994 20.5 18.8266 20.5H23.5655V21.6666H12.903V14.6666H21.7884V14.6666H23.5655ZM19.419 19.3333H23.5655V16.9999H19.419V19.3333ZM12.903 13.5H21.196V12.3333H12.903V13.5ZM21.196 18.1666C21.196 18.4888 20.9308 18.75 20.6037 18.75C20.2765 18.75 20.0113 18.4888 20.0113 18.1666C20.0113 17.8445 20.2765 17.5833 20.6037 17.5833C20.9308 17.5833 21.196 17.8445 21.196 18.1666Z" fill="#06D6A0"/>
<mask id="mask1" mask-type="alpha" maskUnits="userSpaceOnUse" x="11" y="11" width="14" height="12">
<path fill-rule="evenodd" clip-rule="evenodd" d="M22.3808 13.5H23.5655C24.2198 13.5 24.7502 14.0223 24.7502 14.6666V16.4166V19.9166V21.6666C24.7502 22.311 24.2198 22.8333 23.5655 22.8333H12.903C12.2487 22.8333 11.7183 22.311 11.7183 21.6666V12.3333C11.7183 11.689 12.2487 11.1666 12.903 11.1666H21.196C21.8503 11.1666 22.3808 11.689 22.3808 12.3333V13.5ZM23.5655 14.6666V15.8333H18.8266C18.4994 15.8333 18.2342 16.0944 18.2342 16.4166V19.9166C18.2342 20.2388 18.4994 20.5 18.8266 20.5H23.5655V21.6666H12.903V14.6666H21.7884V14.6666H23.5655ZM19.419 19.3333H23.5655V16.9999H19.419V19.3333ZM12.903 13.5H21.196V12.3333H12.903V13.5ZM21.196 18.1666C21.196 18.4888 20.9308 18.75 20.6037 18.75C20.2765 18.75 20.0113 18.4888 20.0113 18.1666C20.0113 17.8445 20.2765 17.5833 20.6037 17.5833C20.9308 17.5833 21.196 17.8445 21.196 18.1666Z" fill="white"/>
</mask>
<g mask="url(#mask1)">
<rect x="11.126" y="10" width="14.2167" height="14" fill="#253858"/>
</g>
</svg>
