<svg width="42" height="42" viewBox="0 0 42 42" fill="none" xmlns="http://www.w3.org/2000/svg">
<circle cx="21" cy="21" r="21" fill="#00B19A" fill-opacity="0.05"/>
<path d="M23.6752 20.5264H19.8857V22.4211H23.6752V20.5264Z" fill="#1EBAA6"/>
<path fill-rule="evenodd" clip-rule="evenodd" d="M17.0436 14.8421V13.8947C17.0436 13.3922 17.2432 12.9103 17.5985 12.555C17.9539 12.1996 18.4358 12 18.9383 12H24.6225C25.125 12 25.607 12.1996 25.9623 12.555C26.3176 12.9103 26.5173 13.3922 26.5173 13.8947V14.8421H29.3594C30.1131 14.8421 30.8361 15.1415 31.369 15.6745C31.902 16.2075 32.2015 16.9304 32.2015 17.6842V27.1579C32.2015 27.9117 31.902 28.6346 31.369 29.1676C30.8361 29.7006 30.1131 30 29.3594 30H14.2015C13.4477 30 12.7248 29.7006 12.1918 29.1676C11.6588 28.6346 11.3594 27.9117 11.3594 27.1579V17.6842C11.3594 16.9304 11.6588 16.2075 12.1918 15.6745C12.7248 15.1415 13.4477 14.8421 14.2015 14.8421H17.0436ZM18.9383 13.8947H24.6225V14.8421H18.9383V13.8947ZM14.2015 16.7368C13.9502 16.7368 13.7093 16.8367 13.5316 17.0143C13.3539 17.192 13.2541 17.433 13.2541 17.6842V23.3684H30.3067V17.6842C30.3067 17.433 30.2069 17.192 30.0293 17.0143C29.8516 16.8367 29.6106 16.7368 29.3594 16.7368H14.2015ZM13.2541 27.1579V25.2632H30.3067V27.1579C30.3067 27.4092 30.2069 27.6501 30.0293 27.8278C29.8516 28.0055 29.6106 28.1053 29.3594 28.1053H14.2015C13.9502 28.1053 13.7093 28.0055 13.5316 27.8278C13.3539 27.6501 13.2541 27.4092 13.2541 27.1579Z" fill="#1EBAA6"/>
</svg>
