<svg width="42" height="42" viewBox="0 0 42 42" fill="none" xmlns="http://www.w3.org/2000/svg">
<circle cx="21" cy="21" r="21" fill="#FEF6EB"/>
<path d="M24.3636 28.9091V27.3636C24.3636 26.5439 24.038 25.7577 23.4583 25.178C22.8787 24.5984 22.0925 24.2727 21.2727 24.2727H15.0909C14.2711 24.2727 13.485 24.5984 12.9053 25.178C12.3256 25.7577 12 26.5439 12 27.3636V28.9091" stroke="#F99915" stroke-width="2" stroke-linecap="round" stroke-linejoin="round"/>
<path d="M18.1817 21.1818C19.8888 21.1818 21.2726 19.798 21.2726 18.0909C21.2726 16.3838 19.8888 15 18.1817 15C16.4747 15 15.0908 16.3838 15.0908 18.0909C15.0908 19.798 16.4747 21.1818 18.1817 21.1818Z" stroke="#F99915" stroke-width="2" stroke-linecap="round" stroke-linejoin="round"/>
<path d="M28.9998 28.9092V27.3637C28.9993 26.6789 28.7714 26.0136 28.3518 25.4724C27.9322 24.9311 27.3447 24.5445 26.6816 24.3733" stroke="#F99915" stroke-width="2" stroke-linecap="round" stroke-linejoin="round"/>
<path d="M23.5908 15.1005C24.2557 15.2707 24.845 15.6574 25.2658 16.1995C25.6866 16.7417 25.9151 17.4085 25.9151 18.0948C25.9151 18.7811 25.6866 19.4479 25.2658 19.99C24.845 20.5322 24.2557 20.9189 23.5908 21.0891" stroke="#F99915" stroke-width="2" stroke-linecap="round" stroke-linejoin="round"/>
</svg>
