<svg width="42" height="42" viewBox="0 0 42 42" fill="none" xmlns="http://www.w3.org/2000/svg">
<circle cx="21" cy="21" r="21" fill="#1A7AEB" fill-opacity="0.05"/>
<path d="M29.9672 14.1399L29.9673 14.1398C30.2945 13.5685 29.8852 12.85 29.2246 12.85H12.8863C12.2259 12.85 11.8162 13.5685 12.146 14.1401C12.1461 14.1401 12.1461 14.1402 12.1461 14.1403L17.2881 23.1022V28.1798C17.2881 28.6546 17.6694 29.04 18.1438 29.04H23.9672C24.4415 29.04 24.8229 28.6546 24.8229 28.1798V23.1022L29.9672 14.1399ZM22.9361 27.1421H19.1771V24.1576H22.9361V27.1421ZM23.1669 22.1884L23.1669 22.1886L23.0238 22.4373H19.085L18.9419 22.1886L18.9418 22.1884L17.373 19.4527H24.7378L23.1669 22.1884ZM14.6723 14.7479H27.4386L25.7246 17.7324H16.3864L14.6723 14.7479Z" fill="#1773C7" stroke="#1A7AEB" stroke-width="0.3"/>
</svg>
