<svg width="16" height="17" viewBox="0 0 16 17" fill="none" xmlns="http://www.w3.org/2000/svg">
<path d="M15.9397 16.119H15.9425L8.51298 1.26897C8.34454 0.986654 7.979 0.894255 7.6965 1.06256C7.61158 1.11316 7.54059 1.1841 7.48996 1.26897L0.0603978 16.119C-0.0806817 16.4011 0.0338094 16.7442 0.316169 16.8852C0.394729 16.9244 0.481259 16.945 0.569061 16.9454H15.4282C15.7439 16.9456 15.9998 16.69 16 16.3745C16 16.2858 15.9794 16.1983 15.9397 16.119ZM8.57011 14.0896C8.57011 14.4051 8.31423 14.6608 7.99859 14.6608C7.68294 14.6608 7.42707 14.4051 7.42707 14.0896V13.5185C7.42707 13.203 7.68294 12.9473 7.99859 12.9473C8.31423 12.9473 8.57011 13.203 8.57011 13.5185V14.0896ZM8.57011 11.2339C8.57011 11.5493 8.31423 11.8051 7.99859 11.8051C7.68294 11.8051 7.42707 11.5493 7.42707 11.2339V7.2358C7.42707 6.92035 7.68294 6.66464 7.99859 6.66464C8.31423 6.66464 8.57011 6.92035 8.57011 7.2358V11.2339Z" fill="#98A7B0"/>
</svg>
