<svg width="20" height="21" viewBox="0 0 20 21" fill="none" xmlns="http://www.w3.org/2000/svg">
<path fill-rule="evenodd" clip-rule="evenodd" d="M0 10.6789C0 16.1875 4.48 20.6582 10 20.6582C15.52 20.6582 20 16.1875 20 10.6789C20 5.17026 15.52 0.699509 10 0.699509C4.48 0.699509 0 5.17026 0 10.6789ZM10 18.6623C14.41 18.6623 18 15.0798 18 10.6789C18 6.27797 14.41 2.69539 10 2.69539C5.59 2.69539 2 6.27797 2 10.6789C2 15.0798 5.59 18.6623 10 18.6623ZM11 15.6685L11 5.68919H9L9 15.6685H11Z" fill="black" fill-opacity="0.3"/>
</svg>
