<svg width="17" height="18" viewBox="0 0 17 18" fill="none" xmlns="http://www.w3.org/2000/svg">
<path d="M14.2865 17.3194H2.10189C1.82565 17.3228 1.55167 17.2664 1.29679 17.1538C1.04191 17.0412 0.811518 16.8746 0.61978 16.6644C0.421035 16.4616 0.26356 16.2181 0.157007 15.9487C0.0504551 15.6793 -0.00293004 15.3897 0.000124011 15.0978V2.22094C-0.00291591 1.9291 0.0504787 1.63968 0.157033 1.37042C0.263588 1.10117 0.421056 0.857762 0.61978 0.655128C0.811518 0.444903 1.04191 0.278352 1.29679 0.165714C1.55167 0.0530767 1.82565 -0.0032673 2.10189 0.000146333H14.2865C14.5626 -0.00275877 14.8365 0.0538169 15.0913 0.166424C15.3461 0.279032 15.5766 0.445312 15.7686 0.655128C15.9667 0.858088 16.1236 1.10163 16.2296 1.37085C16.3356 1.64008 16.3886 1.92934 16.3853 2.22094V15.0978C16.3831 15.6857 16.1614 16.249 15.7683 16.6651C15.3753 17.0811 14.8427 17.3163 14.2865 17.3194ZM1.82409 7.32854V14.6349C1.82257 14.7258 1.8384 14.816 1.87062 14.9003C1.90284 14.9845 1.9508 15.061 2.01163 15.1253C2.07246 15.1895 2.14491 15.2401 2.22466 15.2741C2.3044 15.308 2.38981 15.3246 2.47577 15.3229H13.8791C13.9645 15.3241 14.0492 15.3072 14.1283 15.2731C14.2073 15.239 14.2791 15.1885 14.3394 15.1246C14.4014 15.0613 14.4503 14.9851 14.4831 14.9008C14.516 14.8165 14.5319 14.726 14.53 14.6349V7.32854H13.0904C13.2333 7.80621 13.3054 8.3044 13.3041 8.8054C13.3088 9.72898 13.0725 10.636 12.6212 11.4269C12.1707 12.2213 11.5307 12.8766 10.7652 13.3273C9.9838 13.792 9.10116 14.033 8.20461 14.0264C7.53944 14.0368 6.87898 13.907 6.26183 13.6445C5.64468 13.382 5.08323 12.9921 4.61031 12.4975C4.13196 12.0258 3.75195 11.4538 3.49457 10.8181C3.2372 10.1823 3.1081 9.49685 3.11554 8.8054C3.11466 8.30444 3.18676 7.80631 3.32929 7.32854H1.82409ZM8.20387 5.25338C7.77455 5.24706 7.34833 5.33109 6.95003 5.50057C6.55173 5.67006 6.18931 5.92161 5.88388 6.24058C5.57873 6.54844 5.33584 6.91853 5.16988 7.32845C5.00393 7.73838 4.91836 8.17963 4.91836 8.62551C4.91836 9.0714 5.00393 9.51265 5.16988 9.92257C5.33584 10.3325 5.57873 10.7026 5.88388 11.0105C6.18937 11.3293 6.55182 11.5807 6.95011 11.75C7.34841 11.9194 7.7746 12.0033 8.20387 11.9969C8.63481 12.0042 9.06281 11.9207 9.46292 11.7514C9.86303 11.582 10.2272 11.3301 10.5343 11.0105C10.8394 10.7026 11.0823 10.3325 11.2483 9.92257C11.4142 9.51265 11.4998 9.0714 11.4998 8.62551C11.4998 8.17963 11.4142 7.73838 11.2483 7.32845C11.0823 6.91853 10.8394 6.54844 10.5343 6.24058C10.2272 5.92088 9.86303 5.66901 9.46292 5.49966C9.06281 5.3303 8.63481 5.24685 8.20387 5.25417V5.25338ZM11.9382 1.92809C11.8409 1.92633 11.7442 1.94599 11.6545 1.98584C11.5647 2.02568 11.4838 2.08484 11.4168 2.15954C11.3485 2.23088 11.2943 2.31599 11.2576 2.40983C11.2209 2.50367 11.2024 2.60434 11.2031 2.70588V4.56612C11.202 4.66862 11.2203 4.77032 11.2569 4.86526C11.2934 4.96019 11.3476 5.04644 11.4161 5.11896C11.4847 5.19148 11.5662 5.24881 11.656 5.28757C11.7458 5.32633 11.842 5.34576 11.9389 5.3447H13.7949C13.8918 5.34554 13.9879 5.32597 14.0776 5.28713C14.1673 5.24829 14.2488 5.19096 14.3173 5.11849C14.3858 5.04601 14.4399 4.95984 14.4766 4.865C14.5132 4.77017 14.5317 4.66857 14.5308 4.56612V2.70588C14.5314 2.60428 14.5127 2.50358 14.4759 2.40974C14.439 2.31589 14.3848 2.23082 14.3163 2.15954C14.2493 2.08484 14.1684 2.02568 14.0786 1.98584C13.9889 1.94599 13.8923 1.92633 13.7949 1.92809H11.9382Z" fill="#215063"/>
</svg>
