<svg width="245" height="250" viewBox="0 0 245 250" fill="none" xmlns="http://www.w3.org/2000/svg">
<path fill-rule="evenodd" clip-rule="evenodd" d="M50 250C77.6142 250 100 227.614 100 200C100 172.386 77.6142 150 50 150C22.3858 150 0 172.386 0 200C0 227.614 22.3858 250 50 250ZM50 230.769C66.9934 230.769 80.7692 216.993 80.7692 200C80.7692 183.007 66.9934 169.231 50 169.231C33.0066 169.231 19.2308 183.007 19.2308 200C19.2308 216.993 33.0066 230.769 50 230.769Z" fill="#00B19A" fill-opacity="0.5"/>
<path opacity="0.2" fill-rule="evenodd" clip-rule="evenodd" d="M235.5 216C334.635 216 415 135.635 415 36.5C415 -62.6351 334.635 -143 235.5 -143C136.365 -143 56 -62.6351 56 36.5C56 135.635 136.365 216 235.5 216ZM235.5 134C289.348 134 333 90.3478 333 36.5C333 -17.3478 289.348 -61 235.5 -61C181.652 -61 138 -17.3478 138 36.5C138 90.3478 181.652 134 235.5 134Z" fill="#E5C61B"/>
</svg>
