<svg width="150" height="146" viewBox="0 0 150 146" fill="none" xmlns="http://www.w3.org/2000/svg">
<circle cx="3" cy="3" r="3" fill="#D5FFFD"/>
<circle cx="3" cy="17" r="3" fill="#D5FFFD"/>
<circle cx="3" cy="31" r="3" fill="#D5FFFD"/>
<circle cx="3" cy="45" r="3" fill="#D5FFFD"/>
<circle cx="3" cy="59" r="3" fill="#D5FFFD"/>
<circle cx="3" cy="73" r="3" fill="#D5FFFD"/>
<circle cx="3" cy="87" r="3" fill="#D5FFFD"/>
<circle cx="3" cy="101" r="3" fill="#D5FFFD"/>
<circle cx="3" cy="115" r="3" fill="#D5FFFD"/>
<circle cx="3" cy="129" r="3" fill="#D5FFFD"/>
<circle cx="3" cy="143" r="3" fill="#D5FFFD"/>
<circle cx="15" cy="3" r="3" fill="#D5FFFD"/>
<circle cx="15" cy="17" r="3" fill="#D5FFFD"/>
<circle cx="15" cy="31" r="3" fill="#D5FFFD"/>
<circle cx="15" cy="45" r="3" fill="#D5FFFD"/>
<circle cx="15" cy="59" r="3" fill="#D5FFFD"/>
<circle cx="15" cy="73" r="3" fill="#D5FFFD"/>
<circle cx="15" cy="87" r="3" fill="#D5FFFD"/>
<circle cx="15" cy="101" r="3" fill="#D5FFFD"/>
<circle cx="15" cy="115" r="3" fill="#D5FFFD"/>
<circle cx="15" cy="129" r="3" fill="#D5FFFD"/>
<circle cx="15" cy="143" r="3" fill="#D5FFFD"/>
<circle cx="27" cy="3" r="3" fill="#D5FFFD"/>
<circle cx="27" cy="17" r="3" fill="#D5FFFD"/>
<circle cx="27" cy="31" r="3" fill="#D5FFFD"/>
<circle cx="27" cy="45" r="3" fill="#D5FFFD"/>
<circle cx="27" cy="59" r="3" fill="#D5FFFD"/>
<circle cx="27" cy="73" r="3" fill="#D5FFFD"/>
<circle cx="27" cy="87" r="3" fill="#D5FFFD"/>
<circle cx="27" cy="101" r="3" fill="#D5FFFD"/>
<circle cx="27" cy="115" r="3" fill="#D5FFFD"/>
<circle cx="27" cy="129" r="3" fill="#D5FFFD"/>
<circle cx="27" cy="143" r="3" fill="#D5FFFD"/>
<circle cx="39" cy="3" r="3" fill="#D5FFFD"/>
<circle cx="39" cy="17" r="3" fill="#D5FFFD"/>
<circle cx="39" cy="31" r="3" fill="#D5FFFD"/>
<circle cx="39" cy="45" r="3" fill="#D5FFFD"/>
<circle cx="39" cy="59" r="3" fill="#D5FFFD"/>
<circle cx="39" cy="73" r="3" fill="#D5FFFD"/>
<circle cx="39" cy="87" r="3" fill="#D5FFFD"/>
<circle cx="39" cy="101" r="3" fill="#D5FFFD"/>
<circle cx="39" cy="115" r="3" fill="#D5FFFD"/>
<circle cx="39" cy="129" r="3" fill="#D5FFFD"/>
<circle cx="39" cy="143" r="3" fill="#D5FFFD"/>
<circle cx="51" cy="3" r="3" fill="#D5FFFD"/>
<circle cx="51" cy="17" r="3" fill="#D5FFFD"/>
<circle cx="51" cy="31" r="3" fill="#D5FFFD"/>
<circle cx="51" cy="45" r="3" fill="#D5FFFD"/>
<circle cx="51" cy="59" r="3" fill="#D5FFFD"/>
<circle cx="51" cy="73" r="3" fill="#D5FFFD"/>
<circle cx="51" cy="87" r="3" fill="#D5FFFD"/>
<circle cx="51" cy="101" r="3" fill="#D5FFFD"/>
<circle cx="51" cy="115" r="3" fill="#D5FFFD"/>
<circle cx="51" cy="129" r="3" fill="#D5FFFD"/>
<circle cx="51" cy="143" r="3" fill="#D5FFFD"/>
<circle cx="63" cy="3" r="3" fill="#D5FFFD"/>
<circle cx="63" cy="17" r="3" fill="#D5FFFD"/>
<circle cx="63" cy="31" r="3" fill="#D5FFFD"/>
<circle cx="63" cy="45" r="3" fill="#D5FFFD"/>
<circle cx="63" cy="59" r="3" fill="#D5FFFD"/>
<circle cx="63" cy="73" r="3" fill="#D5FFFD"/>
<circle cx="63" cy="87" r="3" fill="#D5FFFD"/>
<circle cx="63" cy="101" r="3" fill="#D5FFFD"/>
<circle cx="63" cy="115" r="3" fill="#D5FFFD"/>
<circle cx="63" cy="129" r="3" fill="#D5FFFD"/>
<circle cx="63" cy="143" r="3" fill="#D5FFFD"/>
<circle cx="75" cy="3" r="3" fill="#D5FFFD"/>
<circle cx="75" cy="17" r="3" fill="#D5FFFD"/>
<circle cx="75" cy="31" r="3" fill="#D5FFFD"/>
<circle cx="75" cy="45" r="3" fill="#D5FFFD"/>
<circle cx="75" cy="59" r="3" fill="#D5FFFD"/>
<circle cx="75" cy="73" r="3" fill="#D5FFFD"/>
<circle cx="75" cy="87" r="3" fill="#D5FFFD"/>
<circle cx="75" cy="101" r="3" fill="#D5FFFD"/>
<circle cx="75" cy="115" r="3" fill="#D5FFFD"/>
<circle cx="75" cy="129" r="3" fill="#D5FFFD"/>
<circle cx="75" cy="143" r="3" fill="#D5FFFD"/>
<circle cx="87" cy="3" r="3" fill="#D5FFFD"/>
<circle cx="87" cy="17" r="3" fill="#D5FFFD"/>
<circle cx="87" cy="31" r="3" fill="#D5FFFD"/>
<circle cx="87" cy="45" r="3" fill="#D5FFFD"/>
<circle cx="87" cy="59" r="3" fill="#D5FFFD"/>
<circle cx="87" cy="73" r="3" fill="#D5FFFD"/>
<circle cx="87" cy="87" r="3" fill="#D5FFFD"/>
<circle cx="87" cy="101" r="3" fill="#D5FFFD"/>
<circle cx="87" cy="115" r="3" fill="#D5FFFD"/>
<circle cx="87" cy="129" r="3" fill="#D5FFFD"/>
<circle cx="87" cy="143" r="3" fill="#D5FFFD"/>
<circle cx="99" cy="3" r="3" fill="#D5FFFD"/>
<circle cx="99" cy="17" r="3" fill="#D5FFFD"/>
<circle cx="99" cy="31" r="3" fill="#D5FFFD"/>
<circle cx="99" cy="45" r="3" fill="#D5FFFD"/>
<circle cx="99" cy="59" r="3" fill="#D5FFFD"/>
<circle cx="99" cy="73" r="3" fill="#D5FFFD"/>
<circle cx="99" cy="87" r="3" fill="#D5FFFD"/>
<circle cx="99" cy="101" r="3" fill="#D5FFFD"/>
<circle cx="99" cy="115" r="3" fill="#D5FFFD"/>
<circle cx="99" cy="129" r="3" fill="#D5FFFD"/>
<circle cx="99" cy="143" r="3" fill="#D5FFFD"/>
<circle cx="111" cy="3" r="3" fill="#D5FFFD"/>
<circle cx="111" cy="17" r="3" fill="#D5FFFD"/>
<circle cx="111" cy="31" r="3" fill="#D5FFFD"/>
<circle cx="111" cy="45" r="3" fill="#D5FFFD"/>
<circle cx="111" cy="59" r="3" fill="#D5FFFD"/>
<circle cx="111" cy="73" r="3" fill="#D5FFFD"/>
<circle cx="111" cy="87" r="3" fill="#D5FFFD"/>
<circle cx="111" cy="101" r="3" fill="#D5FFFD"/>
<circle cx="111" cy="115" r="3" fill="#D5FFFD"/>
<circle cx="111" cy="129" r="3" fill="#D5FFFD"/>
<circle cx="111" cy="143" r="3" fill="#D5FFFD"/>
<circle cx="123" cy="3" r="3" fill="#D5FFFD"/>
<circle cx="123" cy="17" r="3" fill="#D5FFFD"/>
<circle cx="123" cy="31" r="3" fill="#D5FFFD"/>
<circle cx="123" cy="45" r="3" fill="#D5FFFD"/>
<circle cx="123" cy="59" r="3" fill="#D5FFFD"/>
<circle cx="123" cy="73" r="3" fill="#D5FFFD"/>
<circle cx="123" cy="87" r="3" fill="#D5FFFD"/>
<circle cx="123" cy="101" r="3" fill="#D5FFFD"/>
<circle cx="123" cy="115" r="3" fill="#D5FFFD"/>
<circle cx="123" cy="129" r="3" fill="#D5FFFD"/>
<circle cx="123" cy="143" r="3" fill="#D5FFFD"/>
<circle cx="135" cy="3" r="3" fill="#D5FFFD"/>
<circle cx="135" cy="17" r="3" fill="#D5FFFD"/>
<circle cx="135" cy="31" r="3" fill="#D5FFFD"/>
<circle cx="135" cy="45" r="3" fill="#D5FFFD"/>
<circle cx="135" cy="59" r="3" fill="#D5FFFD"/>
<circle cx="135" cy="73" r="3" fill="#D5FFFD"/>
<circle cx="135" cy="87" r="3" fill="#D5FFFD"/>
<circle cx="135" cy="101" r="3" fill="#D5FFFD"/>
<circle cx="135" cy="115" r="3" fill="#D5FFFD"/>
<circle cx="135" cy="129" r="3" fill="#D5FFFD"/>
<circle cx="135" cy="143" r="3" fill="#D5FFFD"/>
<circle cx="147" cy="3" r="3" fill="#D5FFFD"/>
<circle cx="147" cy="17" r="3" fill="#D5FFFD"/>
<circle cx="147" cy="31" r="3" fill="#D5FFFD"/>
<circle cx="147" cy="45" r="3" fill="#D5FFFD"/>
<circle cx="147" cy="59" r="3" fill="#D5FFFD"/>
<circle cx="147" cy="73" r="3" fill="#D5FFFD"/>
<circle cx="147" cy="87" r="3" fill="#D5FFFD"/>
<circle cx="147" cy="101" r="3" fill="#D5FFFD"/>
<circle cx="147" cy="115" r="3" fill="#D5FFFD"/>
<circle cx="147" cy="129" r="3" fill="#D5FFFD"/>
<circle cx="147" cy="143" r="3" fill="#D5FFFD"/>
</svg>
