<svg width="24" height="26" viewBox="0 0 24 26" fill="none" xmlns="http://www.w3.org/2000/svg">
<path d="M11.1712 1.08431L11.171 1.08452L9.36067 3.6471L9.36066 3.64711C8.91507 4.27792 9.36922 5.14739 10.1395 5.14739H10.9968V17.2016C10.9968 17.7277 11.424 18.1533 11.9499 18.1533C12.4759 18.1533 12.903 17.7276 12.903 17.2016V5.14749H13.7602C14.5369 5.14749 14.9807 4.27247 14.5391 3.64727L14.5391 3.64724L12.7288 1.08472C12.3543 0.554281 11.5548 0.542509 11.1712 1.08431Z" fill="#5F7587" stroke="#5F7587" stroke-width="0.5"/>
<path d="M16.2484 4.62127L16.2483 4.62131C15.9846 5.07642 16.1405 5.65882 16.5962 5.92191L16.7212 5.7054L16.5963 5.92192C19.3775 7.52737 21.2435 10.5277 21.2435 13.9556C21.2435 19.0685 17.0747 23.2295 11.9499 23.2295C6.82512 23.2295 2.65626 19.0685 2.65626 13.9556C2.65626 10.5254 4.52399 7.52648 7.30342 5.92197C7.75922 5.65891 7.91501 5.07639 7.65135 4.62137L7.65133 4.62134C7.38761 4.16636 6.80467 4.01136 6.34935 4.27412L6.34933 4.27414C2.99107 6.21275 0.75 9.83411 0.75 13.9556C0.75 20.1336 5.75975 25.1328 11.9499 25.1328C18.1395 25.1328 23.1498 20.1342 23.1498 13.9556C23.1498 9.83234 20.9071 6.21188 17.5504 4.27409L17.5503 4.27407C17.095 4.0113 16.5121 4.16633 16.2484 4.62127Z" fill="#5F7587" stroke="#5F7587" stroke-width="0.5"/>
</svg>
