<svg width="13" height="13" viewBox="0 0 13 13" fill="none" xmlns="http://www.w3.org/2000/svg">
<path fill-rule="evenodd" clip-rule="evenodd" d="M11.7104 6.13936L6.28087 0.721066C6.06369 0.504334 5.76205 0.371887 5.43024 0.371887H1.20729C0.543684 0.371887 0.000732422 0.913716 0.000732422 1.57595V5.79018C0.000732422 6.1213 0.133454 6.42231 0.356667 6.64507L5.78618 12.0634C6.00336 12.2801 6.305 12.4125 6.6368 12.4125C6.96861 12.4125 7.27025 12.2801 7.48743 12.0573L11.7104 7.84311C11.9336 7.62638 12.0663 7.32536 12.0663 6.99424C12.0663 6.66313 11.9276 6.35609 11.7104 6.13936ZM6.63616 11.2141L1.20667 5.78982V1.5756H5.42961V1.56958L10.8591 6.98786L6.63616 11.2141ZM1.81052 3.08112C1.81052 2.58238 2.21566 2.17807 2.71544 2.17807C3.21521 2.17807 3.62036 2.58238 3.62036 3.08112C3.62036 3.57986 3.21521 3.98417 2.71544 3.98417C2.21566 3.98417 1.81052 3.57986 1.81052 3.08112Z" fill="#E1E7F0"/>
</svg>
