<svg width="16" height="16" viewBox="0 0 16 16" fill="none" xmlns="http://www.w3.org/2000/svg">
<path d="M14.5455 8.0423C13.7685 7.76767 12.9295 7.71824 12.1256 7.89973C11.3217 8.08123 10.5858 8.48623 10.0029 9.06784C9.42012 9.64945 9.01428 10.3839 8.83241 11.1861C8.65054 11.9884 8.70007 12.8257 8.97527 13.601H0.727273C0.534388 13.601 0.349403 13.5245 0.213013 13.3884C0.0766231 13.2523 0 13.0677 0 12.8752V1.26288C0 1.07039 0.0766231 0.885791 0.213013 0.749683C0.349403 0.613574 0.534388 0.537109 0.727273 0.537109H13.8182C14.0111 0.537109 14.1961 0.613574 14.3324 0.749683C14.4688 0.885791 14.5455 1.07039 14.5455 1.26288V8.0423ZM7.31636 6.83897L2.65309 2.88715L1.71127 3.99323L7.32582 8.75065L12.8393 3.9896L11.888 2.89151L7.31709 6.83897H7.31636ZM13.8182 11.4237H16V12.8752H13.8182V15.0525H12.3636V12.8752H10.1818V11.4237H12.3636V9.24635H13.8182V11.4237Z" fill="#26727E"/>
</svg>
