<svg width="16" height="5" viewBox="0 0 16 5" fill="none" xmlns="http://www.w3.org/2000/svg">
<path d="M2 0.799805C0.9 0.799805 0 1.69795 0 2.79567C0 3.8934 0.9 4.79154 2 4.79154C3.1 4.79154 4 3.8934 4 2.79567C4 1.69795 3.1 0.799805 2 0.799805ZM14 0.799805C12.9 0.799805 12 1.69795 12 2.79567C12 3.8934 12.9 4.79154 14 4.79154C15.1 4.79154 16 3.8934 16 2.79567C16 1.69795 15.1 0.799805 14 0.799805ZM8 0.799805C6.9 0.799805 6 1.69795 6 2.79567C6 3.8934 6.9 4.79154 8 4.79154C9.1 4.79154 10 3.8934 10 2.79567C10 1.69795 9.1 0.799805 8 0.799805Z" fill="#FFB329"/>
</svg>
