<svg width="25" height="25" viewBox="0 0 25 25" fill="none" xmlns="http://www.w3.org/2000/svg">
<path d="M12.5 13.3555C13.0523 13.3555 13.5 12.9078 13.5 12.3555C13.5 11.8032 13.0523 11.3555 12.5 11.3555C11.9477 11.3555 11.5 11.8032 11.5 12.3555C11.5 12.9078 11.9477 13.3555 12.5 13.3555Z" stroke="#26727E" stroke-width="2" stroke-linecap="round" stroke-linejoin="round"/>
<path d="M19.5 13.3555C20.0523 13.3555 20.5 12.9078 20.5 12.3555C20.5 11.8032 20.0523 11.3555 19.5 11.3555C18.9477 11.3555 18.5 11.8032 18.5 12.3555C18.5 12.9078 18.9477 13.3555 19.5 13.3555Z" stroke="#26727E" stroke-width="2" stroke-linecap="round" stroke-linejoin="round"/>
<path d="M5.5 13.3555C6.05228 13.3555 6.5 12.9078 6.5 12.3555C6.5 11.8032 6.05228 11.3555 5.5 11.3555C4.94772 11.3555 4.5 11.8032 4.5 12.3555C4.5 12.9078 4.94772 13.3555 5.5 13.3555Z" stroke="#26727E" stroke-width="2" stroke-linecap="round" stroke-linejoin="round"/>
</svg>
