<svg width="16" height="5" viewBox="0 0 16 5" fill="none" xmlns="http://www.w3.org/2000/svg">
<path d="M2 0.0234375C0.9 0.0234375 0 0.921578 0 2.01931C0 3.11703 0.9 4.01517 2 4.01517C3.1 4.01517 4 3.11703 4 2.01931C4 0.921578 3.1 0.0234375 2 0.0234375ZM14 0.0234375C12.9 0.0234375 12 0.921578 12 2.01931C12 3.11703 12.9 4.01517 14 4.01517C15.1 4.01517 16 3.11703 16 2.01931C16 0.921578 15.1 0.0234375 14 0.0234375ZM8 0.0234375C6.9 0.0234375 6 0.921578 6 2.01931C6 3.11703 6.9 4.01517 8 4.01517C9.1 4.01517 10 3.11703 10 2.01931C10 0.921578 9.1 0.0234375 8 0.0234375Z" fill="#707070"/>
</svg>
