<svg width="71" height="48" viewBox="0 0 71 48" fill="none" xmlns="http://www.w3.org/2000/svg">
<path fill-rule="evenodd" clip-rule="evenodd" d="M14.3985 1.04707H10.0754C11.3825 0.544159 12.7202 0.281528 14.3985 1.04707ZM44.0092 1.04707H40.9677C41.6086 0.588862 42.4325 0.393286 43.6481 0.812378C43.7701 0.890608 43.8922 0.968839 44.0092 1.04707Z" fill="#14472C"/>
<path fill-rule="evenodd" clip-rule="evenodd" d="M40.225 1.75098H44.9905C45.2957 1.99126 45.5602 2.22595 45.8043 2.47182H35.3017C36.853 2.27065 38.3635 2.37682 39.9045 2.1533C40.0063 2.01919 40.1131 1.88509 40.225 1.75098ZM8.59012 1.75098H15.619C15.6851 1.79568 15.7512 1.84597 15.8224 1.89067C16.2344 2.19242 16.7175 2.36565 17.2414 2.46623H7.71533C7.9798 2.22036 8.27479 1.98008 8.59012 1.75098Z" fill="#14472C"/>
<path fill-rule="evenodd" clip-rule="evenodd" d="M33.0589 3.18164H46.4045C46.5723 3.41074 46.7249 3.65102 46.8622 3.90248H31.884L33.0589 3.18164ZM7.04913 3.18164H22.2918C22.8513 3.37163 23.3853 3.60632 23.8939 3.90248H6.51001C6.67785 3.65102 6.85586 3.41074 7.04913 3.18164Z" fill="#14472C"/>
<path fill-rule="evenodd" clip-rule="evenodd" d="M6.09296 4.60645H26.1419C27.5355 4.79643 29.1884 4.79085 30.2717 4.60645H47.203C47.2996 4.83555 47.3861 5.07583 47.4675 5.32728H5.7522C5.85392 5.08142 5.96581 4.84114 6.09296 4.60645Z" fill="#14472C"/>
<path fill-rule="evenodd" clip-rule="evenodd" d="M5.48774 6.03125H47.6811C47.7421 6.26035 47.8032 6.50063 47.8642 6.75209H5.26904C5.33516 6.51181 5.40636 6.27153 5.48774 6.03125Z" fill="#14472C"/>
<path fill-rule="evenodd" clip-rule="evenodd" d="M5.1064 7.46191H47.9609L47.9864 8.18275H4.97925C5.01485 7.93688 5.06062 7.69661 5.1064 7.46191Z" fill="#14472C"/>
<path fill-rule="evenodd" clip-rule="evenodd" d="M4.88765 8.88672H48.0118L48.0372 9.60756H4.82153C4.83679 9.36728 4.86222 9.127 4.88765 8.88672Z" fill="#14472C"/>
<path fill-rule="evenodd" clip-rule="evenodd" d="M4.77567 10.3115H48.0574L48.0676 10.5965L47.9456 11.0156H12.0029L11.9978 11.0268H4.75024C4.75533 10.7921 4.7655 10.5518 4.77567 10.3115Z" fill="#14472C"/>
<path fill-rule="evenodd" clip-rule="evenodd" d="M4.73999 11.7363H11.7739L11.545 12.4572H4.73999C4.73999 12.2169 4.73999 11.9822 4.73999 11.7363Z" fill="#14472C"/>
<path fill-rule="evenodd" clip-rule="evenodd" d="M4.74536 13.167H11.3215L11.0978 13.8878H4.75045L4.74536 13.167Z" fill="#14472C"/>
<path fill-rule="evenodd" clip-rule="evenodd" d="M4.75537 14.5918H10.8738L10.6449 15.3126H4.75537C4.75537 15.0724 4.75537 14.8321 4.75537 14.5918Z" fill="#14472C"/>
<path fill-rule="evenodd" clip-rule="evenodd" d="M4.74536 16.0166H10.4213L10.1925 16.7374H4.71484C4.7301 16.5027 4.74027 16.2625 4.74536 16.0166Z" fill="#14472C"/>
<path fill-rule="evenodd" clip-rule="evenodd" d="M4.54698 17.4473H9.97372L9.74486 18.1681H4.31812C4.40966 17.8999 4.48595 17.654 4.54698 17.4473Z" fill="#14472C"/>
<path fill-rule="evenodd" clip-rule="evenodd" d="M4.06883 18.8721H9.52101L9.29214 19.5929H3.79419C3.89591 19.3415 3.98237 19.1012 4.06883 18.8721Z" fill="#14472C"/>
<path fill-rule="evenodd" clip-rule="evenodd" d="M3.50946 20.2979H9.07353L8.84466 21.0187H3.19922C3.31111 20.7784 3.41283 20.5381 3.50946 20.2979Z" fill="#14472C"/>
<path fill-rule="evenodd" clip-rule="evenodd" d="M2.8736 21.7275H8.62076L8.39189 22.4484H2.51758C2.63964 22.2081 2.76171 21.9678 2.8736 21.7275Z" fill="#14472C"/>
<path fill-rule="evenodd" clip-rule="evenodd" d="M2.14113 23.1523H8.17311L7.94424 23.8732H1.71899C1.86649 23.6385 2.00381 23.3982 2.14113 23.1523Z" fill="#14472C"/>
<path fill-rule="evenodd" clip-rule="evenodd" d="M1.26143 24.5781H7.72064V24.5894H1.25635L1.26143 24.5781Z" fill="#14472C"/>
<path fill-rule="evenodd" clip-rule="evenodd" d="M0.0406499 30.2832H39.0654C38.9281 30.5011 38.7908 30.7414 38.6535 31.004H0.0253906C0.0304766 30.7526 0.0355639 30.5123 0.0406499 30.2832Z" fill="#14472C"/>
<path fill-rule="evenodd" clip-rule="evenodd" d="M0.0150531 31.7139H38.3074C38.1956 31.9486 38.0837 32.1944 37.9667 32.4347H0.00488281C0.0099688 32.1888 0.00996709 31.9486 0.0150531 31.7139Z" fill="#14472C"/>
<path fill-rule="evenodd" clip-rule="evenodd" d="M0 33.1387H37.6312C37.5142 33.3845 37.3973 33.6304 37.2803 33.8595H0C0 33.6192 0 33.379 0 33.1387Z" fill="#14472C"/>
<path fill-rule="evenodd" clip-rule="evenodd" d="M35.7441 34.5635H36.8936C36.8122 34.6976 36.7359 34.8149 36.6545 34.9267C36.3392 34.7758 36.034 34.6585 35.7441 34.5635ZM0.00488281 34.5635H32.9773C32.4942 34.7311 32.0364 34.977 31.594 35.2843H0.00996795C0.00996795 35.0496 0.0099688 34.8093 0.00488281 34.5635Z" fill="#14472C"/>
<path fill-rule="evenodd" clip-rule="evenodd" d="M0.0253906 35.9941H30.7092C30.4549 36.2232 30.2006 36.4635 29.9513 36.715H0.045735C0.0406491 36.4859 0.0304766 36.2456 0.0253906 35.9941Z" fill="#14472C"/>
<path fill-rule="evenodd" clip-rule="evenodd" d="M7.3645 37.4189H29.2699L29.0461 37.6481L28.8172 38.1398H9.0734C8.82927 37.9442 8.56479 37.7654 8.27998 37.6145C7.96973 37.5419 7.66458 37.4748 7.3645 37.4189Z" fill="#14472C"/>
<path fill-rule="evenodd" clip-rule="evenodd" d="M9.82104 38.8438H28.4917C28.3849 39.0729 28.2679 39.3131 28.1459 39.5646H10.4212C10.2483 39.3355 10.0448 39.0896 9.82104 38.8438Z" fill="#14472C"/>
<path fill-rule="evenodd" clip-rule="evenodd" d="M10.8228 40.2744H27.7845C27.6625 40.5147 27.5353 40.755 27.398 40.9953H11.1686C11.0516 40.7606 10.9397 40.5203 10.8228 40.2744Z" fill="#14472C"/>
<path fill-rule="evenodd" clip-rule="evenodd" d="M11.5352 41.6992H26.9966C26.8491 41.9451 26.7016 42.1854 26.549 42.4201H11.9675C11.82 42.1909 11.6776 41.9507 11.5352 41.6992Z" fill="#14472C"/>
<path fill-rule="evenodd" clip-rule="evenodd" d="M12.4504 43.124H26.0555C25.8622 43.3866 25.6588 43.6269 25.4604 43.8448H13.0353C12.8319 43.6157 12.6386 43.3755 12.4504 43.124Z" fill="#14472C"/>
<path fill-rule="evenodd" clip-rule="evenodd" d="M13.717 44.5547H24.657C24.2094 44.8564 23.7568 44.9961 23.3194 44.9011C23.2075 44.8788 23.0702 45.0352 22.9074 45.2755H14.5461C14.2511 45.0352 13.9764 44.795 13.717 44.5547Z" fill="#14472C"/>
<path fill-rule="evenodd" clip-rule="evenodd" d="M15.4868 45.9795H22.4241C22.2054 46.2756 21.946 46.5606 21.6561 46.7003H16.6057C16.56 46.6836 16.5193 46.6612 16.4735 46.6389C16.1226 46.4153 15.792 46.1974 15.4868 45.9795Z" fill="#14472C"/>
<path fill-rule="evenodd" clip-rule="evenodd" d="M17.3738 46.9795H20.7407C19.6574 47.3211 18.5334 47.3267 17.3738 46.9795Z" fill="#14472C"/>
<path fill-rule="evenodd" clip-rule="evenodd" d="M13.3048 12.4188L9.11899 26.0365H0.310059L0.34566 29.3222L12.4045 29.3055L14.4745 23.1867L15.1459 23.1923L15.6952 29.2719H19.6877L25.1754 12.3965H21.1117L19.0417 19.0573H18.4721L17.104 12.4468L13.3048 12.4188Z" fill="#9B7C0F"/>
<path fill-rule="evenodd" clip-rule="evenodd" d="M27.8153 12.413L22.3376 29.2549L26.3556 29.2325L31.6247 12.3906L27.8153 12.413Z" fill="#9B7C0F"/>
<path fill-rule="evenodd" clip-rule="evenodd" d="M51.9839 12.4125L46.8979 25.8123L42.824 25.79L41.5271 29.2545L49.5172 29.26L54.6846 15.81L58.911 15.7653L60.091 12.4014L51.9839 12.4125Z" fill="#9B7C0F"/>
<path fill-rule="evenodd" clip-rule="evenodd" d="M62.0034 12.4125L56.9174 25.8123L52.8436 25.79L51.5466 29.2545L59.5418 29.26L64.7092 15.81L68.9305 15.7653L70.1105 12.4014L62.0034 12.4125Z" fill="#9B7C0F"/>
<path fill-rule="evenodd" clip-rule="evenodd" d="M33.7863 25.6449H35.9325C37.4482 25.6449 38.3128 24.9967 38.5264 23.6947C38.6027 23.2365 38.5518 22.8789 38.3789 22.6107C38.206 22.348 37.7788 22.2139 37.1023 22.2139H34.9204L33.7863 25.6449ZM35.9783 19.0177H37.3465C37.9364 19.0177 38.4043 18.9618 38.74 18.8556C39.0808 18.7438 39.3808 18.5203 39.6351 18.1851C39.8894 17.8442 40.0471 17.5033 40.1031 17.1625C40.1692 16.749 40.1183 16.4305 39.9403 16.2014C39.7623 15.9723 39.3605 15.8549 38.7248 15.8549H37.0108L35.9783 19.0177ZM34.1219 12.4463H40.1183C40.8507 12.4463 41.4356 12.491 41.8984 12.5692C42.3562 12.653 42.7681 12.8654 43.1496 13.2062C43.5259 13.5471 43.7955 13.9941 43.9481 14.5529C44.1006 15.1117 44.121 15.7208 44.0091 16.3858C43.8667 17.2351 43.5412 18.0342 43.0326 18.7886C42.5189 19.5429 41.812 20.0849 40.9117 20.4202L40.9016 20.4649C42.2036 21.0069 42.702 22.186 42.3968 24.0076C42.1781 25.3376 41.5475 26.5446 40.5099 27.623C39.4724 28.7071 38.1602 29.2491 36.5683 29.2491H28.5579L34.1219 12.4463Z" fill="#9B7C0F"/>
</svg>
