<svg width="18" height="19" viewBox="0 0 18 19" fill="none" xmlns="http://www.w3.org/2000/svg">
<g id="notes 1" clip-path="url(#clip0)">
<g id="Group">
<g id="Group_2">
<path id="Vector" d="M17.4345 7.03952C16.7677 6.48119 15.7701 6.56855 15.2116 7.23269L13.7106 9.00522V3.86532C13.7106 3.43453 13.5311 3.01735 13.2182 2.72072L11.215 0.82182C10.9197 0.541888 10.5328 0.387695 10.1255 0.387695H1.582C0.709699 0.387695 0 1.09593 0 1.96642V16.7714C0 17.6419 0.709699 18.3501 1.582 18.3501H12.1287C13.001 18.3501 13.7107 17.6419 13.7107 16.7714V13.8959C13.7754 13.8193 17.6174 9.27796 17.6295 9.26368C18.1915 8.59526 18.1044 7.60043 17.4345 7.03952ZM10.5467 1.63983C12.6565 3.63988 12.5067 3.49368 12.5462 3.54519H10.5467V1.63983ZM12.656 16.7714C12.656 17.0616 12.4194 17.2977 12.1286 17.2977H1.582C1.29122 17.2977 1.05465 17.0616 1.05465 16.7714V1.96642C1.05465 1.67625 1.29122 1.44017 1.582 1.44017H9.49198V4.07137C9.49198 4.362 9.72809 4.59763 10.0193 4.59763H12.656V10.2506C12.4295 10.5181 10.6106 12.6659 10.4141 12.898C10.257 13.0848 10.144 13.3089 10.0872 13.546L9.59716 15.5934C9.55079 15.7872 9.61812 15.9906 9.77112 16.1188C9.92426 16.247 10.1367 16.2777 10.3198 16.1985L12.2552 15.3613C12.4005 15.2984 12.536 15.2131 12.656 15.1104V16.7714ZM11.4017 13.3624L12.2095 14.0388L12.0299 14.2511C11.9776 14.3134 11.9104 14.3634 11.8357 14.3957L10.8681 14.8143L11.1131 13.7906C11.1321 13.7115 11.1697 13.6369 11.2209 13.576L11.4017 13.3624ZM12.8898 13.2346L12.0824 12.5585C12.1643 12.4618 14.814 9.33279 14.9972 9.11643L15.8029 9.79112L12.8898 13.2346ZM16.8226 8.58593L16.4834 8.98694L15.678 8.31256L16.0184 7.91061C16.2043 7.68947 16.5355 7.66064 16.7566 7.84574C16.982 8.03445 17.0068 8.3668 16.8226 8.58593Z" fill="#C6C6C5"/>
</g>
</g>
<g id="Group_3">
<g id="Group_4">
<path id="Vector_2" d="M7.91005 3.54395H2.63672C2.34548 3.54395 2.10938 3.77957 2.10938 4.0702C2.10938 4.36083 2.34548 4.59645 2.63672 4.59645H7.91005C8.20128 4.59645 8.43739 4.36083 8.43739 4.0702C8.43739 3.77957 8.20128 3.54395 7.91005 3.54395Z" fill="#C6C6C5"/>
</g>
</g>
<g id="Group_5">
<g id="Group_6">
<path id="Vector_3" d="M11.074 6.7373H2.63672C2.34548 6.7373 2.10938 6.97293 2.10938 7.26356C2.10938 7.55419 2.34548 7.78981 2.63672 7.78981H11.074C11.3653 7.78981 11.6014 7.55419 11.6014 7.26356C11.6014 6.97293 11.3653 6.7373 11.074 6.7373Z" fill="#C6C6C5"/>
</g>
</g>
<g id="Group_7">
<g id="Group_8">
<path id="Vector_4" d="M11.074 9.89453H2.63672C2.34548 9.89453 2.10938 10.1302 2.10938 10.4208C2.10938 10.7114 2.34548 10.947 2.63672 10.947H11.074C11.3653 10.947 11.6014 10.7114 11.6014 10.4208C11.6014 10.1301 11.3653 9.89453 11.074 9.89453Z" fill="#C6C6C5"/>
</g>
</g>
<g id="Group_9">
<g id="Group_10">
<path id="Vector_5" d="M7.91005 13.0518H2.63672C2.34548 13.0518 2.10938 13.2874 2.10938 13.578C2.10938 13.8686 2.34548 14.1043 2.63672 14.1043H7.91005C8.20128 14.1043 8.43739 13.8686 8.43739 13.578C8.43739 13.2874 8.20128 13.0518 7.91005 13.0518Z" fill="#C6C6C5"/>
</g>
</g>
</g>
<defs>
<clipPath id="clip0">
<rect width="18" height="17.9628" fill="white" transform="translate(0 0.386719)"/>
</clipPath>
</defs>
</svg>
