<svg width="19" height="20" viewBox="0 0 19 20" fill="none" xmlns="http://www.w3.org/2000/svg">
<path d="M12.8852 7.6451C12.9653 7.57024 13.0299 7.48029 13.0753 7.3804C13.1207 7.2805 13.146 7.17262 13.1499 7.0629C13.1537 6.95319 13.136 6.84379 13.0976 6.74096C13.0593 6.63812 13.0011 6.54387 12.9265 6.46357C12.8518 6.38327 12.7622 6.31851 12.6625 6.27297C12.5629 6.22743 12.4553 6.20202 12.3459 6.19818C12.2365 6.19433 12.1274 6.21214 12.0249 6.25058C11.9224 6.28901 11.8284 6.34733 11.7483 6.42219L9.30936 8.7025L7.03547 6.25585C6.88332 6.09958 6.67623 6.00923 6.45849 6.00413C6.24076 5.99904 6.02969 6.07961 5.87044 6.2286C5.71119 6.3776 5.61642 6.58317 5.6064 6.80135C5.59639 7.01953 5.67192 7.23297 5.81684 7.39601L8.09073 9.84182L5.65097 12.1221C5.56807 12.1962 5.50077 12.2862 5.45303 12.3868C5.40529 12.4873 5.37806 12.5964 5.37295 12.7077C5.36784 12.8189 5.38496 12.9301 5.42328 13.0346C5.46161 13.1391 5.52038 13.2349 5.59613 13.3163C5.67189 13.3978 5.76311 13.4632 5.86444 13.5088C5.96576 13.5544 6.07515 13.5792 6.18617 13.5818C6.2972 13.5844 6.40762 13.5647 6.51095 13.5239C6.61429 13.4831 6.70845 13.422 6.78791 13.3442L9.22684 11.0647L11.5007 13.5106C11.5742 13.5952 11.6638 13.6642 11.7644 13.7134C11.865 13.7626 11.9744 13.7909 12.0861 13.7968C12.1978 13.8027 12.3096 13.7859 12.4148 13.7475C12.5199 13.7092 12.6163 13.65 12.6981 13.5734C12.7799 13.4969 12.8456 13.4047 12.8911 13.3022C12.9366 13.1997 12.9611 13.089 12.9631 12.9769C12.9651 12.8647 12.9445 12.7532 12.9027 12.6492C12.8608 12.5451 12.7984 12.4506 12.7194 12.3712L10.4463 9.92541L12.8852 7.6451Z" fill="#CE4346"/>
<path fill-rule="evenodd" clip-rule="evenodd" d="M0.0986328 9.88328C0.0986328 4.80524 4.20382 0.688477 9.26758 0.688477C14.3313 0.688477 18.4365 4.80524 18.4365 9.88328C18.4365 14.9613 14.3313 19.0781 9.26758 19.0781C4.20382 19.0781 0.0986328 14.9613 0.0986328 9.88328ZM9.26758 17.4063C8.28242 17.4063 7.30691 17.2117 6.39674 16.8336C5.48657 16.4556 4.65957 15.9014 3.96296 15.2029C3.26635 14.5043 2.71376 13.675 2.33676 12.7622C1.95976 11.8495 1.76571 10.8712 1.76571 9.88328C1.76571 8.89534 1.95976 7.91708 2.33676 7.00435C2.71376 6.09161 3.26635 5.26228 3.96296 4.5637C4.65957 3.86512 5.48657 3.31098 6.39674 2.93292C7.30691 2.55485 8.28242 2.36026 9.26758 2.36026C11.2572 2.36026 13.1653 3.15286 14.5722 4.5637C15.9791 5.97454 16.7694 7.88805 16.7694 9.88328C16.7694 11.8785 15.9791 13.792 14.5722 15.2029C13.1653 16.6137 11.2572 17.4063 9.26758 17.4063Z" fill="#CE4346"/>
</svg>
