<svg width="29" height="41" viewBox="0 0 29 41" fill="none" xmlns="http://www.w3.org/2000/svg">
<path d="M28.0001 38.6972H0.316406V0.327148H21.7715L28.0001 6.60598V38.6972Z" fill="#E3E4D8"/>
<path d="M22.6191 0.327148V6.46631H28.0021L22.6191 0.327148Z" fill="#D0CEBD"/>
<path d="M0.316406 27.9541H28.0001V41.0001H0.316406V27.9541Z" fill="#B53438"/>
<path d="M4.5165 38.7502C4.13021 38.7502 3.81641 38.4373 3.81641 38.0518V31.0658C3.81641 30.68 4.13021 30.3672 4.5165 30.3672C4.90309 30.3672 5.21659 30.68 5.21659 31.0658V38.0518C5.21659 38.4373 4.90309 38.7502 4.5165 38.7502Z" fill="white"/>
<path d="M24.1171 31.7645H19.9169C19.5306 31.7645 19.2168 31.4513 19.2168 31.0658C19.2168 30.68 19.5306 30.3672 19.9169 30.3672H24.1171C24.5037 30.3672 24.8172 30.68 24.8172 31.0658C24.8172 31.4513 24.5037 31.7645 24.1171 31.7645Z" fill="white"/>
<path d="M24.1171 35.2566H19.9169C19.5306 35.2566 19.2168 34.9438 19.2168 34.558C19.2168 34.1725 19.5306 33.8594 19.9169 33.8594H24.1171C24.5037 33.8594 24.8172 34.1725 24.8172 34.558C24.8172 34.9438 24.5037 35.2566 24.1171 35.2566Z" fill="white"/>
<path d="M19.9169 38.7502C19.5306 38.7502 19.2168 38.4373 19.2168 38.0518V31.0658C19.2168 30.68 19.5306 30.3672 19.9169 30.3672C20.3035 30.3672 20.617 30.68 20.617 31.0658V38.0518C20.617 38.4373 20.3035 38.7502 19.9169 38.7502Z" fill="white"/>
<path d="M13.6874 7.72565C13.6187 7.74822 12.7572 8.95034 13.7548 9.96752C14.419 8.49332 13.7178 7.71625 13.6874 7.72565ZM14.1124 13.6256C13.6116 15.3506 12.9511 17.2128 12.2412 18.8986C13.7029 18.3335 15.2933 17.8398 16.7858 17.4906C15.8416 16.3975 14.8978 15.0324 14.1124 13.6256ZM19.3386 18.2137C19.9087 18.6507 20.0476 18.8717 20.4214 18.8717C20.5848 18.8717 21.0517 18.8648 21.2673 18.5645C21.372 18.4184 21.4127 18.325 21.428 18.2761C21.3425 18.23 21.2279 18.1388 20.6059 18.1388C20.252 18.1388 19.8084 18.1542 19.3386 18.2137ZM9.79801 21.3113C8.30241 22.148 7.69317 22.836 7.64967 23.2241C7.64253 23.2887 7.62357 23.4573 7.95072 23.7065C8.05542 23.6733 8.66404 23.3968 9.79801 21.3113ZM7.93518 24.8845C7.69161 24.8845 7.45798 24.8058 7.25853 24.6572C6.5303 24.1118 6.43212 23.5059 6.47841 23.0931C6.60548 21.959 8.01379 20.7703 10.6657 19.5597C11.718 17.2617 12.7193 14.4303 13.3161 12.0649C12.6184 10.5506 11.9392 8.5861 12.4335 7.43351C12.6069 7.02977 12.824 6.71976 13.227 6.5856C13.387 6.53325 13.7899 6.4668 13.9381 6.4668C14.3053 6.4668 14.658 6.90878 14.8276 7.19622C15.1435 7.72973 15.1451 8.35101 15.0951 8.95034C15.0466 9.53244 14.9484 10.1114 14.8354 10.6838C14.7527 11.1044 14.6592 11.5232 14.5595 11.9404C15.5024 13.8804 16.8377 15.8578 18.1183 17.2113C19.036 17.0464 19.8252 16.9627 20.4683 16.9627C21.5628 16.9627 22.2276 17.2169 22.4979 17.7404C22.7229 18.1739 22.63 18.6814 22.2248 19.2466C21.8353 19.7898 21.299 20.0766 20.6721 20.0766C19.8202 20.0766 18.8304 19.5412 17.7253 18.4836C15.7404 18.8974 13.4227 19.6346 11.549 20.4509C10.964 21.6875 10.4038 22.6837 9.88159 23.4147C9.16609 24.4177 8.54753 24.8845 7.93518 24.8845Z" fill="#B53438"/>
<path d="M6.85373 35.6276H4.83501C4.46373 35.6276 4.16211 35.3269 4.16211 34.9561V30.9274C4.16211 30.5566 4.46373 30.2559 4.83501 30.2559H6.85373C8.33799 30.2559 9.54505 31.4604 9.54505 32.9419C9.54505 34.4231 8.33799 35.6276 6.85373 35.6276ZM5.50792 34.2846H6.85373C7.59571 34.2846 8.19924 33.6823 8.19924 32.9419C8.19924 32.2012 7.59571 31.5989 6.85373 31.5989H5.50792V34.2846Z" fill="white"/>
<path d="M12.6221 38.6972H11.853C11.4283 38.6972 11.084 38.3822 11.084 37.994V30.9594C11.084 30.5709 11.4283 30.2559 11.853 30.2559H12.6221C15.1656 30.2559 17.2359 32.1488 17.2359 34.4765C17.2359 36.8043 15.1656 38.6972 12.6221 38.6972ZM12.6221 37.2905H12.6295H12.6221ZM12.6221 31.6629V37.2905C14.3184 37.2905 15.6978 36.0283 15.6978 34.4765C15.6978 32.9248 14.3184 31.6629 12.6221 31.6629Z" fill="white"/>
</svg>
