<svg width="37" height="34" viewBox="0 0 37 34" fill="none" xmlns="http://www.w3.org/2000/svg">
<path d="M35.1252 4.52344H19.262C18.6365 4.52344 18.1289 5.03002 18.1289 5.6542V28.2694C18.1289 28.8936 18.6365 29.4001 19.262 29.4001H35.1252C35.7507 29.4001 36.2583 28.8936 36.2583 28.2694V5.6542C36.2583 5.03002 35.7507 4.52344 35.1252 4.52344Z" fill="#ECEFF1"/>
<path d="M30.5949 24.8778H19.264C18.6385 24.8778 18.1309 24.3712 18.1309 23.747C18.1309 23.1228 18.6385 22.6162 19.264 22.6162H30.5949C31.2204 22.6162 31.728 23.1228 31.728 23.747C31.728 24.3712 31.2204 24.8778 30.5949 24.8778Z" fill="#F57C00"/>
<path d="M24.9291 9.04688C21.7995 9.04688 19.2637 11.5775 19.2637 14.7006C19.2637 17.8238 21.7995 20.3544 24.9291 20.3544C28.0588 20.3544 30.5946 17.8238 30.5946 14.7006H24.9291V9.04688Z" fill="#F57C00"/>
<path d="M27.1953 6.78516V12.439H32.8608C32.8608 9.31584 30.3249 6.78516 27.1953 6.78516Z" fill="#F57C00"/>
<path d="M19.9855 0.261596C19.7271 0.0467536 19.3804 -0.0459677 19.0541 0.0218772L0.924604 3.41412C0.387518 3.51363 0 3.97949 0 4.52451V29.401C0 29.9437 0.387518 30.4118 0.924604 30.5114L19.0541 33.9036C19.1221 33.9172 19.1923 33.924 19.2626 33.924C19.5255 33.924 19.7815 33.8335 19.9855 33.6639C20.2461 33.449 20.3957 33.1279 20.3957 32.7932V1.13227C20.3957 0.795309 20.2461 0.476438 19.9855 0.261596Z" fill="#EF6C00"/>
<path d="M7.93193 24.8785C7.30646 24.8785 6.79883 24.3719 6.79883 23.7477V12.4403C6.79883 11.8161 7.30646 11.3096 7.93193 11.3096H11.3312C13.8308 11.3096 15.8636 13.3381 15.8636 15.8325C15.8636 18.327 13.8308 20.3555 11.3312 20.3555H9.06502V23.7477C9.06502 24.3719 8.55739 24.8785 7.93193 24.8785ZM9.06502 18.094H11.3312C12.5799 18.094 13.5974 17.0786 13.5974 15.8325C13.5974 14.5865 12.5799 13.5711 11.3312 13.5711H9.06502V18.094Z" fill="#FAFAFA"/>
</svg>
