<svg width="16" height="17" viewBox="0 0 16 17" fill="none" xmlns="http://www.w3.org/2000/svg">
<path d="M12.0206 11.9902L14.8759 14.8389L13.9326 15.7803L11.0779 12.9309C10.0157 13.7806 8.69459 14.2428 7.33325 14.2408C4.02125 14.2408 1.33325 11.5584 1.33325 8.25323C1.33325 4.94807 4.02125 2.26562 7.33325 2.26562C10.6453 2.26562 13.3333 4.94807 13.3333 8.25323C13.3352 9.61175 12.8721 10.9302 12.0206 11.9902ZM10.6833 11.4965C11.5293 10.6282 12.0018 9.46434 11.9999 8.25323C11.9999 5.67989 9.91125 3.5962 7.33325 3.5962C4.75459 3.5962 2.66659 5.67989 2.66659 8.25323C2.66659 10.8259 4.75459 12.9103 7.33325 12.9103C8.54687 12.9122 9.71318 12.4406 10.5833 11.5963L10.6833 11.4965Z" fill="#979797"/>
</svg>
