<svg width="20" height="20" viewBox="0 0 20 20" fill="none" xmlns="http://www.w3.org/2000/svg">
<path d="M19.084 11.0058C19.1261 10.6561 19.1471 10.3042 19.1471 9.95197C19.1151 4.88109 15.0017 0.793361 9.95245 0.814617C9.60205 0.818257 9.2522 0.843074 8.90476 0.888951C6.17863 -0.82176 2.58777 0.0108725 0.884381 2.74872C-0.306311 4.66251 -0.2938 7.09371 0.916575 8.99501C0.874831 9.34445 0.853979 9.69608 0.854213 10.048C0.885823 15.1189 4.99885 19.2071 10.0481 19.1862C10.3988 19.1826 10.7489 19.1577 11.0966 19.1119C13.8232 20.8219 17.4138 19.9882 19.1165 17.2499C20.3062 15.3366 20.2935 12.9066 19.084 11.0058ZM10.0348 16.6843C6.80689 16.7011 5.0358 14.7796 5.03081 13.7875V13.3699C5.02571 12.6782 5.57995 12.1132 6.26874 12.1081C6.92183 12.1032 7.46809 12.6051 7.52114 13.2589C7.84624 13.901 8.99955 14.1841 10.0239 14.1774C10.1262 14.1774 12.5184 14.1449 12.5093 12.4939C12.5093 11.6965 11.4483 11.3758 9.70795 10.9415C7.61425 10.4179 5.01164 9.76826 4.99667 7.10353C4.97839 3.73484 7.58927 3.33236 9.54994 3.32148C12.3288 3.30727 14.129 4.4455 14.1381 6.22001C14.1438 6.91181 13.59 7.4772 12.9012 7.48288C12.2717 7.48808 11.737 7.02133 11.6544 6.39456C11.031 5.9509 10.2685 5.74915 9.50835 5.8267C9.01304 5.79405 8.51605 5.85523 8.04326 6.00707C7.78384 6.12313 7.48699 6.35111 7.4903 7.09265C7.4903 7.71226 8.74504 8.05548 10.0679 8.41873C12.2589 9.01916 14.9854 9.76736 14.9995 12.4814C15.0153 15.0158 13.0663 16.6651 10.0355 16.6809L10.0348 16.6843Z" fill="#2196F3"/>
</svg>
