<svg width="232" height="222" viewBox="0 0 232 222" fill="none" xmlns="http://www.w3.org/2000/svg">
<path d="M169.836 165.758C200.352 135.243 200.352 85.7685 169.836 55.2534C139.321 24.7383 89.8466 24.7383 59.3315 55.2534C28.8165 85.7685 28.8165 135.243 59.3315 165.758C89.8466 196.273 139.321 196.273 169.836 165.758Z" fill="#BAF4EE"/>
<path opacity="0.73" d="M178.398 129.297V155.565C175.533 159.628 172.289 163.411 168.709 166.86V129.297V129.209C168.709 129.008 163.94 125.105 160.325 122.131V120.499L164.705 119.357C166.497 118.892 168.393 119.042 170.089 119.784C170.855 120.11 171.646 120.424 172.436 120.675V124.101C174.514 125.695 176.504 127.4 178.398 129.209V129.297Z" fill="#7FD6CB"/>
<path d="M3.38281 10.2676L26.3124 64.0711L43.0672 52.6001L52.7812 66.7067L54.5382 42.9112L74.8197 30.549L3.38281 10.2676Z" fill="#FFB031"/>
<path d="M46.7818 50.0536L26.3121 64.0724L43.0669 52.6014L52.7809 66.708L54.538 42.9125L22.2207 23.6602L46.7818 50.0536Z" fill="#FF9433"/>
<path d="M54.1112 48.7484L22.2207 23.6602L54.538 42.9125L54.1112 48.7484Z" fill="#FF7733"/>
<path d="M53.1961 73.4212C53.0079 72.367 52.782 71.3253 52.5059 70.3087L54.0872 69.8945C54.3633 70.9488 54.6018 72.0532 54.8026 73.1451L53.1961 73.4212Z" fill="#00C8B7"/>
<path d="M34.2067 109.969C31.8754 109.816 29.6231 109.064 27.6679 107.785L28.5716 106.429C30.2912 107.55 32.2712 108.207 34.3196 108.337L34.2067 109.969ZM40.9714 108.638L40.256 107.17C42.1034 106.214 43.7517 104.915 45.113 103.342L46.368 104.434C44.8655 106.158 43.0518 107.585 41.0215 108.638H40.9714ZM23.1372 102.551C22.2237 100.714 21.747 98.6915 21.7441 96.64V96.138V95.7866L23.3631 95.9121V96.2761C23.3631 96.4267 23.3631 96.5648 23.3631 96.7154C23.3759 98.5168 23.8054 100.291 24.6182 101.899L23.1372 102.551ZM86.1151 102.175V100.543C88.2361 100.543 90.4199 100.455 92.6037 100.292L92.7166 101.911C90.4952 102.112 88.2738 102.2 86.1151 102.212V102.175ZM79.5136 101.961L78.4719 101.886C76.4764 101.71 74.7068 101.485 72.9247 101.196L73.2008 99.5894C74.8825 99.8781 76.6521 100.104 78.61 100.255L79.6266 100.342L79.5136 101.961ZM99.2679 101.221L99.042 99.6145C101.138 99.3258 103.297 98.9619 105.455 98.5477L105.769 100.154C103.573 100.606 101.389 100.97 99.2679 101.296V101.221ZM66.4612 99.5769C64.6155 98.9533 62.8302 98.1636 61.1273 97.2174L60.3743 96.7656L61.2151 95.3725L61.9305 95.7992C63.5318 96.6962 65.2123 97.444 66.9507 98.0331L66.4612 99.5769ZM50.221 98.9242L48.8028 98.121C49.8666 96.2665 50.7653 94.3221 51.4886 92.3102L53.0197 92.8624C52.2739 94.9763 51.3371 97.0179 50.221 98.9619V98.9242ZM112.195 98.7485L111.818 97.1672C113.852 96.6777 115.973 96.1129 118.094 95.498L118.545 97.0668C116.399 97.7194 114.253 98.2842 112.195 98.7862V98.7485ZM124.846 95.1466L124.344 93.5903C126.419 92.9293 128.477 92.2307 130.518 91.4944L131.058 93.0255C129 93.7953 126.929 94.5149 124.846 95.1842V95.1466ZM54.9399 93.0004C53.3925 91.8388 51.7746 90.7742 50.0955 89.8126L49.5433 89.524L50.2963 88.0807L50.8736 88.3819C52.613 89.3783 54.2896 90.4806 55.8938 91.6826L54.9399 93.0004ZM25.6724 90.5531L24.5303 89.3859C26.2346 87.8368 28.2954 86.7331 30.5294 86.173L31.0691 87.7042C29.0614 88.2111 27.2085 89.2022 25.6724 90.5908V90.5531ZM43.6069 87.3779C41.753 86.9627 39.8591 86.7523 37.9592 86.7503H37.2564V85.1188C39.5085 85.0658 41.7588 85.2849 43.9583 85.7714L43.6069 87.3779ZM54.7391 86.4115L53.1452 86.1354C53.5122 84.0296 53.7053 81.8972 53.7225 79.7598H55.3416C55.3311 82.0026 55.1296 84.2405 54.7391 86.4491V86.4115Z" fill="#00C8B7"/>
<path d="M137.296 90.7659L136.719 89.2473L139.756 88.0801L140.346 89.5987L137.296 90.7659Z" fill="#00C8B7"/>
<path d="M188.539 130.437C188.127 130.428 187.733 130.263 187.438 129.976C187.142 129.688 186.966 129.3 186.945 128.888C186.925 128.476 187.061 128.071 187.326 127.756C187.592 127.44 187.967 127.237 188.376 127.187C198.25 126.215 207.372 121.484 213.853 113.971C214.136 113.638 214.54 113.431 214.975 113.396C215.411 113.361 215.842 113.5 216.175 113.783C216.508 114.066 216.715 114.469 216.75 114.905C216.786 115.34 216.646 115.772 216.363 116.105C209.341 124.247 199.454 129.375 188.753 130.425L188.539 130.437Z" fill="#00C8B7"/>
<path d="M168.697 129.296L111.994 162.793L55.2917 129.359C55.2856 129.33 55.2856 129.3 55.2917 129.271C55.2917 129.057 58.4669 126.447 63.2361 122.569L63.3616 122.456C79.0245 109.742 111.982 83.7129 111.982 83.7129C111.982 83.7129 144.939 109.742 160.602 122.456C165.447 126.384 168.634 129.045 168.672 129.271C168.681 129.278 168.689 129.287 168.697 129.296Z" fill="#7A4C08"/>
<path d="M135.312 55.9492H74.1286C71.6089 55.9492 69.1923 56.9502 67.4106 58.7319C65.6289 60.5136 64.6279 62.9301 64.6279 65.4499V157.946C64.6263 159.195 64.8708 160.432 65.3475 161.586C65.8242 162.74 66.5238 163.789 67.4062 164.672C68.2886 165.556 69.3365 166.257 70.4899 166.735C71.6434 167.213 72.8799 167.459 74.1286 167.459H150.799C152.048 167.459 153.284 167.213 154.438 166.735C155.591 166.257 156.639 165.556 157.521 164.672C158.404 163.789 159.103 162.74 159.58 161.586C160.057 160.432 160.301 159.195 160.3 157.946V80.9371L135.312 55.9492Z" fill="white"/>
<path d="M135.313 71.4364C135.313 73.9562 136.314 76.3727 138.096 78.1544C139.877 79.9361 142.294 80.9371 144.814 80.9371H160.251L135.263 55.9492L135.313 71.4364Z" fill="#E6E8E8"/>
<path d="M103.585 71.5898H82.4882C80.6167 71.5898 79.0996 73.107 79.0996 74.9784V96.0757C79.0996 97.9471 80.6167 99.4643 82.4882 99.4643H103.585C105.457 99.4643 106.974 97.9471 106.974 96.0757V74.9784C106.974 73.107 105.457 71.5898 103.585 71.5898Z" fill="#82EBE3"/>
<path d="M132.515 107.207H81.8611C81.1377 107.21 80.445 107.5 79.9346 108.013C79.4242 108.526 79.1377 109.22 79.1377 109.943C79.1377 110.665 79.4246 111.358 79.9354 111.869C80.4461 112.38 81.1388 112.666 81.8611 112.666H132.515C133.237 112.666 133.93 112.38 134.44 111.869C134.951 111.358 135.238 110.665 135.238 109.943C135.238 109.22 134.951 108.526 134.441 108.013C133.931 107.5 133.238 107.21 132.515 107.207Z" fill="#D9DBDB"/>
<path d="M132.515 120.797H81.8611C81.1388 120.797 80.4461 121.084 79.9354 121.595C79.4246 122.105 79.1377 122.798 79.1377 123.52C79.1377 124.243 79.4246 124.935 79.9354 125.446C80.4461 125.957 81.1388 126.244 81.8611 126.244H132.515C133.237 126.244 133.93 125.957 134.44 125.446C134.951 124.935 135.238 124.243 135.238 123.52C135.238 122.798 134.951 122.105 134.44 121.595C133.93 121.084 133.237 120.797 132.515 120.797Z" fill="#D9DBDB"/>
<path d="M109.51 133.926H81.8992C81.1769 133.926 80.4842 134.213 79.9735 134.723C79.4627 135.234 79.1758 135.927 79.1758 136.649C79.1758 137.372 79.4627 138.064 79.9735 138.575C80.4842 139.086 81.1769 139.373 81.8992 139.373H109.51C110.232 139.373 110.925 139.086 111.436 138.575C111.947 138.064 112.234 137.372 112.234 136.649C112.234 135.927 111.947 135.234 111.436 134.723C110.925 134.213 110.232 133.926 109.51 133.926Z" fill="#D9DBDB"/>
<path d="M168.709 129.297V183.69C168.702 185.522 167.972 187.277 166.676 188.573C165.381 189.868 163.626 190.599 161.794 190.606H62.1939C60.3642 190.599 58.6117 189.867 57.3203 188.571C56.0288 187.275 55.3037 185.52 55.3037 183.69V129.297L112.006 162.794L168.709 129.297Z" fill="#FFB031"/>
<path d="M166.79 188.432L130.293 151.936L112.007 162.792L93.7337 151.936L57.2246 188.432C57.8679 189.119 58.6455 189.666 59.5091 190.039C60.3727 190.413 61.3039 190.605 62.2448 190.603H161.845C162.773 190.593 163.689 190.395 164.539 190.022C165.388 189.649 166.154 189.108 166.79 188.432Z" fill="#FF9433"/>
<path d="M180.156 54.6208C174.263 55.2126 168.628 57.3322 163.806 60.7698C158.984 64.2075 155.142 68.8442 152.662 74.2215C150.181 79.5988 149.146 85.5305 149.661 91.43C150.175 97.3296 152.221 102.993 155.595 107.86C156.377 108.999 156.86 110.317 156.998 111.693C157.137 113.068 156.926 114.456 156.385 115.729L153.699 122.217L164.694 119.356C166.49 118.891 168.389 119.042 170.09 119.782C174.868 121.844 180.055 122.783 185.252 122.528C190.449 122.273 195.519 120.831 200.072 118.312C204.625 115.793 208.54 112.265 211.518 107.997C214.495 103.73 216.455 98.837 217.248 93.6942C218.04 88.5515 217.644 83.2956 216.089 78.3298C214.534 73.3641 211.863 68.8206 208.279 65.048C204.695 61.2754 200.295 58.374 195.415 56.5664C190.536 54.7589 185.307 54.0933 180.131 54.6208H180.156Z" fill="#00C8B7"/>
<path d="M184.448 105.726L186.318 103.856C186.318 103.856 184.825 100.354 191.062 94.4431C194.828 90.929 195.606 87.5153 195.305 84.7291C195.049 82.5542 194.067 80.5291 192.519 78.9806C190.97 77.4321 188.945 76.4507 186.77 76.1948C183.984 75.8936 180.583 76.7345 177.056 80.4368C171.158 86.712 167.643 85.1809 167.643 85.1809L165.773 87.0634L184.448 105.726Z" fill="white"/>
<path d="M170.002 94.293C169.272 95.2859 168.922 96.5073 169.015 97.7361C169.107 98.9649 169.637 100.12 170.508 100.992C171.378 101.864 172.532 102.396 173.761 102.491C174.99 102.586 176.212 102.238 177.206 101.509L170.002 94.293Z" fill="white"/>
<path d="M196.646 78.4661L195.479 79.6333C194.574 78.1841 193.345 76.9641 191.89 76.069L193.069 74.8892C193.304 74.6544 193.583 74.4681 193.89 74.341C194.197 74.2139 194.526 74.1484 194.858 74.1484C195.19 74.1484 195.519 74.2139 195.826 74.341C196.133 74.4681 196.411 74.6544 196.646 74.8892C196.881 75.1241 197.067 75.4029 197.195 75.7098C197.322 76.0166 197.387 76.3455 197.387 76.6776C197.387 77.0098 197.322 77.3387 197.195 77.6455C197.067 77.9524 196.881 78.2312 196.646 78.4661Z" fill="white"/>
<path d="M182.679 54.4688C187.01 55.7747 190.982 58.0621 194.286 61.1532C197.59 64.2444 200.136 68.0558 201.727 72.2912C203.318 76.5267 203.91 81.072 203.458 85.5736C203.006 90.0753 201.522 94.4121 199.121 98.2467C196.72 102.081 193.467 105.311 189.614 107.683C185.762 110.056 181.414 111.508 176.91 111.927C172.405 112.345 167.864 111.719 163.64 110.097C159.417 108.475 155.624 105.901 152.558 102.574C153.402 104.417 154.401 106.185 155.545 107.858C156.327 108.997 156.81 110.316 156.948 111.691C157.087 113.067 156.876 114.455 156.335 115.727L153.649 122.216L164.644 119.354C166.44 118.89 168.34 119.04 170.04 119.781C174.723 121.825 179.805 122.789 184.911 122.603C190.016 122.416 195.014 121.084 199.535 118.703C204.056 116.323 207.983 112.957 211.027 108.853C214.07 104.749 216.151 100.013 217.116 94.9962C218.081 89.9791 217.905 84.8092 216.6 79.8694C215.296 74.9296 212.898 70.3464 209.582 66.4593C206.267 62.5722 202.119 59.4807 197.447 57.4138C192.775 55.3469 187.697 54.3575 182.591 54.5189L182.679 54.4688Z" fill="#08B29D"/>
<path d="M5.32874 26.2188L12.7711 43.2874C12.8603 43.495 12.9076 43.7182 12.9104 43.9442C12.9133 44.1701 12.8715 44.3944 12.7876 44.6042C12.7037 44.814 12.5792 45.0052 12.4213 45.1669C12.2635 45.3286 12.0753 45.4576 11.8675 45.5465L11.6039 45.6594C11.3955 45.7482 11.1716 45.7949 10.9451 45.7968C10.7186 45.7988 10.4939 45.756 10.284 45.6709C10.074 45.5857 9.88302 45.46 9.72185 45.3008C9.56069 45.1416 9.43257 44.9521 9.34486 44.7432L2.17859 27.5743C2.08757 27.3606 2.04077 27.1308 2.04102 26.8985C2.04126 26.6663 2.08855 26.4365 2.18003 26.223C2.27151 26.0096 2.40528 25.8169 2.57328 25.6565C2.74128 25.4962 2.94003 25.3715 3.15752 25.2901C3.56978 25.1415 4.02304 25.1547 4.42595 25.3271C4.82886 25.4994 5.15146 25.8181 5.32874 26.2188Z" fill="#FFB031"/>
<path d="M34.4583 146.328C33.3755 146.328 32.3171 146.649 31.4169 147.251C30.5168 147.853 29.8154 148.708 29.4017 149.709C28.9879 150.71 28.8802 151.81 29.0924 152.872C29.3046 153.934 29.827 154.909 30.5935 155.674C31.36 156.439 32.3362 156.959 33.3985 157.168C34.4608 157.378 35.5614 157.268 36.561 156.852C37.5607 156.436 38.4144 155.733 39.0142 154.831C39.6139 153.93 39.9328 152.87 39.9303 151.788C39.9303 151.07 39.7886 150.359 39.5135 149.695C39.2384 149.032 38.8351 148.43 38.3268 147.923C37.8185 147.416 37.2152 147.014 36.5514 146.74C35.8876 146.466 35.1763 146.326 34.4583 146.328ZM34.4583 154.009C34.0189 154.009 33.5894 153.879 33.2241 153.635C32.8588 153.391 32.5741 153.044 32.406 152.638C32.2378 152.232 32.1938 151.785 32.2796 151.354C32.3653 150.923 32.5768 150.527 32.8875 150.217C33.1982 149.906 33.594 149.695 34.0249 149.609C34.4558 149.523 34.9025 149.567 35.3084 149.735C35.7143 149.903 36.0612 150.188 36.3053 150.553C36.5494 150.919 36.6797 151.348 36.6797 151.788C36.6814 152.08 36.6251 152.369 36.514 152.64C36.403 152.91 36.2394 153.155 36.0328 153.362C35.8262 153.569 35.5806 153.732 35.3104 153.843C35.0401 153.954 34.7505 154.011 34.4583 154.009Z" fill="#BAF4EE"/>
<path d="M180.984 168.453C179.901 168.453 178.842 168.774 177.942 169.376C177.042 169.978 176.341 170.833 175.927 171.834C175.513 172.835 175.406 173.935 175.618 174.997C175.83 176.059 176.352 177.034 177.119 177.799C177.885 178.564 178.862 179.084 179.924 179.293C180.986 179.503 182.087 179.393 183.086 178.977C184.086 178.561 184.94 177.858 185.54 176.956C186.139 176.055 186.458 174.995 186.456 173.913C186.452 172.463 185.874 171.075 184.849 170.051C183.823 169.028 182.433 168.453 180.984 168.453ZM180.984 176.134C180.544 176.136 180.113 176.008 179.746 175.766C179.379 175.523 179.092 175.177 178.922 174.771C178.752 174.366 178.707 173.919 178.791 173.487C178.875 173.055 179.086 172.658 179.396 172.346C179.706 172.034 180.102 171.822 180.533 171.735C180.964 171.648 181.412 171.691 181.818 171.859C182.225 172.027 182.573 172.312 182.817 172.677C183.062 173.043 183.193 173.473 183.193 173.913C183.194 174.204 183.138 174.492 183.028 174.762C182.918 175.031 182.755 175.276 182.55 175.483C182.345 175.689 182.101 175.853 181.832 175.965C181.563 176.076 181.275 176.134 180.984 176.134Z" fill="#BAF4EE"/>
<path d="M225.713 83.5235C224.884 83.5235 224.074 83.7693 223.384 84.2299C222.695 84.6905 222.158 85.3452 221.841 86.1112C221.523 86.8771 221.44 87.7199 221.602 88.5331C221.764 89.3462 222.163 90.0931 222.749 90.6794C223.335 91.2656 224.082 91.6648 224.896 91.8266C225.709 91.9883 226.552 91.9053 227.317 91.588C228.083 91.2708 228.738 90.7335 229.199 90.0441C229.659 89.3548 229.905 88.5444 229.905 87.7153C229.907 87.1643 229.799 86.6185 229.589 86.1092C229.379 85.5999 229.071 85.1371 228.681 84.7475C228.292 84.358 227.829 84.0492 227.319 83.8392C226.81 83.6291 226.264 83.5218 225.713 83.5235ZM225.713 89.4096C225.375 89.4121 225.043 89.3138 224.76 89.1272C224.478 88.9406 224.257 88.6741 224.126 88.3617C223.996 88.0493 223.961 87.7051 224.026 87.3729C224.092 87.0406 224.254 86.7353 224.494 86.4959C224.733 86.2564 225.039 86.0936 225.371 86.0281C225.703 85.9627 226.047 85.9975 226.36 86.1283C226.672 86.259 226.939 86.4797 227.125 86.7623C227.312 87.0449 227.41 87.3766 227.408 87.7153C227.404 88.1636 227.225 88.5927 226.908 88.9097C226.591 89.2267 226.162 89.4063 225.713 89.4096Z" fill="#BAF4EE"/>
<path d="M152.005 16.5569C151.131 16.5668 150.278 16.8354 149.556 17.3287C148.834 17.8221 148.274 18.5182 147.947 19.3292C147.62 20.1403 147.54 21.0301 147.717 21.8865C147.895 22.7429 148.322 23.5276 148.945 24.1416C149.568 24.7557 150.358 25.1717 151.217 25.3372C152.076 25.5027 152.964 25.4103 153.771 25.0716C154.577 24.7329 155.265 24.1632 155.748 23.4341C156.231 22.705 156.488 21.8493 156.486 20.9747C156.484 20.3897 156.366 19.8108 156.14 19.2715C155.913 18.7321 155.582 18.2429 155.166 17.8322C154.749 17.4215 154.255 17.0973 153.713 16.8785C153.17 16.6596 152.59 16.5503 152.005 16.5569ZM152.005 22.8321C151.65 22.8346 151.301 22.7315 151.005 22.5358C150.708 22.3401 150.476 22.0607 150.338 21.733C150.2 21.4052 150.163 21.044 150.231 20.695C150.299 20.3461 150.469 20.0251 150.719 19.7729C150.97 19.5206 151.289 19.3484 151.638 19.2782C151.986 19.2079 152.348 19.2427 152.676 19.3782C153.005 19.5136 153.286 19.7436 153.484 20.039C153.682 20.3344 153.787 20.6819 153.787 21.0374C153.771 21.5003 153.577 21.939 153.244 22.2617C152.912 22.5845 152.468 22.7664 152.005 22.7694V22.8321Z" fill="#BAF4EE"/>
<path d="M10.412 119.695C9.4906 119.695 8.58989 119.969 7.82391 120.481C7.05793 120.993 6.46113 121.721 6.10909 122.573C5.75705 123.424 5.66557 124.361 5.84625 125.265C6.02693 126.168 6.47164 126.998 7.12408 127.648C7.77652 128.299 8.60735 128.742 9.51139 128.92C10.4154 129.098 11.352 129.004 12.2026 128.65C13.0532 128.295 13.7795 127.697 14.2896 126.929C14.7998 126.162 15.0707 125.26 15.0683 124.339C15.0649 123.106 14.5729 121.925 13.7001 121.055C12.8272 120.184 11.6448 119.695 10.412 119.695Z" fill="#BAF4EE"/>
<path d="M197.123 135.094C196.453 135.094 195.798 135.293 195.24 135.665C194.683 136.037 194.249 136.566 193.992 137.186C193.736 137.805 193.669 138.486 193.799 139.143C193.93 139.801 194.253 140.405 194.727 140.878C195.201 141.352 195.805 141.675 196.462 141.806C197.119 141.937 197.801 141.87 198.42 141.613C199.039 141.357 199.568 140.922 199.941 140.365C200.313 139.808 200.512 139.153 200.512 138.482C200.513 138.037 200.427 137.596 200.257 137.184C200.087 136.772 199.838 136.398 199.523 136.083C199.208 135.768 198.834 135.518 198.422 135.348C198.01 135.179 197.568 135.092 197.123 135.094Z" fill="#BAF4EE"/>
<path d="M85.0357 17.9473C84.0577 17.9473 83.1016 18.2373 82.2885 18.7806C81.4753 19.324 80.8415 20.0963 80.4672 20.9998C80.093 21.9034 79.995 22.8976 80.1858 23.8568C80.3766 24.816 80.8476 25.6971 81.5391 26.3887C82.2307 27.0802 83.1118 27.5512 84.071 27.742C85.0302 27.9328 86.0244 27.8349 86.928 27.4606C87.8316 27.0863 88.6038 26.4525 89.1472 25.6394C89.6905 24.8262 89.9805 23.8701 89.9805 22.8921C89.9822 22.2423 89.8554 21.5986 89.6075 20.9979C89.3596 20.3972 88.9954 19.8514 88.5359 19.3919C88.0764 18.9324 87.5306 18.5682 86.9299 18.3203C86.3293 18.0724 85.6855 17.9456 85.0357 17.9473Z" fill="#BAF4EE"/>
<path d="M111.518 197.143C110.802 197.14 110.102 197.35 109.506 197.746C108.91 198.141 108.445 198.705 108.169 199.365C107.894 200.025 107.821 200.753 107.959 201.455C108.097 202.157 108.44 202.802 108.945 203.308C109.45 203.815 110.094 204.161 110.795 204.301C111.497 204.442 112.224 204.371 112.885 204.098C113.547 203.824 114.112 203.361 114.51 202.767C114.907 202.172 115.12 201.473 115.12 200.757C115.121 200.283 115.029 199.813 114.849 199.375C114.669 198.936 114.404 198.538 114.069 198.202C113.734 197.866 113.337 197.6 112.899 197.418C112.461 197.236 111.992 197.143 111.518 197.143Z" fill="#BAF4EE"/>
<path d="M181.298 37.0234C180.461 37.0234 179.644 37.2715 178.948 37.7362C178.253 38.201 177.71 38.8615 177.39 39.6344C177.07 40.4072 176.986 41.2576 177.15 42.0781C177.313 42.8985 177.716 43.6521 178.307 44.2436C178.899 44.8351 179.652 45.2379 180.473 45.4011C181.293 45.5643 182.144 45.4806 182.916 45.1605C183.689 44.8403 184.35 44.2982 184.815 43.6027C185.279 42.9072 185.527 42.0894 185.527 41.2529C185.527 40.1312 185.082 39.0554 184.289 38.2622C183.495 37.4691 182.42 37.0234 181.298 37.0234Z" fill="#BAF4EE"/>
<path d="M31.4204 74.7393C32.7513 74.7393 33.8301 73.6604 33.8301 72.3296C33.8301 70.9988 32.7513 69.9199 31.4204 69.9199C30.0896 69.9199 29.0107 70.9988 29.0107 72.3296C29.0107 73.6604 30.0896 74.7393 31.4204 74.7393Z" fill="#BAF4EE"/>
<path d="M227.181 62.3887C226.369 62.3887 225.576 62.6294 224.901 63.0803C224.226 63.5313 223.7 64.1722 223.39 64.9222C223.079 65.6721 222.998 66.4972 223.156 67.2933C223.314 68.0894 223.705 68.8207 224.279 69.3946C224.853 69.9686 225.584 70.3594 226.38 70.5178C227.177 70.6762 228.002 70.5949 228.752 70.2843C229.502 69.9736 230.143 69.4476 230.593 68.7727C231.044 68.0978 231.285 67.3044 231.285 66.4927C231.287 65.9533 231.182 65.4188 230.976 64.9202C230.77 64.4215 230.468 63.9684 230.087 63.587C229.705 63.2056 229.252 62.9034 228.754 62.6977C228.255 62.4921 227.721 62.387 227.181 62.3887Z" fill="#BAF4EE"/>
<path d="M8.10156 89.4101C9.55022 89.4101 10.7246 88.2358 10.7246 86.7871C10.7246 85.3384 9.55022 84.1641 8.10156 84.1641C6.6529 84.1641 5.47852 85.3384 5.47852 86.7871C5.47852 88.2358 6.6529 89.4101 8.10156 89.4101Z" fill="#BAF4EE"/>
<path d="M6.2316 58.9119L7.8757 57.2678C8.01167 57.131 8.11936 56.9688 8.19264 56.7903C8.26591 56.6119 8.30333 56.4208 8.30275 56.228C8.30217 56.0351 8.26359 55.8442 8.18925 55.6662C8.1149 55.4883 8.00623 55.3267 7.86943 55.1907C7.73264 55.0547 7.57039 54.947 7.39198 54.8738C7.21356 54.8005 7.02246 54.7631 6.82959 54.7637C6.63671 54.7643 6.44584 54.8028 6.26787 54.8772C6.0899 54.9515 5.9283 55.0602 5.79233 55.197L4.14823 56.8411L2.50413 55.197C2.22334 54.9554 1.8616 54.8288 1.49142 54.8427C1.12124 54.8565 0.769969 55.0098 0.508028 55.2717C0.246087 55.5336 0.0928389 55.8849 0.0789829 56.2551C0.0651269 56.6253 0.191696 56.987 0.433322 57.2678L2.07742 58.9119L0.433322 60.556C0.157051 60.8306 0.00118351 61.2037 6.71224e-06 61.5933C-0.00117009 61.9828 0.152434 62.3568 0.427041 62.6331C0.701648 62.9094 1.07475 63.0652 1.46428 63.0664C1.85381 63.0676 2.22786 62.914 2.50413 62.6394L4.14823 60.9953L5.79233 62.6394C6.0686 62.9156 6.44331 63.0708 6.83401 63.0708C7.22472 63.0708 7.59943 62.9156 7.8757 62.6394C8.15197 62.3631 8.30717 61.9884 8.30717 61.5977C8.30717 61.207 8.15197 60.8323 7.8757 60.556L6.2316 58.9119Z" fill="#BAF4EE"/>
<path d="M200.412 159.466L201.805 158.073C201.986 157.831 202.074 157.532 202.053 157.231C202.031 156.929 201.902 156.646 201.688 156.432C201.475 156.219 201.191 156.089 200.89 156.068C200.588 156.046 200.289 156.134 200.048 156.316L198.68 157.771L197.287 156.378C197.052 156.148 196.737 156.02 196.408 156.02C196.08 156.02 195.764 156.148 195.53 156.378C195.3 156.613 195.171 156.928 195.171 157.257C195.171 157.585 195.3 157.901 195.53 158.135L196.923 159.528L195.53 160.922C195.3 161.156 195.171 161.472 195.171 161.8C195.171 162.129 195.3 162.444 195.53 162.679C195.764 162.909 196.08 163.037 196.408 163.037C196.737 163.037 197.052 162.909 197.287 162.679L198.68 161.286L200.073 162.679C200.181 162.822 200.318 162.941 200.476 163.027C200.634 163.114 200.809 163.165 200.988 163.177C201.167 163.19 201.347 163.164 201.516 163.101C201.684 163.039 201.837 162.94 201.964 162.813C202.092 162.686 202.19 162.533 202.253 162.364C202.316 162.196 202.342 162.016 202.329 161.837C202.316 161.657 202.265 161.483 202.179 161.325C202.093 161.167 201.974 161.029 201.83 160.922L200.412 159.466Z" fill="#BAF4EE"/>
</svg>
