<svg width="236" height="153" viewBox="0 0 236 153" fill="none" xmlns="http://www.w3.org/2000/svg">
<path d="M79.6001 152.663H10.3142C10.3142 152.663 8.91002 132.133 17.219 131.9C25.528 131.667 24.5922 140.998 35.0089 128.167C45.4255 115.336 58.0651 116.034 59.7035 123.618C61.3419 131.202 56.5438 137.266 65.3212 135.399C74.0986 133.533 86.7391 138.433 79.6001 152.663Z" fill="#6C63FF"/>
<path d="M43.7879 152.668L43.5537 152.658C44.0992 139.142 46.9392 130.457 49.2225 125.551C51.7056 120.225 54.0977 118.069 54.1219 118.049L54.2771 118.223C54.2538 118.244 51.8887 120.378 49.426 125.669C47.1557 130.553 44.3315 139.201 43.7879 152.668Z" fill="#F2F2F2"/>
<path d="M68.8626 152.696L68.6377 152.631C70.3802 146.903 73.5212 141.694 77.7794 137.473L77.9364 137.645C73.7099 141.837 70.5923 147.009 68.8626 152.696Z" fill="#F2F2F2"/>
<path d="M21.2277 152.678L20.9953 152.646C21.7508 147.578 20.9517 142.401 18.7027 137.795C17.7802 135.862 16.5591 134.087 15.084 132.532L15.2457 132.363C16.7403 133.937 17.9777 135.735 18.9128 137.692C21.1824 142.341 21.9893 147.564 21.2277 152.678Z" fill="#F2F2F2"/>
<path d="M89.003 152.976H2.8408L2.82129 152.685C2.77203 151.962 1.67266 134.891 7.22158 128.8C7.77213 128.157 8.45173 127.636 9.21662 127.27C9.98152 126.904 10.8148 126.702 11.6628 126.676C14.4182 126.632 17.1185 127.447 19.3863 129.008C22.8424 131.051 25.1248 132.401 33.4254 122.176C42.4175 111.098 52.1195 108.716 57.6972 110.042C59.3603 110.363 60.8925 111.163 62.1038 112.344C63.3151 113.524 64.1524 115.033 64.5119 116.683C65.0294 119.514 65.128 122.405 64.8046 125.265C64.6187 127.838 64.4673 129.87 65.5276 130.791C66.4123 131.56 68.179 131.629 71.0868 131.01C77.0009 129.753 85.2532 130.825 89.3942 136.163C91.6246 139.034 93.3782 144.249 89.0866 152.803L89.003 152.976ZM3.42906 152.352H88.6155C91.8132 145.886 91.9127 140.423 88.9017 136.545C85.1017 131.652 77.1301 130.364 71.2187 131.622C68.0591 132.293 66.1772 132.183 65.1169 131.262C63.8205 130.137 63.9794 127.967 64.181 125.22C64.4992 122.419 64.4053 119.587 63.9023 116.813C63.5654 115.279 62.7845 113.878 61.6563 112.782C60.5281 111.686 59.1021 110.944 57.555 110.648C52.1557 109.364 42.7241 111.717 33.9152 122.569C25.2726 133.213 22.6705 131.674 19.0694 129.545C16.9049 128.042 14.3202 127.256 11.6823 127.3C10.9187 127.324 10.1686 127.508 9.48039 127.838C8.79217 128.169 8.18102 128.64 7.68624 129.22C2.69676 134.694 3.30639 150.044 3.42906 152.352Z" fill="#CFCCE0"/>
<path d="M174.142 108.987L149.075 104.643C153.555 95.381 155.604 86.2299 153.854 77.252L178.92 81.596C175.022 90.1746 173.377 99.6007 174.142 108.987Z" fill="#F2F2F2"/>
<path d="M172.014 85.5162L159.027 83.2656L158.922 83.8679L171.909 86.1185L172.014 85.5162Z" fill="#3F3D56"/>
<path d="M171.594 87.9244L158.607 85.6738L158.502 86.2761L171.489 88.5267L171.594 87.9244Z" fill="#3F3D56"/>
<path d="M171.173 90.3307L158.187 88.0801L158.081 88.6824L171.068 90.933L171.173 90.3307Z" fill="#3F3D56"/>
<path d="M170.753 92.7389L157.767 90.4883L157.662 91.0906L170.648 93.3412L170.753 92.7389Z" fill="#3F3D56"/>
<path d="M170.333 95.1471L157.347 92.8965L157.242 93.4988L170.228 95.7494L170.333 95.1471Z" fill="#3F3D56"/>
<path d="M169.913 97.5553L156.927 95.3047L156.822 95.907L169.808 98.1576L169.913 97.5553Z" fill="#3F3D56"/>
<path d="M169.493 99.9635L156.507 97.7129L156.402 98.3152L169.388 100.566L169.493 99.9635Z" fill="#3F3D56"/>
<path d="M169.073 102.372L156.087 100.121L155.982 100.723L168.968 102.974L169.073 102.372Z" fill="#3F3D56"/>
<path d="M185.305 117.784L160.238 113.44C164.718 104.178 166.767 95.0268 165.017 86.0488L190.083 90.3928C186.185 98.9715 184.54 108.398 185.305 117.784Z" fill="#F2F2F2"/>
<path d="M183.178 94.3131L170.191 92.0625L170.086 92.6648L183.073 94.9154L183.178 94.3131Z" fill="#3F3D56"/>
<path d="M182.758 96.7213L169.771 94.4707L169.666 95.073L182.653 97.3236L182.758 96.7213Z" fill="#3F3D56"/>
<path d="M182.338 99.1295L169.352 96.8789L169.246 97.4812L182.233 99.7318L182.338 99.1295Z" fill="#3F3D56"/>
<path d="M181.918 101.538L168.932 99.2871L168.827 99.8894L181.813 102.14L181.918 101.538Z" fill="#3F3D56"/>
<path d="M181.497 103.946L168.511 101.695L168.406 102.298L181.392 104.548L181.497 103.946Z" fill="#3F3D56"/>
<path d="M181.077 106.354L168.091 104.104L167.986 104.706L180.972 106.956L181.077 106.354Z" fill="#3F3D56"/>
<path d="M180.656 108.762L167.67 106.512L167.565 107.114L180.551 109.365L180.656 108.762Z" fill="#3F3D56"/>
<path d="M180.237 111.171L167.25 108.92L167.145 109.522L180.131 111.773L180.237 111.171Z" fill="#3F3D56"/>
<path d="M192.138 152.64H147.427L147.419 152.39L145.281 91.5371H194.279L192.138 152.64ZM147.928 152.123H191.636L193.744 92.053H145.82L147.928 152.123Z" fill="#3F3D56"/>
<path d="M189.688 149.371H149.875L147.961 94.8066H191.604L189.688 149.371Z" fill="#3F3D56"/>
<g opacity="0.2">
<path opacity="0.2" d="M158.092 102.809H154.691V144.754H158.092V102.809Z" fill="white"/>
<path opacity="0.2" d="M171.482 102.809H168.082V144.754H171.482V102.809Z" fill="white"/>
<path opacity="0.2" d="M184.873 102.809H181.473V144.754H184.873V102.809Z" fill="white"/>
</g>
<path d="M170.537 67.8218L165.997 74.9824L221.315 109.824L225.855 102.664L170.537 67.8218Z" fill="#3F3D56"/>
<path d="M203.834 76.3829C202.219 75.3644 200.346 74.8289 198.435 74.84C196.525 74.8511 194.657 75.4083 193.055 76.4455C191.453 77.4826 190.183 78.9562 189.396 80.6913C188.608 82.4264 188.337 84.3502 188.614 86.2343L191.261 87.9015C190.596 86.3615 190.442 84.6497 190.823 83.0166C191.205 81.3836 192.1 79.915 193.379 78.8259C194.658 77.7368 196.254 77.0844 197.932 76.9642C199.61 76.8441 201.282 77.2624 202.704 78.158C204.126 79.0537 205.224 80.3795 205.835 81.9415C206.447 83.5035 206.54 85.2196 206.103 86.8385C205.665 88.4575 204.719 89.8943 203.403 90.9385C202.087 91.9828 200.47 92.5797 198.788 92.6419L201.435 94.3091C203.262 93.7505 204.889 92.6813 206.124 91.2284C207.359 89.7755 208.15 87.9999 208.403 86.1124C208.656 84.2249 208.36 82.3048 207.55 80.5798C206.741 78.8549 205.452 77.3977 203.836 76.3811L203.834 76.3829Z" fill="#3F3D56"/>
<path d="M236 152.283H0V152.801H236V152.283Z" fill="#3F3D56"/>
<path d="M124.62 64.3027C124.62 64.3027 134.749 71.8052 130.591 73.1019C126.434 74.3986 121.245 68.7033 121.504 67.15C121.764 65.5967 124.62 64.3027 124.62 64.3027Z" fill="#FFB8B8"/>
<path d="M115.793 54.7285L126.178 64.3029L122.024 68.7016L115.015 63.5277L115.793 54.7285Z" fill="#575A89"/>
<path d="M139.032 94.0466L117.621 80.3477C125.357 73.5445 130.807 65.8985 132.69 56.9512L154.1 70.6501C147.167 77.0486 141.982 85.1 139.032 94.0466Z" fill="#6C63FF"/>
<path d="M146.209 71.5912L135.116 64.4941L134.785 65.0086L145.877 72.1057L146.209 71.5912Z" fill="#3F3D56"/>
<path d="M144.885 73.6459L133.792 66.5488L133.461 67.0633L144.553 74.1603L144.885 73.6459Z" fill="#3F3D56"/>
<path d="M143.559 75.7045L132.467 68.6074L132.135 69.1219L143.228 76.2189L143.559 75.7045Z" fill="#3F3D56"/>
<path d="M142.235 77.7612L131.143 70.6641L130.811 71.1785L141.904 78.2756L142.235 77.7612Z" fill="#3F3D56"/>
<path d="M140.91 79.8178L129.817 72.7207L129.486 73.2351L140.579 80.3322L140.91 79.8178Z" fill="#3F3D56"/>
<path d="M139.585 81.8744L128.492 74.7773L128.161 75.2918L139.253 82.3889L139.585 81.8744Z" fill="#3F3D56"/>
<path d="M138.26 83.9311L127.168 76.834L126.837 77.3484L137.929 84.4455L138.26 83.9311Z" fill="#3F3D56"/>
<path d="M136.936 85.9877L125.844 78.8906L125.512 79.4051L136.605 86.5021L136.936 85.9877Z" fill="#3F3D56"/>
<path d="M78.7088 126.902L74.7686 135.165L85.7921 137.794L85.4845 129.828L78.7088 126.902Z" fill="#FFB8B8"/>
<path d="M118.13 138.054L119.431 147.11L130.075 143.229L125.402 136.76L118.13 138.054Z" fill="#FFB8B8"/>
<path d="M94.5535 52.7637C94.5535 52.7637 92.9225 63.1735 93.3658 68.1252C93.8091 73.0768 92.0592 93.967 92.0592 93.967C92.0592 93.967 84.2307 102.454 82.4538 112.147C81.2852 118.254 79.4142 124.207 76.8779 129.887L86.1023 132.88L104.382 98.3878C104.382 98.3878 117.491 69.7924 116.184 67.0683C114.878 64.3443 112.839 53.3685 112.839 53.3685L94.5535 52.7637Z" fill="#2F2E41"/>
<path d="M77.1408 133.005C77.1408 133.005 77.1296 128.341 75.4782 130.354C73.8268 132.366 68.4359 136.256 71.6104 138.975C74.785 141.694 93.3266 156.435 94.3247 152.127C94.8823 149.736 85.631 133.59 85.631 133.59C85.631 133.59 82.5429 133.783 82.3291 134.573C82.1154 135.363 77.1408 133.005 77.1408 133.005Z" fill="#2F2E41"/>
<path d="M110.082 10.4805L103.072 18.5025L110.082 25.7475L116.572 15.9147L110.082 10.4805Z" fill="#FFB8B8"/>
<path d="M122.024 10.9979C122.025 12.7941 121.332 14.5215 120.089 15.822C118.846 17.1224 117.148 17.8961 115.348 17.9823C113.548 18.0686 111.784 17.4609 110.422 16.2853C109.059 15.1097 108.203 13.4564 108.031 11.6685C107.859 9.88065 108.384 8.09533 109.497 6.683C110.611 5.27067 112.227 4.33973 114.011 4.08333C115.794 3.82692 117.608 4.26475 119.077 5.30594C120.545 6.34714 121.555 7.91178 121.897 9.67528C121.981 10.1111 122.024 10.554 122.024 10.9979Z" fill="#FFB8B8"/>
<path d="M110.397 5.70764C112.906 4.68789 115.703 4.61577 118.262 5.5048C119.745 5.88497 121.096 6.65754 122.174 7.74072C122.703 8.2887 123.077 8.96779 123.255 9.70774C123.433 10.4477 123.409 11.2216 123.187 11.9495L121.063 10.3499L120.869 11.7596C119.469 9.58207 116.809 8.63638 114.342 7.83427C113.57 7.58326 112.546 7.4119 112.101 8.08897C111.915 8.37425 111.892 8.7466 111.693 9.02354C111.321 9.54223 110.538 9.49685 109.965 9.78491C109.457 10.1087 109.058 10.5763 108.819 11.1279C108.53 11.6522 108.658 12.3867 108.135 12.6794C106.036 13.8548 107.273 9.33013 107.615 8.53913C107.835 7.88882 108.199 7.29639 108.681 6.80608C109.162 6.31578 109.749 5.94028 110.397 5.70764Z" fill="#2F2E41"/>
<path d="M90.2207 67.5354C90.2207 67.5354 94.634 77.1098 97.7481 80.9907C100.862 84.8716 110.989 103.244 110.989 103.244C110.989 103.244 109.171 114.629 113.066 123.687C115.48 129.42 117.222 135.411 118.259 141.542L127.605 138.954L123.712 100.139C123.712 100.139 118.779 69.0868 116.185 67.5354C113.59 65.9839 105.8 57.9609 105.8 57.9609L90.2207 67.5354Z" fill="#2F2E41"/>
<path d="M111.896 25.2304C111.896 25.2304 107.483 13.5859 101.511 17.2084C95.5392 20.8308 90.8666 53.1766 90.8666 53.1766C90.8666 53.1766 85.4143 67.9258 90.8666 69.4782C96.3189 71.0306 100.732 73.1007 101.511 70.2544C102.29 67.4081 101.77 62.4917 103.068 65.0795C104.367 67.6674 103.847 70.7721 106.444 70.7721C109.04 70.7721 119.165 69.4754 118.906 67.6665C118.647 65.8576 111.896 25.2304 111.896 25.2304Z" fill="#575A89"/>
<path d="M90.3498 71.036C90.3498 71.036 86.9746 81.1319 91.6509 81.1319C96.3272 81.1319 95.6469 70.9434 95.6469 70.9434L90.3498 71.036Z" fill="#FFB8B8"/>
<path d="M120.207 144.003C120.207 144.003 117.611 140.121 117.351 142.706C117.092 145.291 114.755 151.505 118.909 152.021C123.063 152.537 146.689 154.609 145.131 150.469C144.266 148.17 127.606 139.809 127.606 139.809C127.606 139.809 125.14 141.67 125.399 142.447C125.658 143.223 120.207 144.003 120.207 144.003Z" fill="#2F2E41"/>
<path d="M126.568 12.6791C126.568 12.6791 125.338 13.7323 123.741 11.6492C123.323 11.0824 122.965 10.4737 122.674 9.83284C121.389 8.56012 119.667 7.82261 117.856 7.77012C117.732 7.76518 117.608 7.76272 117.484 7.76272C114.109 7.76272 113.33 5.43417 113.33 5.43417L107.875 7.24495C107.875 7.24495 108.654 0 116.183 0C123.712 0 123.972 6.20573 123.972 6.20573C123.972 6.20573 129.943 8.5389 126.568 12.6791Z" fill="#575A89"/>
<path opacity="0.2" d="M123.74 11.6501C123.322 11.0834 122.964 10.4746 122.673 9.8338C121.388 8.56108 119.665 7.82357 117.854 7.77108C119.752 7.17829 123.052 6.49011 124.491 8.28051C125.814 9.9292 124.714 11.0527 123.74 11.6501Z" fill="black"/>
<path d="M101.773 19.2785C101.773 19.2785 94.7637 17.9818 92.945 24.1949C91.1263 30.408 87.2344 48.7761 87.2344 48.7761L89.5707 67.6656L89.3114 72.3236H96.8388V67.4072C96.8388 66.8894 97.8769 46.706 97.8769 46.706L106.444 27.2987C106.444 27.2987 108.264 21.0902 101.773 19.2785Z" fill="#575A89"/>
<path opacity="0.2" d="M106.575 30.0156L98.0081 46.835L96.957 70.9327L99.8258 46.5729L106.575 30.0156Z" fill="black"/>
<path opacity="0.2" d="M116.968 55.8125L118.914 65.7509L117.941 56.7091L116.968 55.8125Z" fill="black"/>
<path opacity="0.2" d="M94.8926 79.0527L106.056 94.8375L104.888 97.1661L94.8926 79.0527Z" fill="black"/>
</svg>
