<svg width="241" height="174" viewBox="0 0 241 174" fill="none" xmlns="http://www.w3.org/2000/svg">
<g clip-path="url(#clip0)">
<path d="M18.9137 104.247L90.5786 32.8944C93.1201 30.364 93.1201 26.2271 90.5786 23.6967C88.0371 21.1662 83.8821 21.1662 81.3406 23.6967L9.67568 95.0492C7.13415 97.5797 7.13415 101.716 9.67568 104.247C12.2172 106.777 16.3722 106.777 18.9137 104.247Z" fill="#B0CCFF"/>
<path d="M82.8081 58.8549C80.2666 56.3244 76.1116 56.3244 73.5701 58.8549L1.90518 130.207C-0.636361 132.738 -0.636361 136.875 1.90518 139.405C4.44671 141.936 8.60167 141.936 11.1432 139.405L82.8081 68.0526C85.3496 65.5222 85.3496 61.3853 82.8081 58.8549Z" fill="#B0CCFF"/>
<path d="M33.7472 145.031L82.0742 96.9149C83.3855 96.7054 84.6481 96.109 85.6572 95.1044L157.322 23.7519C159.864 21.2214 159.864 17.0846 157.322 14.5541C154.781 12.0236 150.626 12.0236 148.084 14.5541L99.7571 62.6704C98.4458 62.88 97.1831 63.4763 96.1741 64.481L24.5038 135.833C21.9623 138.364 21.9623 142.501 24.5038 145.031C27.0453 147.562 31.2057 147.562 33.7472 145.031Z" fill="#B0CCFF"/>
<path d="M108.234 91.5521C105.692 89.0217 101.537 89.0217 98.9958 91.5521L27.331 162.905C24.7894 165.435 24.7894 169.572 27.331 172.102C29.8725 174.633 34.0274 174.633 36.569 172.102L108.234 100.75C110.775 98.2194 110.775 94.0826 108.234 91.5521Z" fill="#B0CCFF"/>
<path d="M117.381 82.4462C119.922 84.9766 124.077 84.9766 126.619 82.4462L198.284 11.0937C200.825 8.5632 200.825 4.42635 198.284 1.89589C195.742 -0.634568 191.587 -0.634568 189.046 1.89589L117.381 73.2484C114.839 75.7789 114.839 79.9157 117.381 82.4462Z" fill="#B0CCFF"/>
<path d="M139.331 97.2157L210.996 25.8632C213.538 23.3327 213.538 19.1959 210.996 16.6654C208.455 14.135 204.3 14.135 201.758 16.6654L145.801 72.3785C144.824 72.6794 143.907 73.2113 143.135 73.9795L71.4706 145.327C68.9291 147.857 68.9291 151.994 71.4706 154.524C74.0121 157.055 78.1671 157.055 80.7086 154.524L136.666 98.8113C137.642 98.5105 138.565 97.984 139.331 97.2157Z" fill="#B0CCFF"/>
<path d="M235.715 19.1264C233.174 16.5959 229.019 16.5959 226.477 19.1264L154.813 90.4789C154.381 90.9087 154.03 91.3868 153.744 91.8972L104.316 141.11C101.775 143.64 101.775 147.777 104.316 150.307C106.858 152.838 111.013 152.838 113.554 150.307L185.219 78.9548C185.651 78.525 186.002 78.0469 186.288 77.5365L235.715 28.3241C238.257 25.7937 238.257 21.6568 235.715 19.1264Z" fill="#B0CCFF"/>
<path d="M215.885 56.0396L144.221 127.392C141.679 129.923 141.679 134.059 144.221 136.59C146.762 139.12 150.917 139.12 153.459 136.59L225.124 65.2428C227.665 62.7123 227.665 58.5755 225.124 56.045C222.582 53.5145 218.427 53.5145 215.885 56.0396Z" fill="#B0CCFF"/>
<path d="M166.618 11.654C168.273 10.007 168.273 7.33673 166.618 5.68973C164.964 4.04274 162.282 4.04273 160.628 5.68973C158.974 7.33672 158.974 10.007 160.628 11.654C162.282 13.301 164.964 13.301 166.618 11.654Z" fill="#B0CCFF"/>
<path d="M217.627 13.2403C220.881 13.194 223.481 10.53 223.434 7.29022C223.388 4.0504 220.712 1.46157 217.458 1.5079C214.204 1.55424 211.604 4.21819 211.651 7.45801C211.697 10.6978 214.373 13.2867 217.627 13.2403Z" fill="#B0CCFF"/>
<path d="M64.9901 167.595C68.2445 167.595 70.8826 164.968 70.8826 161.728C70.8826 158.488 68.2445 155.861 64.9901 155.861C61.7358 155.861 59.0977 158.488 59.0977 161.728C59.0977 164.968 61.7358 167.595 64.9901 167.595Z" fill="#B0CCFF"/>
<path d="M137.049 148.957C139.338 148.957 141.194 147.11 141.194 144.831C141.194 142.552 139.338 140.705 137.049 140.705C134.761 140.705 132.905 142.552 132.905 144.831C132.905 147.11 134.761 148.957 137.049 148.957Z" fill="#B0CCFF"/>
<path d="M18.9939 158.347C21.2211 157.821 22.5989 155.598 22.0714 153.381C21.5438 151.163 19.3107 149.791 17.0835 150.317C14.8563 150.842 13.4785 153.065 14.006 155.283C14.5336 157.5 16.7667 158.872 18.9939 158.347Z" fill="#B0CCFF"/>
<path d="M13.4528 81.801C15.7407 81.801 17.5969 79.9529 17.5969 77.6749C17.5969 75.397 15.7407 73.5488 13.4528 73.5488C11.1648 73.5488 9.30861 75.397 9.30861 77.6749C9.30321 79.9529 11.1594 81.801 13.4528 81.801Z" fill="#B0CCFF"/>
<path d="M133.113 18.8145C135.373 18.4504 136.908 16.3317 136.542 14.0823C136.176 11.8329 134.048 10.3046 131.789 10.6688C129.53 11.0329 127.995 13.1516 128.36 15.401C128.726 17.6504 130.854 19.1787 133.113 18.8145Z" fill="#B0CCFF"/>
<path d="M21.4928 36.9512H33.9037V63.2766H21.4928C14.1919 63.2766 8.27246 57.3829 8.27246 50.1139C8.27246 42.8448 14.1919 36.9512 21.4928 36.9512Z" fill="#46386C"/>
<path d="M213.991 133.393H30.9732C25.5988 133.393 21.2441 129.057 21.2441 123.706V36.2199C21.2441 30.8688 25.5988 26.5332 30.9732 26.5332H204.262C209.636 26.5332 213.991 30.8688 213.991 36.2199V133.393Z" fill="white"/>
<path opacity="0.1" d="M23.3972 42.0544H112.939C120.1 42.0544 125.906 36.2736 125.906 29.1443V26.5332H30.9732C25.5988 26.5332 21.2441 30.8688 21.2441 36.2199V41.8718C21.951 41.99 22.6687 42.0544 23.3972 42.0544Z" fill="#606060"/>
<path d="M114.305 36.817H25.9661C18.0879 36.817 11.0352 41.6899 8.27246 49.0395V33.0294C8.27246 24.7342 15.0283 18.0078 23.3598 18.0078H114.305C119.517 18.0078 123.748 22.2199 123.748 27.4097C123.748 32.605 119.523 36.817 114.305 36.817Z" fill="#525B9B"/>
<path d="M39.2995 108.944C38.4091 108.944 37.6807 108.219 37.6807 107.332V57.3676C37.6807 56.4812 38.4091 55.7559 39.2995 55.7559C40.1898 55.7559 40.9183 56.4812 40.9183 57.3676V107.332C40.9183 108.219 40.1898 108.944 39.2995 108.944Z" fill="#525B9B"/>
<g opacity="0.56">
<path opacity="0.2" d="M133.758 67.3066H53.5402C52.5365 67.3066 51.7109 66.4846 51.7109 65.4853C51.7109 64.4861 52.5365 63.6641 53.5402 63.6641H133.758C134.761 63.6641 135.587 64.4861 135.587 65.4853C135.587 66.4846 134.767 67.3066 133.758 67.3066Z" fill="#474747"/>
<path opacity="0.2" d="M133.758 76.1719H53.5402C52.5365 76.1719 51.7109 75.3499 51.7109 74.3506C51.7109 73.3513 52.5365 72.5293 53.5402 72.5293H133.758C134.761 72.5293 135.587 73.3513 135.587 74.3506C135.587 75.3499 134.767 76.1719 133.758 76.1719Z" fill="#474747"/>
<path opacity="0.2" d="M133.758 85.0351H53.5402C52.5365 85.0351 51.7109 84.2131 51.7109 83.2139C51.7109 82.2146 52.5365 81.3926 53.5402 81.3926H133.758C134.761 81.3926 135.587 82.2146 135.587 83.2139C135.587 84.2131 134.767 85.0351 133.758 85.0351Z" fill="#474747"/>
<path opacity="0.2" d="M133.758 93.9004H53.5402C52.5365 93.9004 51.7109 93.0784 51.7109 92.0791C51.7109 91.0798 52.5365 90.2578 53.5402 90.2578H133.758C134.761 90.2578 135.587 91.0798 135.587 92.0791C135.587 93.0784 134.767 93.9004 133.758 93.9004Z" fill="#474747"/>
<path opacity="0.2" d="M119.032 102.765H53.4161C52.4772 102.765 51.7109 102.002 51.7109 101.067V100.616C51.7109 99.6809 52.4772 98.918 53.4161 98.918H119.027C119.966 98.918 120.732 99.6809 120.732 100.616V101.067C120.737 102.002 119.966 102.765 119.032 102.765Z" fill="#474747"/>
</g>
<g opacity="0.1">
<path opacity="0.1" d="M191.42 121.822C191.42 121.822 192.985 107.3 204.975 103.969L207.991 111.566L198.246 124.143L191.42 121.822Z" fill="#606060"/>
<path opacity="0.1" d="M231.857 146.578L243.615 120.688C243.615 120.688 238.532 119.677 215.47 112.849C202.525 109.018 197.242 106.176 194.808 103.941C195.672 98.3378 194.085 92.1809 189.391 86.529C183.509 79.4426 185.246 70.7338 187.837 65.5332C189.223 62.7502 190.303 58.7853 187.437 57.555C184.815 56.4267 180.32 58.1997 177.255 64.3996C172.701 73.6134 173.057 80.0497 173.057 80.0497L158.25 76.794L167.898 118.463C167.898 118.463 179.144 122.498 185.899 117.754C186.18 117.555 186.455 117.351 186.725 117.147C196.654 118.173 231.857 146.578 231.857 146.578Z" fill="#606060"/>
<g opacity="0.1">
<path opacity="0.1" d="M234.34 141.114C231.269 138.653 198.899 112.849 189.455 111.876C189.186 112.086 188.91 112.29 188.63 112.483C181.869 117.227 170.629 113.193 170.629 113.193L165.438 90.7946L164.903 91.9443L161.391 90.3164L167.909 118.474C167.909 118.474 179.154 122.509 185.91 117.765C186.191 117.566 186.466 117.362 186.736 117.158C196.654 118.178 231.858 146.588 231.858 146.588L234.34 141.114Z" fill="#606060"/>
</g>
<g opacity="0.1">
<path opacity="0.1" d="M180.995 97.8867L153.68 85.2398C151.548 84.2512 150.62 81.71 151.608 79.5933L152.061 78.6262C153.054 76.5041 155.606 75.58 157.732 76.5631L185.047 89.2101C187.179 90.1986 188.107 92.7398 187.119 94.8566L186.666 95.8237C185.678 97.9458 183.126 98.8753 180.995 97.8867Z" fill="#606060"/>
<path opacity="0.1" d="M182.025 95.6834L154.71 83.0365C152.794 82.15 151.85 80.001 152.406 78.0293C152.276 78.2173 152.163 78.4107 152.061 78.6203L151.607 79.5873C150.614 81.7095 151.548 84.2507 153.679 85.2338L180.994 97.8808C183.126 98.8693 185.678 97.9399 186.665 95.8177L187.119 94.8507C187.216 94.6411 187.291 94.4262 187.351 94.206C186.201 95.9037 183.946 96.5753 182.025 95.6834Z" fill="#606060"/>
<path opacity="0.1" d="M178.097 107.106L148.467 93.3843C146.336 92.3958 145.407 89.8546 146.395 87.7378L146.848 86.7707C147.841 84.6486 150.393 83.7245 152.519 84.7077L182.149 98.4291C184.281 99.4177 185.209 101.959 184.221 104.076L183.768 105.043C182.78 107.165 180.228 108.089 178.097 107.106Z" fill="#606060"/>
<path opacity="0.1" d="M179.16 104.834L149.53 91.1122C147.626 90.2311 146.681 88.1036 147.216 86.1426C147.081 86.336 146.957 86.5455 146.849 86.7658L146.395 87.7328C145.402 89.855 146.336 92.3962 148.467 93.3794L178.097 107.101C180.229 108.089 182.781 107.16 183.768 105.038L184.222 104.071C184.324 103.85 184.405 103.619 184.464 103.388C183.31 105.059 181.065 105.715 179.16 104.834Z" fill="#606060"/>
<path opacity="0.1" d="M171.94 114.526L146.74 102.857C144.609 101.868 143.681 99.3272 144.668 97.2104L145.122 96.2434C146.115 94.1212 148.667 93.1972 150.793 94.1803L175.992 105.849C178.124 106.838 179.052 109.379 178.064 111.496L177.611 112.463C176.624 114.58 174.066 115.509 171.94 114.526Z" fill="#606060"/>
<path opacity="0.1" d="M173.052 112.146L147.852 100.477C145.964 99.6012 145.019 97.5059 145.521 95.5664C145.37 95.7759 145.235 95.9962 145.122 96.238L144.669 97.205C143.676 99.3272 144.609 101.868 146.741 102.852L171.94 114.521C174.072 115.509 176.624 114.58 177.612 112.458L178.065 111.491C178.178 111.249 178.259 111.002 178.324 110.755C177.158 112.388 174.935 113.022 173.052 112.146Z" fill="#606060"/>
<path opacity="0.1" d="M166.798 120.902L145.155 110.877C143.304 110.018 142.494 107.81 143.352 105.967L143.779 105.054C144.642 103.211 146.86 102.405 148.711 103.259L170.354 113.284C172.205 114.144 173.014 116.352 172.156 118.195L171.73 119.108C170.867 120.956 168.649 121.762 166.798 120.902Z" fill="#606060"/>
<path opacity="0.1" d="M167.569 119.253L145.926 109.228C144.199 108.428 143.379 106.456 143.972 104.699C143.902 104.812 143.837 104.936 143.778 105.059L143.352 105.973C142.488 107.815 143.303 110.029 145.154 110.883L166.798 120.908C168.648 121.768 170.872 120.956 171.73 119.114L172.156 118.2C172.215 118.077 172.264 117.948 172.307 117.819C171.341 119.404 169.296 120.054 167.569 119.253Z" fill="#606060"/>
</g>
<path opacity="0.1" d="M204.619 105.811C204.619 105.811 201.354 117.12 192.898 122.25C192.898 122.25 239.876 157.328 246.519 160.406C253.161 163.485 267.849 132.582 266.047 130.492C264.245 128.402 204.619 105.811 204.619 105.811Z" fill="#606060"/>
<path opacity="0.1" d="M201.165 121.09C205.822 117.351 208.299 111.635 209.54 107.686C206.48 106.52 204.619 105.816 204.619 105.816C204.619 105.816 201.354 117.126 192.898 122.256C192.898 122.256 239.876 157.334 246.519 160.412C249.287 161.696 253.447 157.076 257.235 151.107C245.402 145.863 201.165 121.09 201.165 121.09Z" fill="#606060"/>
<path opacity="0.1" d="M204.974 103.969C204.974 103.969 221.173 108.573 220.941 110.862C219.711 122.859 209.41 135.183 207.057 134.092C204.705 133.002 191.414 121.822 191.414 121.822C191.414 121.822 199.281 119.764 204.974 103.969Z" fill="#606060"/>
</g>
<path d="M219.56 151.301L174.886 143.484C169.895 142.608 166.528 137.826 167.407 132.857L174.158 94.6206C175.037 89.651 179.84 86.2985 184.831 87.1742L229.505 94.9913C234.496 95.867 237.863 100.649 236.984 105.618L230.233 143.854C229.354 148.824 224.551 152.176 219.56 151.301Z" fill="#46386C"/>
<path d="M193.216 126.296C193.216 126.296 194.781 111.774 206.771 108.443L209.787 116.04L200.042 128.617L193.216 126.296Z" fill="#525B9B"/>
<path d="M233.655 151.058L245.413 125.168C245.413 125.168 240.329 124.158 217.267 117.329C204.322 113.499 199.039 110.657 196.605 108.422C197.469 102.818 195.882 96.6614 191.188 91.0095C185.306 83.9231 187.044 75.2142 189.634 70.0136C191.02 67.2307 192.1 63.2657 189.234 62.0354C186.612 60.9072 182.117 62.6801 179.052 68.88C174.498 78.0993 174.854 84.5302 174.854 84.5302L158.461 81.0542L153.453 116.352C153.453 116.352 180.941 126.979 187.702 122.235C187.982 122.036 188.258 121.832 188.527 121.627C198.451 122.648 233.655 151.058 233.655 151.058Z" fill="#BC7960"/>
<path d="M171.885 107.986C176.046 107.83 180.476 108.797 184.167 109.834C184.712 109.99 185.273 110.173 185.834 110.372C184.188 109.216 182.71 107.825 181.463 106.251C179.008 103.156 176.612 98.9926 175.619 94.7322C175.436 94.4152 175.258 94.0982 175.085 93.7758C174.637 92.9485 173.429 92.6154 172.63 93.1365C169.214 95.35 168.518 100.733 169.517 104.397C169.9 105.805 170.768 107.008 171.885 107.986Z" fill="#955740"/>
<path d="M236.136 145.588C233.066 143.128 200.695 117.323 191.252 116.351C190.982 116.561 190.707 116.765 190.426 116.958C183.665 121.702 172.425 117.667 172.425 117.667L167.239 95.2692L166.705 96.4189L163.192 94.791L153.469 116.356C153.469 116.356 180.956 126.983 187.717 122.239C187.998 122.04 188.273 121.836 188.543 121.632C198.461 122.653 233.665 151.063 233.665 151.063L236.136 145.588Z" fill="#955740"/>
<path d="M174.751 104.827L153.107 98.4825C151.095 97.8271 149.999 95.6136 150.674 93.5667L151.122 92.1967C151.796 90.1444 153.992 89.0054 156 89.6555L177.643 96.0004C179.656 96.6559 180.751 98.8693 180.077 100.916L179.629 102.286C178.96 104.339 176.764 105.483 174.751 104.827Z" fill="#BC7960"/>
<path d="M175.696 102.577L153.68 96.114C151.969 95.5606 151.009 93.6802 151.333 91.7461C151.23 91.9502 151.133 92.1651 151.063 92.3908L150.739 93.374C150.032 95.5284 151.014 97.8009 152.925 98.4241L174.94 104.887C176.851 105.511 178.993 104.253 179.7 102.099L180.024 101.116C180.099 100.89 180.148 100.659 180.185 100.433C179.295 102.185 177.401 103.136 175.696 102.577Z" fill="#955740"/>
<path d="M172.35 113.81L151.278 107.498C149.125 106.751 147.981 104.387 148.731 102.249L149.071 101.271C149.821 99.1272 152.195 97.9882 154.343 98.735L175.415 105.048C177.568 105.795 178.712 108.158 177.962 110.297L177.622 111.274C176.877 113.413 174.503 114.557 172.35 113.81Z" fill="#BC7960"/>
<path d="M173.192 111.409L152.12 105.096C150.215 104.436 149.098 102.501 149.39 100.578C149.266 100.793 149.158 101.024 149.072 101.266L148.732 102.244C147.982 104.387 149.131 106.746 151.279 107.493L172.35 113.805C174.503 114.552 176.877 113.408 177.622 111.269L177.962 110.292C178.048 110.05 178.102 109.803 178.14 109.556C177.174 111.248 175.097 112.07 173.192 111.409Z" fill="#955740"/>
<path d="M174.141 95.1846L156.188 89.7315C154.106 89.0116 152.999 86.7229 153.722 84.6545L154.052 83.7089C154.775 81.6351 157.073 80.5338 159.151 81.2537L177.103 86.7068C179.186 87.4267 180.293 89.7154 179.569 91.7838L179.24 92.7294C178.523 94.7978 176.224 95.9046 174.141 95.1846Z" fill="#BC7960"/>
<path d="M174.956 92.8581L157.004 87.405C155.158 86.7656 154.079 84.896 154.365 83.0371C154.246 83.2466 154.138 83.4669 154.057 83.7033L153.728 84.6489C153.005 86.7227 154.111 89.006 156.194 89.7259L174.147 95.179C176.23 95.8989 178.523 94.7976 179.246 92.7238L179.575 91.7782C179.656 91.5418 179.716 91.3054 179.748 91.069C178.814 92.7023 176.802 93.4974 174.956 92.8581Z" fill="#955740"/>
<path d="M168.599 121.328L150.366 115.343C148.586 114.725 147.63 112.764 148.251 110.991L148.683 109.75C149.303 107.977 151.273 107.026 153.053 107.644L171.287 113.629C173.067 114.247 174.022 116.208 173.402 117.98L172.97 119.222C172.35 121 170.386 121.945 168.599 121.328Z" fill="#BC7960"/>
<path d="M169.344 119.715L150.793 113.617C149.212 113.069 148.364 111.291 148.785 109.545C148.731 109.663 148.677 109.787 148.634 109.91L148.31 110.834C147.658 112.699 148.51 114.703 150.21 115.288L168.761 121.386C170.456 121.972 172.377 120.929 173.03 119.07L173.353 118.146C173.397 118.017 173.434 117.894 173.467 117.765C172.701 119.393 170.925 120.263 169.344 119.715Z" fill="#955740"/>
<path d="M206.416 110.291C206.416 110.291 203.151 121.6 194.695 126.731C194.695 126.731 241.673 161.808 248.316 164.887C254.958 167.965 269.646 137.062 267.844 134.972C266.047 132.877 206.416 110.291 206.416 110.291Z" fill="#525B9B"/>
<path d="M202.962 125.565C207.619 121.826 210.096 116.109 211.337 112.161C208.277 110.995 206.416 110.291 206.416 110.291C206.416 110.291 203.151 121.6 194.695 126.731C194.695 126.731 241.673 161.808 248.316 164.887C251.084 166.171 255.244 161.55 259.032 155.581C247.199 150.338 202.962 125.565 202.962 125.565Z" fill="#594C95"/>
<path d="M206.771 108.443C206.771 108.443 222.97 113.048 222.738 115.336C221.508 127.333 211.207 139.658 208.854 138.567C206.501 137.477 193.211 126.296 193.211 126.296C193.211 126.296 201.078 124.239 206.771 108.443Z" fill="#6776B8"/>
</g>
<defs>
<clipPath id="clip0">
<rect width="268" height="174" fill="white"/>
</clipPath>
</defs>
</svg>
