<svg width="175" height="114" viewBox="0 0 175 114" fill="none" xmlns="http://www.w3.org/2000/svg">
<g clip-path="url(#clip0)">
<path d="M12.3502 68.3009L59.1463 21.5527C60.8059 19.8949 60.8059 17.1845 59.1463 15.5266C57.4867 13.8687 54.7736 13.8687 53.114 15.5266L6.31793 62.2748C4.65835 63.9327 4.65835 66.6431 6.31793 68.3009C7.97752 69.9588 10.6906 69.9588 12.3502 68.3009Z" fill="#B0CCFF"/>
<path d="M54.0721 38.5608C52.4125 36.9029 49.6994 36.9029 48.0398 38.5608L1.24371 85.309C-0.415873 86.9669 -0.415873 89.6772 1.24371 91.3351C2.9033 92.993 5.61642 92.993 7.27601 91.3351L54.0721 44.5869C55.7317 42.929 55.7317 40.2187 54.0721 38.5608Z" fill="#B0CCFF"/>
<path d="M22.0364 95.0205L53.5932 63.4959C54.4494 63.3587 55.2739 62.968 55.9328 62.3097L102.729 15.5615C104.388 13.9036 104.388 11.1933 102.729 9.53541C101.069 7.87752 98.3562 7.87752 96.6966 9.53541L65.1398 41.0599C64.2836 41.1972 63.4591 41.5879 62.8002 42.2461L16.0005 88.9943C14.341 90.6522 14.341 93.3626 16.0005 95.0205C17.6601 96.6783 20.3768 96.6783 22.0364 95.0205Z" fill="#B0CCFF"/>
<path d="M70.6756 59.9827C69.016 58.3248 66.3029 58.3248 64.6433 59.9827L17.8472 106.731C16.1876 108.389 16.1876 111.099 17.8472 112.757C19.5068 114.415 22.2199 114.415 23.8795 112.757L70.6756 66.0088C72.3352 64.3509 72.3352 61.6406 70.6756 59.9827Z" fill="#B0CCFF"/>
<path d="M76.647 54.0168C78.3066 55.6746 81.0197 55.6746 82.6793 54.0168L129.475 7.26856C131.135 5.61067 131.135 2.90033 129.475 1.24244C127.816 -0.415448 125.103 -0.415448 123.443 1.24244L76.647 47.9906C74.9874 49.6485 74.9874 52.3589 76.647 54.0168Z" fill="#B0CCFF"/>
<path d="M90.9815 63.6935L137.778 16.9453C139.437 15.2874 139.437 12.5771 137.778 10.9192C136.118 9.26131 133.405 9.26131 131.745 10.9192L95.2062 47.4209C94.5685 47.618 93.9695 47.9665 93.4656 48.4698L46.6695 95.2145C45.0099 96.8724 45.0099 99.5827 46.6695 101.241C48.3291 102.899 51.0422 102.899 52.7018 101.241L89.2409 64.7389C89.8786 64.5418 90.4811 64.1969 90.9815 63.6935Z" fill="#B0CCFF"/>
<path d="M153.918 12.5305C152.259 10.8726 149.546 10.8726 147.886 12.5305L101.09 59.2787C100.808 59.5603 100.579 59.8736 100.392 60.208L68.1168 92.4506C66.4572 94.1084 66.4572 96.8188 68.1168 98.4767C69.7763 100.135 72.4895 100.135 74.1491 98.4767L120.945 51.7285C121.227 51.4469 121.456 51.1336 121.643 50.7992L153.918 18.5566C155.578 16.8988 155.578 14.1884 153.918 12.5305Z" fill="#B0CCFF"/>
<path d="M140.969 36.7169L94.1734 83.4651C92.5138 85.123 92.5138 87.8333 94.1734 89.4912C95.833 91.1491 98.5461 91.1491 100.206 89.4912L147.002 42.7465C148.661 41.0887 148.661 38.3783 147.002 36.7204C145.342 35.0625 142.629 35.0625 140.969 36.7169Z" fill="#B0CCFF"/>
<path d="M108.799 7.63644C109.879 6.55737 109.879 4.80787 108.799 3.7288C107.719 2.64974 105.968 2.64973 104.887 3.7288C103.807 4.80786 103.807 6.55737 104.887 7.63644C105.968 8.7155 107.719 8.7155 108.799 7.63644Z" fill="#B0CCFF"/>
<path d="M142.107 8.67476C144.232 8.64441 145.929 6.89906 145.899 4.77642C145.869 2.65378 144.122 0.957646 141.997 0.988003C139.872 1.01836 138.174 2.76371 138.204 4.88635C138.235 7.00899 139.982 8.70512 142.107 8.67476Z" fill="#B0CCFF"/>
<path d="M42.4375 109.805C44.5626 109.805 46.2852 108.084 46.2852 105.961C46.2852 103.838 44.5626 102.117 42.4375 102.117C40.3125 102.117 38.5898 103.838 38.5898 105.961C38.5898 108.084 40.3125 109.805 42.4375 109.805Z" fill="#B0CCFF"/>
<path d="M89.4903 97.5931C90.9848 97.5931 92.1963 96.3828 92.1963 94.8898C92.1963 93.3968 90.9848 92.1865 89.4903 92.1865C87.9957 92.1865 86.7842 93.3968 86.7842 94.8898C86.7842 96.3828 87.9957 97.5931 89.4903 97.5931Z" fill="#B0CCFF"/>
<path d="M12.4023 103.745C13.8566 103.4 14.7563 101.944 14.4118 100.491C14.0673 99.038 12.6091 98.1392 11.1548 98.4833C9.70045 98.8275 8.80075 100.284 9.14523 101.737C9.48972 103.19 10.9479 104.089 12.4023 103.745Z" fill="#B0CCFF"/>
<path d="M8.78421 53.5941C10.2782 53.5941 11.4903 52.3833 11.4903 50.8908C11.4903 49.3984 10.2782 48.1875 8.78421 48.1875C7.29023 48.1875 6.07813 49.3984 6.07813 50.8908C6.07461 52.3833 7.28671 53.5941 8.78421 53.5941Z" fill="#B0CCFF"/>
<path d="M86.9208 12.3268C88.396 12.0882 89.3984 10.7001 89.1595 9.22633C88.9207 7.7526 87.5312 6.75131 86.0559 6.98989C84.5807 7.22847 83.5784 8.61657 83.8172 10.0903C84.056 11.564 85.4456 12.5653 86.9208 12.3268Z" fill="#B0CCFF"/>
<path d="M14.034 24.21H22.1382V41.4576H14.034C9.26669 41.4576 5.40137 37.5963 5.40137 32.8338C5.40137 28.0713 9.26669 24.21 14.034 24.21Z" fill="#46386C"/>
<path d="M139.733 87.3962H20.225C16.7156 87.3962 13.8721 84.5556 13.8721 81.0498V23.7312C13.8721 20.2253 16.7156 17.3848 20.225 17.3848H133.38C136.889 17.3848 139.733 20.2253 139.733 23.7312V87.3962Z" fill="white"/>
<path opacity="0.1" d="M15.278 27.5538H73.7475C78.4233 27.5538 82.2146 23.7664 82.2146 19.0955V17.3848H20.225C16.7156 17.3848 13.8721 20.2253 13.8721 23.7312V27.4342C14.3337 27.5116 14.8023 27.5538 15.278 27.5538Z" fill="#606060"/>
<path d="M74.6389 24.1221H16.955C11.8107 24.1221 7.20542 27.3147 5.40137 32.1299V21.6406C5.40137 16.2058 9.81284 11.7988 15.2532 11.7988H74.6389C78.0426 11.7988 80.805 14.5585 80.805 17.9587C80.805 21.3625 78.0461 24.1221 74.6389 24.1221Z" fill="#525B9B"/>
<path d="M25.6616 71.3776C25.0802 71.3776 24.6045 70.9024 24.6045 70.3216V37.5863C24.6045 37.0055 25.0802 36.5303 25.6616 36.5303C26.2429 36.5303 26.7186 37.0055 26.7186 37.5863V70.3216C26.7186 70.9024 26.2429 71.3776 25.6616 71.3776Z" fill="#525B9B"/>
<g opacity="0.56">
<path opacity="0.2" d="M87.341 44.0974H34.9601C34.3047 44.0974 33.7656 43.5589 33.7656 42.9042C33.7656 42.2495 34.3047 41.7109 34.9601 41.7109H87.341C87.9964 41.7109 88.5355 42.2495 88.5355 42.9042C88.5355 43.5589 87.9999 44.0974 87.341 44.0974Z" fill="#474747"/>
<path opacity="0.2" d="M87.341 49.9051H34.9601C34.3047 49.9051 33.7656 49.3665 33.7656 48.7118C33.7656 48.0571 34.3047 47.5186 34.9601 47.5186H87.341C87.9964 47.5186 88.5355 48.0571 88.5355 48.7118C88.5355 49.3665 87.9999 49.9051 87.341 49.9051Z" fill="#474747"/>
<path opacity="0.2" d="M87.341 55.7127H34.9601C34.3047 55.7127 33.7656 55.1741 33.7656 54.5194C33.7656 53.8647 34.3047 53.3262 34.9601 53.3262H87.341C87.9964 53.3262 88.5355 53.8647 88.5355 54.5194C88.5355 55.1741 87.9999 55.7127 87.341 55.7127Z" fill="#474747"/>
<path opacity="0.2" d="M87.341 61.5213H34.9601C34.3047 61.5213 33.7656 60.9827 33.7656 60.328C33.7656 59.6733 34.3047 59.1348 34.9601 59.1348H87.341C87.9964 59.1348 88.5355 59.6733 88.5355 60.328C88.5355 60.9827 87.9999 61.5213 87.341 61.5213Z" fill="#474747"/>
<path opacity="0.2" d="M77.7253 67.3289H34.8791C34.266 67.3289 33.7656 66.829 33.7656 66.2166V65.9209C33.7656 65.3084 34.266 64.8086 34.8791 64.8086H77.7218C78.3349 64.8086 78.8352 65.3084 78.8352 65.9209V66.2166C78.8387 66.829 78.3349 67.3289 77.7253 67.3289Z" fill="#474747"/>
</g>
<g opacity="0.1">
<path opacity="0.1" d="M124.993 79.8139C124.993 79.8139 126.015 70.2995 133.844 68.1172L135.814 73.0944L129.45 81.3345L124.993 79.8139Z" fill="#606060"/>
<path opacity="0.1" d="M151.4 96.034L159.077 79.0715C159.077 79.0715 155.758 78.4097 140.699 73.9359C132.246 71.4262 128.796 69.5641 127.207 68.0998C127.771 64.4286 126.735 60.3947 123.669 56.6917C119.829 52.049 120.963 46.3432 122.655 42.9359C123.56 41.1125 124.265 38.5148 122.394 37.7088C120.681 36.9696 117.746 38.1312 115.745 42.1932C112.771 48.2298 113.004 52.4467 113.004 52.4467L103.335 50.3136L109.635 77.6142C109.635 77.6142 116.978 80.2577 121.39 77.1496C121.573 77.0193 121.752 76.8856 121.929 76.7518C128.412 77.4241 151.4 96.034 151.4 96.034Z" fill="#606060"/>
<g opacity="0.1">
<path opacity="0.1" d="M153.02 92.4538C151.016 90.8417 129.878 73.9354 123.712 73.2983C123.535 73.4356 123.356 73.5694 123.173 73.6961C118.758 76.8042 111.418 74.1607 111.418 74.1607L108.028 59.4861L107.68 60.2394L105.386 59.1729L109.642 77.6208C109.642 77.6208 116.985 80.2643 121.397 77.1562C121.58 77.0259 121.76 76.8922 121.936 76.7584C128.412 77.4272 151.4 96.0406 151.4 96.0406L153.02 92.4538Z" fill="#606060"/>
</g>
<g opacity="0.1">
<path opacity="0.1" d="M118.186 64.1325L100.35 55.8466C98.9584 55.199 98.3523 53.534 98.9972 52.1472L99.2931 51.5136C99.9415 50.1232 101.608 49.5178 102.996 50.1619L120.833 58.4478C122.224 59.0955 122.83 60.7604 122.186 62.1473L121.89 62.7809C121.245 64.1713 119.578 64.7802 118.186 64.1325Z" fill="#606060"/>
<path opacity="0.1" d="M118.859 62.6895L101.023 54.4036C99.7719 53.8228 99.1553 52.4149 99.5182 51.123C99.4336 51.2462 99.3596 51.373 99.2927 51.5102L98.9967 52.1438C98.3484 53.5342 98.958 55.1991 100.35 55.8433L118.186 64.1292C119.578 64.7769 121.244 64.1679 121.889 62.7775L122.185 62.144C122.249 62.0067 122.298 61.8659 122.337 61.7216C121.586 62.8339 120.113 63.2739 118.859 62.6895Z" fill="#606060"/>
<path opacity="0.1" d="M116.295 70.1725L96.9469 61.1826C95.5551 60.5349 94.949 58.87 95.5938 57.4831L95.8898 56.8495C96.5381 55.4591 98.2048 54.8537 99.593 55.4979L118.941 64.4878C120.333 65.1354 120.939 66.8004 120.294 68.1872L119.998 68.8208C119.353 70.2112 117.686 70.8166 116.295 70.1725Z" fill="#606060"/>
<path opacity="0.1" d="M116.988 68.6843L97.6406 59.6944C96.3968 59.1171 95.7802 57.7233 96.129 56.4385C96.0409 56.5652 95.9599 56.7025 95.8894 56.8468L95.5934 57.4804C94.9451 58.8708 95.5547 60.5357 96.9464 61.1798L116.294 70.1697C117.686 70.8174 119.353 70.2084 119.997 68.8181L120.293 68.1845C120.36 68.0402 120.413 67.8888 120.452 67.7375C119.698 68.8322 118.232 69.2616 116.988 68.6843Z" fill="#606060"/>
<path opacity="0.1" d="M112.274 75.0339L95.8189 67.3886C94.4271 66.7409 93.8211 65.076 94.4659 63.6892L94.7619 63.0556C95.4102 61.6652 97.0768 61.0598 98.4651 61.7039L114.92 69.3492C116.312 69.9969 116.918 71.6618 116.273 73.0486L115.977 73.6822C115.332 75.0691 113.662 75.678 112.274 75.0339Z" fill="#606060"/>
<path opacity="0.1" d="M112.999 73.4748L96.5444 65.8295C95.3111 65.2558 94.6945 63.883 95.0222 62.6123C94.9235 62.7496 94.8354 62.8939 94.7614 63.0523L94.4655 63.6859C93.8171 65.0763 94.4267 66.7412 95.8185 67.3853L112.273 75.0306C113.665 75.6783 115.332 75.0693 115.977 73.679L116.273 73.0454C116.347 72.887 116.399 72.7251 116.442 72.5631C115.681 73.6332 114.229 74.0486 112.999 73.4748Z" fill="#606060"/>
<path opacity="0.1" d="M108.916 79.2117L94.7834 72.6435C93.5748 72.0803 93.0463 70.6336 93.6065 69.4263L93.8849 68.8279C94.4487 67.6205 95.8968 67.0925 97.1054 67.6522L111.238 74.2204C112.447 74.7836 112.975 76.2303 112.415 77.4376L112.137 78.036C111.573 79.2469 110.125 79.7748 108.916 79.2117Z" fill="#606060"/>
<path opacity="0.1" d="M109.42 78.1312L95.2868 71.563C94.1593 71.0385 93.6237 69.7467 94.0113 68.5957C93.9655 68.6696 93.9232 68.7506 93.8845 68.8315L93.6061 69.4299C93.0423 70.6373 93.5744 72.0875 94.783 72.6471L108.916 79.2153C110.124 79.7785 111.576 79.247 112.136 78.0397L112.415 77.4413C112.454 77.3603 112.485 77.2758 112.513 77.1914C111.883 78.2297 110.547 78.6556 109.42 78.1312Z" fill="#606060"/>
</g>
<path opacity="0.1" d="M133.612 69.3252C133.612 69.3252 131.48 76.7346 125.959 80.0962C125.959 80.0962 156.635 103.078 160.972 105.095C165.31 107.112 174.901 86.865 173.724 85.4958C172.547 84.1265 133.612 69.3252 133.612 69.3252Z" fill="#606060"/>
<path opacity="0.1" d="M131.357 79.3353C134.398 76.8854 136.015 73.1402 136.826 70.5531C134.828 69.7892 133.612 69.3281 133.612 69.3281C133.612 69.3281 131.48 76.7376 125.959 80.0991C125.959 80.0991 156.635 103.081 160.972 105.098C162.78 105.939 165.497 102.912 167.97 99.0011C160.243 95.5657 131.357 79.3353 131.357 79.3353Z" fill="#606060"/>
<path opacity="0.1" d="M133.845 68.1172C133.845 68.1172 144.423 71.1338 144.271 72.6333C143.468 80.4933 136.741 88.568 135.205 87.8534C133.669 87.1389 124.99 79.8139 124.99 79.8139C124.99 79.8139 130.128 78.4658 133.845 68.1172Z" fill="#606060"/>
</g>
<path d="M143.369 99.1275L114.197 94.006C110.938 93.4322 108.74 90.2995 109.314 87.0436L113.722 61.9922C114.296 58.7363 117.432 56.5398 120.691 57.1136L149.863 62.2351C153.122 62.8088 155.321 65.9416 154.746 69.1975L150.338 94.2489C149.764 97.5048 146.628 99.7012 143.369 99.1275Z" fill="#46386C"/>
<path d="M126.167 82.7465C126.167 82.7465 127.189 73.2322 135.018 71.0498L136.988 76.027L130.624 84.2671L126.167 82.7465Z" fill="#525B9B"/>
<path d="M152.572 98.9696L160.25 82.007C160.25 82.007 156.931 81.3453 141.871 76.8714C133.419 74.3617 129.969 72.4997 128.38 71.0354C128.944 67.3641 127.908 63.3303 124.842 59.6273C121.002 54.9845 122.136 49.2787 123.827 45.8714C124.733 44.0481 125.438 41.4504 123.567 40.6443C121.854 39.9051 118.919 41.0667 116.918 45.1287C113.944 51.1689 114.176 55.3823 114.176 55.3823L103.472 53.1049L100.202 76.2308C100.202 76.2308 118.151 83.1932 122.566 80.0851C122.749 79.9549 122.929 79.8211 123.105 79.6874C129.585 80.3562 152.572 98.9696 152.572 98.9696Z" fill="#BC7960"/>
<path d="M112.239 70.7502C114.955 70.6481 117.848 71.2817 120.258 71.961C120.614 72.0631 120.981 72.1828 121.347 72.313C120.272 71.5562 119.307 70.6446 118.493 69.6132C116.89 67.5858 115.325 64.8578 114.677 62.0665C114.557 61.8588 114.441 61.6511 114.328 61.44C114.036 60.8979 113.246 60.6796 112.725 61.0211C110.495 62.4713 110.04 65.9983 110.692 68.3989C110.942 69.3211 111.509 70.1096 112.239 70.7502Z" fill="#955740"/>
<path d="M154.193 95.3864C152.189 93.7743 131.051 76.8681 124.885 76.231C124.709 76.3682 124.529 76.502 124.346 76.6287C119.931 79.7368 112.591 77.0933 112.591 77.0933L109.205 62.4187L108.856 63.172L106.562 62.1055L100.213 76.2345C100.213 76.2345 118.162 83.1969 122.577 80.0888C122.76 79.9586 122.94 79.8248 123.116 79.691C129.592 80.3598 152.58 98.9732 152.58 98.9732L154.193 95.3864Z" fill="#955740"/>
<path d="M114.11 68.6811L99.977 64.5241C98.6627 64.0947 97.9474 62.6445 98.3878 61.3034L98.6803 60.4058C99.1207 59.0612 100.555 58.3149 101.866 58.7409L115.998 62.8979C117.313 63.3273 118.028 64.7775 117.588 66.1186L117.295 67.0162C116.858 68.3608 115.424 69.1106 114.11 68.6811Z" fill="#BC7960"/>
<path d="M114.726 67.2065L100.35 62.9721C99.2334 62.6095 98.6063 61.3775 98.8177 60.1104C98.7507 60.2441 98.6873 60.3849 98.6415 60.5327L98.4301 61.1769C97.9685 62.5884 98.6098 64.0773 99.8571 64.4856L114.233 68.7201C115.48 69.1284 116.879 68.3048 117.341 66.8933L117.552 66.2491C117.602 66.1013 117.633 65.9499 117.658 65.8021C117.077 66.9496 115.84 67.5726 114.726 67.2065Z" fill="#955740"/>
<path d="M112.542 74.5661L98.7822 70.4302C97.3763 69.9409 96.6293 68.3922 97.119 66.9912L97.341 66.3506C97.8308 64.9462 99.3812 64.1999 100.784 64.6892L114.543 68.8251C115.949 69.3144 116.696 70.8632 116.206 72.2641L115.984 72.9047C115.498 74.3057 113.947 75.0554 112.542 74.5661Z" fill="#BC7960"/>
<path d="M113.091 72.9927L99.3315 68.8567C98.0877 68.4238 97.3583 67.1566 97.5486 65.8965C97.4675 66.0373 97.397 66.1886 97.3407 66.347L97.1187 66.9877C96.6289 68.3921 97.3794 69.9374 98.7818 70.4266L112.541 74.5625C113.947 75.0518 115.497 74.3021 115.984 72.9011L116.206 72.2605C116.262 72.1021 116.297 71.9402 116.322 71.7783C115.691 72.8871 114.335 73.4256 113.091 72.9927Z" fill="#955740"/>
<path d="M113.711 62.3624L101.988 58.7897C100.628 58.318 99.9058 56.8186 100.378 55.4634L100.593 54.8439C101.065 53.4852 102.566 52.7636 103.923 53.2353L115.645 56.808C117.006 57.2797 117.728 58.7792 117.256 60.1343L117.041 60.7538C116.572 62.109 115.071 62.8341 113.711 62.3624Z" fill="#BC7960"/>
<path d="M114.243 60.8387L102.521 57.266C101.316 56.8471 100.611 55.6222 100.798 54.4043C100.72 54.5416 100.65 54.6859 100.597 54.8408L100.382 55.4603C99.9098 56.819 100.632 58.3149 101.992 58.7866L113.715 62.3593C115.075 62.831 116.573 62.1094 117.045 60.7507L117.26 60.1312C117.312 59.9763 117.351 59.8215 117.372 59.6666C116.763 60.7366 115.449 61.2576 114.243 60.8387Z" fill="#955740"/>
<path d="M110.093 79.4902L98.1866 75.569C97.0238 75.1642 96.4002 73.8794 96.8054 72.7179L97.0872 71.9048C97.4925 70.7432 98.7785 70.1202 99.9413 70.525L111.847 74.4462C113.01 74.8509 113.634 76.1357 113.229 77.2973L112.947 78.1104C112.541 79.2755 111.259 79.895 110.093 79.4902Z" fill="#BC7960"/>
<path d="M110.579 78.4347L98.4654 74.4396C97.433 74.0806 96.8798 72.9155 97.1547 71.7715C97.1194 71.8489 97.0842 71.9299 97.056 72.0108L96.8446 72.6163C96.4182 73.8377 96.9749 75.1506 98.0849 75.5343L110.199 79.5294C111.305 79.9131 112.56 79.2302 112.986 78.0123L113.197 77.4069C113.225 77.3224 113.25 77.2415 113.271 77.157C112.771 78.2235 111.612 78.7938 110.579 78.4347Z" fill="#955740"/>
<path d="M134.786 72.2607C134.786 72.2607 132.654 79.6702 127.133 83.0317C127.133 83.0317 157.809 106.013 162.146 108.03C166.484 110.047 176.075 89.8006 174.898 88.4313C173.725 87.0585 134.786 72.2607 134.786 72.2607Z" fill="#525B9B"/>
<path d="M132.531 82.2679C135.572 79.818 137.189 76.0728 137.999 73.4857C136.002 72.7219 134.786 72.2607 134.786 72.2607C134.786 72.2607 132.654 79.6702 127.133 83.0317C127.133 83.0317 157.809 106.013 162.146 108.03C163.954 108.872 166.67 105.844 169.144 101.934C161.417 98.4983 132.531 82.2679 132.531 82.2679Z" fill="#594C95"/>
<path d="M135.018 71.0498C135.018 71.0498 145.595 74.0664 145.444 75.5659C144.641 83.4259 137.914 91.5006 136.378 90.7861C134.842 90.0715 126.163 82.7465 126.163 82.7465C126.163 82.7465 131.3 81.3984 135.018 71.0498Z" fill="#6776B8"/>
</g>
<defs>
<clipPath id="clip0">
<rect width="175" height="114" fill="white"/>
</clipPath>
</defs>
</svg>
