<svg width="18" height="17" viewBox="0 0 18 17" fill="none" xmlns="http://www.w3.org/2000/svg">
<path d="M17.3807 0.309286C16.6496 0.79527 15.8636 1.13412 15.0508 1.31374C14.323 0.46005 13.3657 -0.00754056 12.3751 0.00689202C11.4579 -0.0582135 10.5576 0.339991 9.87058 1.11466C9.18357 1.88933 8.76558 2.97762 8.70777 4.14218C8.70721 4.4597 8.73907 4.77596 8.80254 5.08307C5.93353 4.9633 3.21751 3.41089 1.24418 0.762878C0.921665 1.3786 0.749435 2.10156 0.749088 2.84112C0.760445 3.54569 0.916914 4.2342 1.20291 4.83808C1.48891 5.44196 1.89447 5.94014 2.37919 6.28302C1.80275 6.26301 1.23645 6.08564 0.718761 5.76298V5.81498C0.756978 6.82146 1.07232 7.7789 1.60973 8.52012C2.14713 9.26134 2.87244 9.73923 3.65901 9.87034C3.11687 10.0371 2.55358 10.061 2.00389 9.94064C2.28129 10.8012 2.75629 11.5356 3.36701 12.0484C3.97773 12.5611 4.69586 12.8284 5.42786 12.8153C4.08713 13.9807 2.49798 14.5976 0.87343 14.5835C0.581716 14.5834 0.290195 14.5644 0 14.5266C1.71512 15.7549 3.65227 16.3954 5.62119 16.3853C12.3691 16.3853 16.0538 10.0832 16.0538 4.61792L16.0432 4.08247C16.7493 3.51459 17.3696 2.79086 17.875 1.94549C17.1993 2.28137 16.4911 2.50033 15.7695 2.5965C16.5106 2.1131 17.0845 1.29833 17.3807 0.309286Z" fill="#215063"/>
</svg>
