<svg width="15" height="16" viewBox="0 0 15 16" fill="none" xmlns="http://www.w3.org/2000/svg">
<path fill-rule="evenodd" clip-rule="evenodd" d="M0 7.83363C0 3.70218 3.3525 0.349121 7.4925 0.349121C11.64 0.349121 15 3.70218 15 7.83363C15 11.9651 11.64 15.3181 7.4925 15.3181C3.3525 15.3181 0 11.9651 0 7.83363ZM10.4759 4.83975H12.6884C11.9684 3.60482 10.8209 2.64681 9.44092 2.17529C9.89092 3.00607 10.2359 3.9042 10.4759 4.83975ZM7.50061 1.87604C8.12311 2.77418 8.61061 3.76962 8.93311 4.8399H6.06812C6.39061 3.76962 6.87811 2.77418 7.50061 1.87604ZM1.50146 7.83354C1.50146 8.34997 1.57646 8.85144 1.69646 9.33044H4.23145C4.17145 8.83647 4.12645 8.34249 4.12645 7.83354C4.12645 7.32459 4.17145 6.83062 4.23145 6.33664H1.69646C1.57646 6.81565 1.50146 7.31711 1.50146 7.83354ZM2.30713 10.8274H4.51963C4.75963 11.763 5.10463 12.6611 5.55463 13.4919C4.17463 13.0204 3.02713 12.0698 2.30713 10.8274ZM2.30713 4.83975H4.51963C4.75963 3.9042 5.10463 3.00607 5.55463 2.17529C4.17463 2.64681 3.02713 3.59734 2.30713 4.83975ZM7.50061 13.7913C6.87811 12.8931 6.39061 11.8977 6.06812 10.8274H8.93311C8.61061 11.8977 8.12311 12.8931 7.50061 13.7913ZM5.745 9.33044H9.255C9.3225 8.83647 9.375 8.34249 9.375 7.83354C9.375 7.32459 9.3225 6.82313 9.255 6.33664H5.745C5.6775 6.82313 5.625 7.32459 5.625 7.83354C5.625 8.34249 5.6775 8.83647 5.745 9.33044ZM9.44092 13.4919C9.89092 12.6611 10.2359 11.763 10.4759 10.8274H12.6884C11.9684 12.0624 10.8209 13.0204 9.44092 13.4919ZM10.8753 7.83354C10.8753 8.34249 10.8303 8.83647 10.7703 9.33044H13.3052C13.4252 8.85144 13.5002 8.34997 13.5002 7.83354C13.5002 7.31711 13.4252 6.81565 13.3052 6.33664H10.7703C10.8303 6.83062 10.8753 7.32459 10.8753 7.83354Z" fill="white"/>
</svg>
